<?xml version="1.0" standalone="no"?>
<!DOCTYPE svg PUBLIC "-//W3C//DTD SVG 1.1//EN" "http://www.w3.org/Graphics/SVG/1.1/DTD/svg11.dtd" >
<svg xmlns="http://www.w3.org/2000/svg">
<metadata>
This is a custom SVG webfont generated by Font Squirrel.
Copyright   : Digitized data C 2004 Agfa Monotype Corporation Neo SansTM is a trademark of Agfa Monotype Corporation and may be registered in certain jurisdictions  All rights reserved Neo Sans is designed by Sebastian Lester
Designer    : Sebastian Lester
Foundry     : Agfa Monotype Corporation
Foundry URL : httpwwwagfamonotypecom
</metadata>
<defs>
<font id="webfontyT1ofnBT" horiz-adv-x="1288" >
<font-face units-per-em="2048" ascent="1638" descent="-410" />
<missing-glyph horiz-adv-x="512" />
<glyph unicode=" "  horiz-adv-x="512" />
<glyph unicode="&#x09;" horiz-adv-x="512" />
<glyph unicode="&#xa0;" horiz-adv-x="512" />
<glyph unicode="!" horiz-adv-x="522" d="M123 1520q0 14 14 28q10 10 29 11h194q18 0 29 -11q12 -12 12 -28l-30 -1041q0 -16 -12.5 -28.5t-28.5 -12.5h-133q-16 0 -29 13q-14 14 -14 28zM131 35v231q0 18 10.5 28.5t28.5 10.5h184q18 0 28.5 -10t10.5 -29v-231q0 -16 -12 -28.5t-27 -12.5h-184q-14 0 -26.5 12.5 t-12.5 28.5z" />
<glyph unicode="&#x22;" horiz-adv-x="858" d="M59 1077q0 14 2 19l105 424q8 39 41 39h192q25 0 25 -23l-4 -16l-139 -424q-12 -39 -39 -39h-164q-19 0 -19 20zM469 1077q0 14 2 19l104 424q8 39 41 39h193q25 0 25 -23q0 -6 -5 -16l-139 -424q-12 -39 -39 -39h-164q-18 0 -18 20z" />
<glyph unicode="#" horiz-adv-x="1400" d="M74 436v4l10 95q4 20 12 28q12 12 29 12h176l33 363l-166 2q-14 0 -29 10q-12 8 -12 27v4l10 92q0 16 12.5 28.5t28.5 12.5h170l33 369q0 14 12.5 26.5t26.5 12.5h164q12 0 22 -11q8 -8 8 -24v-4l-32 -369h266l33 369q2 39 39 39h161q31 0 31 -35v-4l-33 -369h178 q14 0 29 -10q12 -10 12 -27v-4l-10 -92q-4 -20 -14 -30.5t-27 -10.5h-84q-14 0 -47 -1t-51 -1l-33 -363h174q14 0 29 -10q12 -8 12 -26v-4l-10 -95q-4 -20 -14.5 -30.5t-26.5 -10.5h-180l-31 -360q-2 -39 -37 -39h-162q-33 0 -32 35v4l30 360h-266l-31 -360q-2 -39 -36 -39 h-164q-12 0 -23 12q-10 14 -10 23v4l31 360h-170q-18 0 -29 11q-12 12 -12 26zM535 575h266l33 363h-267z" />
<glyph unicode="$" d="M154 1149q0 150 84 250t264 127v172q0 16 12 28.5t29 12.5h186q16 0 28.5 -12.5t12.5 -28.5v-164q170 -8 289 -33q14 -2 26 -14q10 -10 11 -25v-151q0 -18 -9 -27q-10 -10 -26 -10h-4q-213 20 -404 20q-215 0 -215 -145q0 -49 35 -88q37 -39 133 -94l246 -138 q162 -90 223.5 -188t61.5 -229q0 -92 -37 -179q-39 -90 -117 -147q-88 -66 -213 -88v-186q0 -16 -12.5 -28.5t-28.5 -12.5h-186q-16 0 -28.5 12t-12.5 29v174q-121 6 -266 34q-39 8 -39 41v148q0 14 12 26.5t27 12.5h4q88 -10 182 -15q127 -6 180 -6q92 0 141 21 q52 22 74 61q23 41 23 103q0 63 -35 100q-33 37 -139 100l-271 162q-135 80 -188 170t-53 205z" />
<glyph unicode="%" horiz-adv-x="1660" d="M82 1022v168q0 174 75.5 258t217.5 84q145 0 217 -84q74 -86 74 -258v-168q0 -117 -33 -191q-35 -80 -100.5 -116.5t-157.5 -36.5q-141 0 -217 86q-76 84 -76 258zM256 1022q0 -106 30.5 -149.5t88.5 -43.5q55 0 88 45q29 41 29 148v168q0 102 -29 147q-29 43 -88.5 43 t-89.5 -43q-29 -41 -29 -147v-168zM279 12q0 14 8 25l854 1444q20 29 24 32q8 8 25 9h172q18 0 18 -17q0 -14 -8 -24l-854 -1444q-16 -27 -24.5 -35t-22.5 -8h-172q-20 0 -20 18zM997 332v168q0 113 35 192q33 76 101 115q63 37 157 37q139 0 215 -84t76 -260v-168 q0 -174 -76 -258q-76 -86 -215 -86t-217 86q-76 84 -76 258zM1171 332q0 -104 31 -147.5t88 -43.5q61 0 88 43q29 45 29 148v168q0 102 -29 147q-27 43 -88 43q-57 0 -88 -43t-31 -147v-168z" />
<glyph unicode="&#x26;" horiz-adv-x="1468" d="M113 377v20q0 123 67 213q63 84 213 176l-14 17q-123 143 -158 221q-37 80 -37 158v18q0 102 52 178q49 74 159 119q100 41 256 41q104 0 185 -25q78 -25 137 -67q57 -41 88 -105q31 -61 31 -141v-18q0 -131 -82 -226q-88 -102 -222 -182l-49 -31l308 -327q53 125 53 293 v24q0 41 35 41h149q18 0 27 -10q10 -14 10 -31v-24q0 -268 -123 -453l201 -213q8 -8 8 -20q0 -23 -23 -23h-229q-14 0 -35 16l-76 80q-162 -113 -389 -112q-242 0 -391 98q-151 98 -151 295zM393 377q0 -94 74 -143.5t188 -49.5q147 0 248 62l-358 381q-92 -57 -121 -103 q-31 -49 -31 -127v-20zM426 1182q0 -45 8 -72q10 -37 41 -78q39 -53 94 -108l19 -19l61 37q92 57 123 84q39 33 57.5 70t18.5 86v18q0 45 -23 80q-18 29 -67 49q-39 16 -107 17q-104 0 -166 -37q-59 -35 -59 -109v-18z" />
<glyph unicode="'" horiz-adv-x="450" d="M59 1077q0 14 2 19l105 424q8 39 41 39h192q25 0 25 -23l-4 -16l-139 -424q-12 -39 -39 -39h-164q-19 0 -19 20z" />
<glyph unicode="(" horiz-adv-x="681" d="M113 541v39q0 141 16 272q14 109 51 235q35 115 84 211q51 100 117 195q23 29 70 29h145q25 0 25 -21q0 -14 -11 -33q-98 -181 -159 -399q-61 -217 -62 -489v-39q0 -270 62 -486q63 -219 159 -401q10 -14 11 -33q0 -20 -25 -20h-145q-47 0 -70 28q-66 94 -117 194.5 t-84 209.5q-37 125 -51 237q-16 132 -16 271z" />
<glyph unicode=")" horiz-adv-x="681" d="M61 -379q0 18 11 33q63 119 110 248q49 131 80 293q31 160 31 346v39q0 186 -31 348q-31 158 -80 293q-47 129 -110 247q-10 18 -11 33q0 20 25 21h145q47 0 70 -29q65 -89 117 -190q47 -92 84 -209q29 -88 49 -238q18 -129 18 -276v-39q0 -145 -18 -275 q-20 -141 -51 -239q-31 -96 -84 -207q-47 -96 -115 -191q-23 -29 -70 -28h-145q-25 0 -25 20z" />
<glyph unicode="*" horiz-adv-x="968" d="M80 1194q0 8 2 10l33 101q6 20 26 20q4 0 21 -4l244 -80l-5 256q0 39 31 39h107q31 0 30 -41l-2 -254l242 80q16 4 20 4q20 0 27 -20l33 -101q2 -2 2 -10q0 -23 -31 -33l-244 -74l152 -206q10 -16 10 -29q0 -10 -12 -23l-84 -61q-9 -6 -18 -6q-18 0 -31 20l-148 209 l-147 -209q-12 -20 -31 -20q-9 0 -18 6l-86 61q-12 12 -13 23q0 16 11 29l153 206l-241 74q-33 8 -33 33z" />
<glyph unicode="+" d="M170 729v143q0 33 41 33h330v332q0 41 32 41h144q15 0 24 -12q8 -10 9 -29v-332h331q41 0 41 -33v-143q0 -15 -12 -24q-10 -8 -29 -9h-331v-329q0 -18 -9 -29q-9 -12 -24 -12h-144q-33 0 -32 41v329h-330q-18 0 -29 9q-12 9 -12 24z" />
<glyph unicode="," horiz-adv-x="528" d="M23 -170q0 10 2 12l125 430q12 39 40 39h197q10 0 21 -6q8 -6 8 -18q-2 -4 -4 -15l-179 -430q-10 -23 -16 -32q-6 -8 -22 -9h-142q-30 0 -30 29z" />
<glyph unicode="-" horiz-adv-x="655" d="M88 565v129q0 14 12.5 26.5t28.5 12.5h401q16 0 27 -10q12 -12 12 -29v-129q0 -16 -12 -26q-14 -10 -27 -11h-401q-18 0 -29 11q-12 12 -12 26z" />
<glyph unicode="." horiz-adv-x="528" d="M133 41v231q0 14 12.5 26.5t28.5 12.5h182q14 0 29 -10q12 -10 12 -29v-231q0 -16 -12 -28.5t-29 -12.5h-182q-16 0 -28.5 12.5t-12.5 28.5z" />
<glyph unicode="/" horiz-adv-x="786" d="M31 33l1 2q1 2 1 4v4l446 1438q12 41 39 41h207q14 0 23 -9q10 -10 10 -22q0 -8 -2 -10l-445 -1438q-12 -43 -39 -43h-206q-8 0 -23 10q-12 11 -12 23z" />
<glyph unicode="0" d="M111 684v152q0 186 36 321q39 145 105 221q68 80 168 121q96 39 225 39t225 -39q100 -41 168 -121t107 -221q35 -127 35 -321v-152q0 -197 -35 -322q-37 -133 -107 -217q-68 -82 -168 -122q-96 -39 -225 -39t-225 39q-100 41 -168 122q-66 80 -105 217q-36 134 -36 322z M395 684q0 -176 31 -281q31 -102 88 -147q53 -41 131 -41t131 41q55 43 86 147q33 111 33 281v152q0 266 -66 366q-68 104 -184 105q-117 0 -184 -105q-66 -100 -66 -366v-152z" />
<glyph unicode="1" d="M250 1174v198q0 16 14 23l336 118q18 8 47 9h135q18 0 28.5 -10.5t10.5 -28.5v-1442q0 -16 -12 -28.5t-29 -12.5h-200q-16 0 -28.5 12.5t-12.5 28.5v1194l-242 -82q-12 -4 -25 -4q-22 0 -22 25z" />
<glyph unicode="2" d="M166 41v201q0 115 41 211q43 104 112 184q74 86 158 141l203 135q80 53 123 91q35 29 51 65q14 31 14 94q0 83 -55 117q-57 35 -184 35q-137 0 -410 -31h-4q-14 0 -27 12q-10 10 -10 29v123q0 27 39 39q77 22 191 37q106 14 221 14q264 0 385 -90q119 -88 119 -285 q0 -123 -61.5 -215t-194.5 -182l-185 -123q-90 -59 -164 -127q-68 -61 -96 -125q-31 -68 -31 -149v-9h674q16 0 31 -10q10 -8 10 -26v-156q0 -16 -12 -28.5t-29 -12.5h-868q-16 0 -28.5 12.5t-12.5 28.5z" />
<glyph unicode="3" d="M172 74v127q0 16 10.5 26.5t26.5 10.5h4q287 -29 391 -29q119 0 176 53q53 51 54 164v43q0 94 -41 152q-40 55 -148 55h-362q-16 0 -27 10q-12 12 -12 29v129q0 16 12 28q10 10 27 11h362q106 0 147.5 53t41.5 147v33q0 92 -50 144q-49 53 -180 53q-104 0 -168 -6 q-166 -16 -223 -23h-4q-16 0 -26.5 10.5t-10.5 26.5v127q0 15 12 25q16 12 27 14q94 23 186 37q88 14 207 14q157 0 270 -43q117 -45 179 -135q66 -96 65 -244v-33q0 -207 -176 -303q51 -27 94 -78q41 -51 62 -108q20 -59 20 -125v-43q0 -111 -39 -195q-37 -82 -108 -139 q-66 -53 -162 -82q-92 -27 -205 -26q-80 0 -141 6q-72 6 -135 20q-113 25 -117 25q-39 6 -39 39z" />
<glyph unicode="4" d="M80 408v165q0 37 22 66l631 846q29 37 60 37h186q16 0 28.5 -12.5t12.5 -28.5v-889h151q16 0 28.5 -12.5t12.5 -28.5v-143q0 -16 -12 -28.5t-29 -12.5h-151v-326q0 -16 -10 -31q-8 -10 -27 -10h-211q-14 0 -27 12q-10 10 -10 29v326h-614q-16 0 -28.5 12.5t-12.5 28.5z M352 602q0 -10 17 -10h368v520q0 12 -6 12t-14 -12l-359 -498q-6 -6 -6 -12z" />
<glyph unicode="5" d="M172 80v121q0 16 10.5 26.5t26.5 10.5h4q233 -29 391 -29q92 0 145.5 32.5t75.5 92.5q20 55 21 151v11q0 86 -37 135t-119 71q-84 23 -207 23h-276q-10 0 -16.5 10t-6.5 17v4l66 729q0 12 14 26q10 10 27 11h743q14 0 29 -11q12 -8 12 -28v-156q0 -16 -12 -29 q-10 -10 -29 -10h-555l-30 -340h34q145 0 244 -16q109 -18 203 -66q88 -45 145 -139q55 -92 55 -231v-11q0 -113 -32 -211q-29 -90 -97 -155q-68 -68 -163 -101q-100 -35 -234 -34q-63 0 -127 6q-61 6 -137 18q-82 14 -129 27q-23 6 -29 14q-10 11 -10 31z" />
<glyph unicode="6" d="M123 616v236q0 248 63 395q66 152 189 221q125 70 315 70q193 0 379 -39q47 -10 47 -43v-127q0 -43 -39 -43h-8q-168 27 -379 27q-102 0 -165.5 -35t-92.5 -117q-28 -80 -31 -221q131 23 285 23q104 0 195 -25q92 -25 159 -76q66 -49 109 -141q39 -84 39 -209v-20 q0 -113 -35 -207q-33 -90 -102 -160q-66 -66 -168 -105q-98 -37 -224 -36q-115 0 -213 36.5t-170 114.5q-74 80 -112 199q-41 126 -41 282zM401 616q0 -238 66 -325q66 -86 192 -86q121 0 185 63q66 66 65 224v20q0 244 -280 244q-102 0 -228 -23v-117z" />
<glyph unicode="7" d="M158 1325v158q0 16 12 28q10 10 29 11h854q33 0 57.5 -24.5t24.5 -57.5v-111q0 -14 -37 -94l-553 -1196q-8 -20 -23 -31q-10 -8 -33 -8h-213q-29 0 -28 31q0 2 4 18l588 1225v4q0 10 -11 10h-630q-18 0 -29 10q-12 13 -12 27z" />
<glyph unicode="8" d="M111 440v19q0 100 49 186q47 84 137 148q-178 113 -178 319v8q0 141 69 240q63 90 183 135q114 43 264 43h20q147 0 265 -43q115 -43 186 -135q70 -90 70 -240v-8q0 -94 -46 -178q-43 -80 -135 -141q88 -63 135 -146q51 -90 52 -188v-19q0 -123 -41 -204 q-45 -90 -117 -144q-78 -59 -166 -82q-100 -27 -203 -26h-20q-100 0 -201 26q-88 23 -166 82q-72 53 -116 144q-41 81 -41 204zM383 1104q0 -95 55 -154q55 -57 166 -57h84q113 0 168 57q55 58 55 154v8q0 217 -256 217h-20q-252 0 -252 -217v-8zM387 440q0 -109 64 -174 q66 -70 184 -69h20q120 0 185 67q66 70 65 176v19q0 86 -53 155.5t-164 69.5h-84q-111 0 -164 -69.5t-53 -155.5v-19z" />
<glyph unicode="9" d="M100 1010v20q0 233 139.5 370.5t389.5 137.5q157 0 276 -68q125 -70 191 -208q70 -145 69 -357v-235q0 -248 -63 -396q-66 -152 -189 -221q-125 -70 -315 -69q-205 0 -379 39q-47 10 -47 43v127q0 43 39 43h8q158 -27 379 -27q104 0 168 35q59 33 88 116q31 90 33 222 q-123 -23 -285 -23q-113 0 -194 23q-86 25 -158 80q-71 55 -111 141q-39 84 -39 207zM379 1010q0 -244 280 -244q39 0 113 6q68 6 115 16v117q0 238 -66 326q-63 86 -192 86q-113 0 -183 -66q-68 -65 -67 -221v-20z" />
<glyph unicode=":" horiz-adv-x="528" d="M133 41v231q0 14 12.5 26.5t28.5 12.5h182q14 0 29 -10q12 -10 12 -29v-231q0 -16 -12 -28.5t-29 -12.5h-182q-16 0 -28.5 12.5t-12.5 28.5zM133 848v231q0 16 12.5 28.5t28.5 12.5h182q18 0 29 -10q12 -12 12 -31v-231q0 -16 -12 -29q-10 -10 -29 -10h-182 q-16 0 -28.5 12.5t-12.5 26.5z" />
<glyph unicode=";" horiz-adv-x="528" d="M8 -170q0 10 2 12l125 430q12 39 41 39h197q29 0 28 -24q-2 -4 -4 -15l-178 -430q-10 -23 -16 -32q-6 -8 -23 -9h-141q-14 0 -22.5 8.5t-8.5 20.5zM133 848v231q0 16 12.5 28.5t28.5 12.5h182q18 0 29 -10q12 -12 12 -31v-231q0 -16 -12 -29q-10 -10 -29 -10h-182 q-16 0 -28.5 12.5t-12.5 26.5z" />
<glyph unicode="&#x3c;" d="M238 801q0 18 10 39q8 16 37 41l473 413q8 8 20 17q9 6 25 6h225q12 0 19 -8q6 -10 6 -21q0 -15 -13 -24l-532 -463l532 -463q12 -9 13 -25q0 -10 -9 -18q-10 -10 -16 -10h-225q-12 0 -23 6q-6 4 -22 16l-473 414q-28 28 -37 43q-10 17 -10 37z" />
<glyph unicode="=" d="M190 481v144q0 33 41 32h830q41 0 41 -32v-144q0 -33 -41 -32h-830q-41 -1 -41 32zM190 977v143q0 33 41 33h830q41 0 41 -33v-143q0 -33 -41 -33h-830q-41 0 -41 33z" />
<glyph unicode="&#x3e;" d="M238 313q0 15 12 25l532 463l-532 463q-12 9 -12 24q0 10 6 21q6 8 18 8h225q15 0 25 -6q12 -8 20 -17l474 -413q31 -27 36 -39q10 -20 11 -41q0 -23 -9 -37q-6 -10 -38 -43l-474 -414q-10 -8 -22 -16q-10 -6 -23 -6h-225q-10 0 -16 10q-8 12 -8 18z" />
<glyph unicode="?" horiz-adv-x="894" d="M61 1317v127q0 27 6.5 39t30.5 18q55 16 146 27q92 10 168 10q211 0 317 -72q104 -70 105 -247v-33q0 -74 -27 -139q-29 -72 -119 -177l-125 -147q-8 -10 -33 -39q-27 -29 -34 -43q-12 -20 -19 -41q-8 -33 -8 -45v-78q0 -16 -12 -28q-10 -10 -29 -11h-170 q-18 0 -28.5 10.5t-10.5 28.5v78q0 96 25 158q23 57 96 143l131 152q33 39 45 79q14 47 14 99v33q0 76 -118 75q-98 0 -308 -22h-8q-35 0 -35 45zM211 39v231q0 16 12.5 28.5t28.5 12.5h184q18 0 31 -12q10 -10 10 -29v-231q0 -16 -12 -29q-10 -10 -29 -10h-184 q-16 0 -28.5 12.5t-12.5 26.5z" />
<glyph unicode="@" horiz-adv-x="1579" d="M74 315q0 51 2 66l30 334q12 147 69.5 264t154.5 201q90 78 233 127q133 45 299 45q160 0 283 -49.5t203 -135.5q82 -90 120 -194q41 -113 41 -232q0 -178 -53 -307q-51 -125 -153 -198q-106 -78 -236 -107q-135 -31 -313 -31q-158 0 -252 76q-96 78 -96 217q0 2 1 8.5 t1 8.5v20l18 240q12 166 119 254q102 84 278 84q82 0 271 -31q47 -6 47 -53v-9l-60 -618q98 14 162 76q57 55 84 151q25 92 25 219q0 125 -54 236q-51 104 -165 172q-109 63 -273 63q-131 0 -239 -34q-102 -33 -180.5 -98.5t-121.5 -159.5q-43 -95 -55 -215l-31 -324 q-4 -66 -4 -68q0 -186 131 -301q127 -113 381 -112q170 0 297 14h13q14 0 14 -18v-76q0 -25 -27 -27q-143 -20 -297 -20q-195 0 -348 65.5t-235 186.5q-84 124 -84 290zM618 395q0 -66 35 -88q39 -27 115 -26h41q45 0 57 2l47 530q-68 10 -112 10q-76 0 -113 -36.5 t-45 -127.5l-22 -229q-3 -8 -3 -35z" />
<glyph unicode="A" horiz-adv-x="1320" d="M39 35q0 2 1 2t1 2v6l336 1284q55 209 284.5 209t284.5 -209l336 -1284l1 -2l1 -2v-6q0 -14 -10 -24.5t-27 -10.5h-217q-10 0 -24 10q-10 8 -15 25l-94 389h-471l-94 -389q-4 -16 -15 -25q-14 -10 -24 -10h-217q-16 0 -26.5 10.5t-10.5 24.5zM481 657h361l-148 609 q-6 20 -12 26t-20.5 6t-20.5 -6t-12 -26z" />
<glyph unicode="B" horiz-adv-x="1329" d="M154 117v1290q0 53 22 80q23 25 70 31q43 8 143 14q92 6 199 6q143 0 262 -22q113 -20 194 -70q83 -49 130 -129q45 -78 45 -195v-41q0 -70 -21 -129q-20 -57 -65 -106q-49 -53 -103 -74q199 -82 199 -311v-35q0 -158 -74 -256q-76 -100 -213 -143q-139 -43 -336 -43 q-231 0 -354 22q-55 10 -76 33q-22 27 -22 78zM438 223q45 0 86 -2t82 -2q193 0 268.5 49t75.5 162v27q0 96 -57 155q-57 61 -195 62h-260v-451zM438 883h260q244 0 244 194v29q0 70 -35 115t-110 63q-77 18 -209 19q-78 0 -150 -5v-415z" />
<glyph unicode="C" horiz-adv-x="1150" d="M113 610v301q0 178 53 308q51 125 137 194q82 68 186 96q102 29 203 29q66 0 139 -6q84 -6 123 -14q49 -9 62 -13q45 -14 45 -47v-137q0 -43 -41 -43h-4q-203 16 -320 16q-139 0 -219 -88q-78 -86 -78 -295v-301q0 -383 297 -383q139 0 320 17h4q41 0 41 -43v-138 q0 -33 -45 -47q-23 -6 -129 -20q-92 -12 -195 -12q-96 0 -200 28q-96 27 -187 101q-88 72 -139 192q-53 125 -53 305z" />
<glyph unicode="D" horiz-adv-x="1363" d="M154 72v1378q0 53 53 63q31 6 168 17q109 8 235 8q152 0 275 -41q119 -39 202 -121q80 -76 123 -194q43 -117 43 -271v-301q0 -152 -43 -268q-45 -121 -123 -197q-84 -82 -202 -120q-123 -41 -275 -41q-98 0 -219 8q-152 10 -184 16q-53 11 -53 64zM438 229 q129 -6 172 -6q172 0 266.5 86t94.5 301v301q0 147 -45 232q-47 88 -125 121q-82 35 -191 34h-63q-4 0 -19.5 -1t-27.5 -1q-25 0 -62 -4v-1063z" />
<glyph unicode="E" horiz-adv-x="1179" d="M154 403v715q0 168 59 258q63 94 164 127q109 35 250 35q137 0 239 -8q84 -6 150 -21q23 -2 33 -12q8 -8 8 -31v-131q0 -16 -12.5 -28.5t-28.5 -12.5h-418q-88 0 -127 -39q-35 -35 -35 -137v-221h555q20 0 30.5 -10t10.5 -31v-147q0 -16 -12 -28.5t-29 -12.5h-555v-265 q0 -100 35 -137q37 -39 127 -39h418q16 0 28.5 -12t12.5 -29v-131q0 -37 -41 -43q-39 -4 -58 -8q-12 -2 -96 -10q-8 0 -104 -8q-27 -2 -131 -2q-141 0 -250 34q-100 33 -164 127q-59 88 -59 258z" />
<glyph unicode="F" horiz-adv-x="1179" d="M154 41v1077q0 168 59 258q63 94 164 127q109 35 250 35q137 0 239 -8q84 -6 150 -21q23 -2 33 -12q8 -8 8 -31v-131q0 -16 -12.5 -28.5t-28.5 -12.5h-418q-88 0 -127 -39q-35 -35 -35 -137v-221h555q20 0 30.5 -10t10.5 -31v-147q0 -16 -12 -28.5t-29 -12.5h-555v-627 q0 -16 -12 -28.5t-29 -12.5h-200q-16 0 -28.5 12.5t-12.5 28.5z" />
<glyph unicode="G" horiz-adv-x="1298" d="M113 612v295q0 225 84 369q82 139 208.5 200.5t262.5 61.5q86 0 176 -6q68 -4 162 -16q82 -10 102 -15q39 -8 39 -43v-137q0 -25 -8 -33q-10 -10 -33 -10h-6q-201 16 -432 16q-72 0 -133 -37q-59 -37 -99 -124q-37 -86 -37 -226v-295q0 -139 39 -223q43 -90 97 -125 q59 -37 127 -37q108 0 202 6v523q0 18 10 28q12 12 29 13h203q16 0 28.5 -12.5t12.5 -28.5v-688q0 -41 -39 -50q-51 -12 -115 -18q-104 -10 -159 -12q-127 -4 -172 -4q-126 0 -252 61q-125 61 -211 202.5t-86 364.5z" />
<glyph unicode="H" horiz-adv-x="1456" d="M154 41v1442q0 16 12 28q10 10 29 11h202q14 0 29 -11q12 -8 12 -28v-565h582v565q0 16 12 28q10 10 29 11h203q18 0 28 -11q12 -12 13 -28v-1442q0 -16 -12.5 -28.5t-28.5 -12.5h-203q-16 0 -28.5 12.5t-12.5 28.5v627h-582v-627q0 -16 -12 -28.5t-29 -12.5h-202 q-16 0 -28.5 12.5t-12.5 28.5z" />
<glyph unicode="I" horiz-adv-x="591" d="M154 41v1442q0 16 12 28q10 10 29 11h202q14 0 29 -11q12 -8 12 -28v-1442q0 -16 -12 -28.5t-29 -12.5h-202q-16 0 -28.5 12.5t-12.5 28.5z" />
<glyph unicode="J" horiz-adv-x="591" d="M-74 -152q0 18 11 27q14 10 30 10h135q29 0 41 15q10 12 11 57v1526q0 16 12 28q10 10 29 11h202q14 0 29 -11q12 -8 12 -28v-1526q0 -158 -80 -229q-78 -70 -247 -70q-45 0 -97 6q-39 4 -67 10q-20 6 -21 29v145z" />
<glyph unicode="K" horiz-adv-x="1316" d="M154 41v1440q0 16 12 28q10 10 29 11h202q14 0 29 -11q12 -10 12 -28v-652l502 674q10 16 47 17h234q39 0 39 -25q0 -12 -15 -33l-524 -678l528 -741q10 -14 11 -25q0 -18 -31 -18h-275q-31 0 -47 23l-469 698v-680q0 -16 -12 -28.5t-29 -12.5h-202q-16 0 -28.5 12.5 t-12.5 28.5z" />
<glyph unicode="L" horiz-adv-x="1056" d="M154 403v1078q0 16 12 28.5t29 12.5h202q16 0 28.5 -12.5t12.5 -28.5v-1078q0 -104 35 -139q37 -37 125 -37h377q16 0 28.5 -12t12.5 -29v-131q0 -23 -8.5 -31t-32.5 -12q-41 -10 -160 -20q-100 -8 -188 -8q-141 0 -250 34q-100 33 -164 127q-59 88 -59 258z" />
<glyph unicode="M" horiz-adv-x="1619" d="M154 31v1409q0 33 24.5 57.5t57.5 24.5h167q25 0 46 -15q23 -16 30 -34l309 -627q18 -29 22.5 -29t23.5 29l309 627q25 49 76 49h167q39 0 60 -25q23 -27 22 -57v-1409q0 -31 -34 -31h-207q-14 0 -23 12q-10 14 -10 29v952q0 20 -6 21q-4 0 -10 -13l-197 -391 q-18 -35 -66 -35h-206q-47 0 -66 35l-199 391q-6 12 -10 13q-6 0 -6 -21v-952q0 -14 -10 -29q-8 -12 -23 -12h-207q-34 0 -34 31z" />
<glyph unicode="N" horiz-adv-x="1456" d="M154 41v1399q0 33 24.5 57.5t57.5 24.5h221q37 0 53 -15q18 -16 37 -51l477 -1053q6 -16 16.5 -16t10.5 19v1077q0 16 12 28q10 10 27 11h176q18 0 28.5 -10.5t10.5 -28.5v-1401q0 -33 -25 -57.5t-57 -24.5h-207q-49 0 -76 12q-28 12 -49 62l-455 997q-10 16 -18 16 q-10 0 -10 -16v-1030q0 -18 -11 -29q-12 -12 -28 -12h-174q-16 0 -28.5 12.5t-12.5 28.5z" />
<glyph unicode="O" horiz-adv-x="1392" d="M113 623v276q0 215 73 361q74 143 205 210q133 68 305 68t303 -68q135 -70 207 -210q74 -145 74 -361v-276q0 -217 -74 -361q-72 -141 -207 -211q-131 -68 -303 -67.5t-305 67.5q-131 68 -204.5 211.5t-73.5 360.5zM399 623q0 -205 72 -297q74 -94 225 -95q150 0 224 95 q74 96 73 297v276q0 203 -73.5 297t-223.5 94q-152 0 -225 -94q-72 -92 -72 -297v-276z" />
<glyph unicode="P" horiz-adv-x="1280" d="M154 41v1409q0 51 65 61q162 27 402 27q125 0 231 -25q111 -25 186 -77q78 -53 125 -147.5t47 -223.5v-18q0 -170 -77 -279q-76 -106 -211.5 -153.5t-300.5 -47.5q-35 0 -72 2q-14 0 -30.5 1t-26 2t-15.5 1t-18.5 1t-20.5 1v-534q0 -16 -12 -28.5t-27 -12.5h-204 q-16 0 -28.5 12.5t-12.5 28.5zM438 807q98 -6 183 -6q113 0 178 26q70 29 98 80q31 55 31 140v18q0 127 -74 182.5t-233 55.5q-61 0 -103 -3q-61 -3 -80 -6v-487z" />
<glyph unicode="Q" horiz-adv-x="1411" d="M123 623v276q0 215 74 361q72 141 206 210q133 68 304 68q174 0 305 -67.5t205 -210.5q74 -145 73 -361v-276q0 -141 -30 -252q-29 -106 -93 -189q-58 -77 -141 -123q-86 -47 -184 -65v-43q0 -66 61 -66h199q20 0 34.5 -8t14.5 -24v-127q0 -31 -45 -43q-90 -23 -203 -23 q-98 0 -174 29q-72 27 -117 94q-41 61 -41 164v47q-102 18 -184 65q-80 47 -139 123q-61 80 -92 191q-33 119 -33 250zM410 623q0 -201 73 -297q74 -94 224 -95q152 0 225 95q72 92 72 297v276q0 205 -72 297q-74 94 -225 94q-150 0 -223.5 -94t-73.5 -297v-276z" />
<glyph unicode="R" horiz-adv-x="1335" d="M154 41v1409q0 51 65 61q162 27 402 27q262 0 425.5 -108.5t163.5 -354.5v-18q0 -158 -73.5 -262.5t-202.5 -155.5l321 -598q4 -4 5 -16q0 -25 -25 -25h-250q-18 0 -41 41l-295 547h-28q-35 0 -72 2q-14 0 -30.5 1t-26 2t-15.5 1t-18.5 1t-20.5 1v-555q0 -16 -12 -28.5 t-27 -12.5h-204q-16 0 -28.5 12.5t-12.5 28.5zM438 825q98 -6 183 -6q109 0 176 23q63 20 98 76q33 51 33 139v18q0 115 -76 166q-78 53 -231 53q-117 0 -183 -8v-461z" />
<glyph unicode="S" horiz-adv-x="1165" d="M92 1149q0 115 51 205q49 86 164 135t297 49q98 0 221 -12.5t172 -24.5q37 -6 37 -39v-151q0 -16 -10 -26.5t-25 -10.5h-4q-213 20 -403 20q-215 0 -215 -145q0 -49 35 -88q37 -39 133 -94l246 -138q162 -90 223 -188t61 -229q0 -178 -127 -303t-411 -125q-203 0 -363 36 q-39 8 -39 41v148q0 14 12.5 26.5t26.5 12.5h4q70 -8 125 -10q23 -2 67 -5.5t64 -3.5q43 -2 107 -2q133 0 184 45q53 47 53 140q0 59 -37 100q-37 39 -137 100l-270 162q-86 51 -146 115q-53 57 -75 123q-21 61 -21 137z" />
<glyph unicode="T" horiz-adv-x="1185" d="M51 1321v162q0 16 12 28q10 10 29 11h1002q18 0 28 -11q12 -12 13 -28v-162q0 -18 -13 -27q-14 -10 -28 -10h-359v-1243q0 -16 -12 -28.5t-29 -12.5h-202q-16 0 -28.5 12.5t-12.5 28.5v1243h-359q-14 0 -29 10q-12 9 -12 27z" />
<glyph unicode="U" horiz-adv-x="1411" d="M143 563v920q0 16 13 28q10 10 28 11h203q14 0 29 -11q12 -8 12 -28v-920q0 -123 25 -196q25 -76 84 -111q61 -37 169.5 -37t170.5 37q59 35 84 111q25 74 24 196v920q0 16 12 28q10 10 29 11h203q18 0 28 -11q12 -12 13 -28v-920q0 -164 -39 -272.5t-115 -177.5 q-74 -68 -178 -98.5t-231 -30.5t-232 30q-102 31 -176 98.5t-115 180t-41 270.5z" />
<glyph unicode="V" horiz-adv-x="1341" d="M49 1487q0 16 12 26q10 8 25 9h217q29 0 39 -35l297 -1231q6 -20 12 -26.5t21 -6.5q16 0 22 6q2 2 11 27l296 1231q10 35 39 35h217q18 0 27 -9q10 -10 10 -26v-4l-1 -2q-1 -2 -1 -4l-336 -1284q-55 -209 -284.5 -209t-284.5 209l-336 1284v6l-1 2z" />
<glyph unicode="W" horiz-adv-x="1763" d="M51 1487v6q0 10 10 20q8 8 25 9h217q12 0 23 -11q12 -12 12 -26l147 -1223q2 -31 11 -31q6 0 12 31l176 719q22 92 129 92h141q108 0 129 -92l177 -719q6 -20 6 -26q0 -4 6 -4.5t10 30.5l148 1223q0 10 12 26q8 10 22 11h217q16 0 25 -9q10 -10 10 -20v-6l-192 -1337 q-12 -90 -58 -130q-43 -37 -127 -36h-110q-66 0 -109 39q-39 37 -61 124l-162 676q-6 23 -12 23q-8 0 -15 -23l-161 -676q-23 -88 -62 -124q-43 -39 -108 -39h-111q-84 0 -127 36q-45 39 -57 130z" />
<glyph unicode="X" horiz-adv-x="1329" d="M51 1495q0 8 10 18q8 8 23 9h242q29 0 53 -39l299 -477l276 477q25 39 54 39h223q14 0 22 -9q10 -10 11 -18l-4 -12l-431 -721l451 -721q4 -8 4 -16q0 -25 -33 -25h-241q-25 0 -54 41l-301 483l-282 -483q-23 -41 -54 -41h-223q-33 0 -33 27q0 8 5 14l436 727l-449 715z " />
<glyph unicode="Y" horiz-adv-x="1259" d="M47 1491q0 14 8 22.5t25 8.5h227q27 0 39 -33l246 -610q16 -41 34.5 -41t37.5 41l245 610q12 33 39 33h226q16 0 24 -9q10 -10 10 -22l-4 -16l-311 -711q-51 -119 -125 -150v-573q0 -16 -12.5 -28.5t-26.5 -12.5h-205q-16 0 -28 12q-10 10 -11 29v573q-74 31 -125 150 l-309 711z" />
<glyph unicode="Z" horiz-adv-x="1202" d="M82 76v112q0 39 27 78l649 973q6 9 6 18q0 16 -21 17h-569q-12 0 -27 10q-12 10 -12 27v172q0 18 10.5 28.5t28.5 10.5h825q49 0 78 -21q31 -23 31 -57v-119q0 -39 -29 -84l-639 -956q-8 -10 -8 -22.5t19 -12.5h630q14 0 29 -10q12 -10 12 -27v-172q0 -16 -12 -28.5 t-29 -12.5h-895q-104 0 -104 76z" />
<glyph unicode="[" horiz-adv-x="727" d="M143 -358v1841q0 12 11 26q9 12 24 13h455q20 0 29 -9q10 -10 10 -24v-150q0 -35 -39 -34h-215v-1485h215q14 0 29 -10q10 -8 10 -25v-150q0 -33 -39 -32h-455q-15 0 -24 12q-11 15 -11 27z" />
<glyph unicode="\" horiz-adv-x="786" d="M31 1491q0 12 12 22q10 8 23 9h204q29 0 41 -41l447 -1454q0 -2 1 -2t1 -2v-7q0 -12 -10.5 -22t-24.5 -10h-207q-25 0 -37 43l-448 1454v6l-1 2z" />
<glyph unicode="]" horiz-adv-x="727" d="M57 -215q0 16 11 25q14 10 28 10h215v1485h-215q-39 0 -39 32v150q0 18 10.5 26.5t28.5 8.5h455q15 0 24 -13q10 -14 11 -26v-1841q0 -12 -11 -27q-9 -12 -24 -12h-455q-39 0 -39 32v150z" />
<glyph unicode="^" d="M168 1174q0 10 10 24l232 303q25 29 28 31q12 6 37 6h340q20 0 37 -8q12 -6 29 -29l231 -303q10 -14 10 -24q0 -18 -24 -19h-209q-22 0 -31 6q-12 8 -31 27l-182 209l-182 -209q-18 -20 -29 -27q-12 -6 -33 -6h-208q-25 1 -25 19z" />
<glyph unicode="_" horiz-adv-x="1069" d="M-63 -121q0 33 40 33h1117q41 0 41 -33v-80q0 -33 -41 -32h-1117q-41 0 -40 32v80z" />
<glyph unicode="`" horiz-adv-x="849" d="M66 1581q0 14 22 14h217q18 0 29 -6q9 -6 24 -24l193 -246q8 -8 8 -21q0 -14 -18 -14h-176q-16 0 -20.5 2t-27.5 25l-243 254q-8 8 -8 16z" />
<glyph unicode="a" horiz-adv-x="1120" d="M90 326v8q0 119 51 196q51 80 162 119q109 39 287 39h129v90q0 98 -43 131q-45 35 -137 35q-190 0 -334 -16h-10q-37 0 -37 35v131q0 35 39 43q174 33 342 32q145 0 245 -43q102 -43 153.5 -131t51.5 -217v-737q0 -16 -12 -28.5t-29 -12.5h-174q-16 0 -28.5 12.5 t-12.5 28.5v33q-150 -90 -289 -90q-152 0 -254 77q-100 77 -100 265zM362 326q0 -70 35 -98.5t113 -28.5q106 0 209 57v252h-129q-86 0 -139 -19q-51 -18 -70 -57q-18 -40 -19 -98v-8z" />
<glyph unicode="b" horiz-adv-x="1181" d="M133 92v1426q0 16 12.5 28.5t28.5 12.5h188q16 0 28.5 -12.5t12.5 -28.5v-363q100 14 197 14q162 0 272 -61q109 -61 164 -176q53 -113 54 -277v-157q0 -164 -54 -277q-55 -115 -164 -176q-111 -61 -272 -61q-205 0 -412 53q-20 4 -34 12q-12 6 -17 17q-4 12 -4 26z M403 219q63 -14 197 -14q125 0 172 77.5t47 215.5v157q0 139 -47 217q-45 76 -172 76q-102 0 -197 -14v-715z" />
<glyph unicode="c" horiz-adv-x="956" d="M92 481v191q0 168 60 274q63 115 167 168q106 55 240 55q70 0 156 -8q66 -6 108 -18q25 -6 33 -17q10 -14 10 -36v-134q0 -31 -37 -30h-6q-106 14 -264 14q-86 0 -141.5 -61.5t-55.5 -206.5v-191q0 -145 55.5 -206.5t141.5 -61.5q72 0 154 4q41 2 110 10h6q37 0 37 -30 v-134q0 -23 -10 -36q-8 -10 -33 -17q-111 -27 -264 -26q-133 0 -240 55q-104 53 -167 168q-60 106 -60 274z" />
<glyph unicode="d" horiz-adv-x="1181" d="M92 498v157q0 164 53 277q55 115 164 176q111 61 273 61q96 0 196 -14v363q0 16 12.5 28.5t28.5 12.5h189q16 0 28.5 -12.5t12.5 -28.5v-1426q0 -20 -11 -35q-8 -10 -45 -20q-121 -29 -209 -39q-121 -14 -202 -14q-238 0 -365 135q-125 133 -125 379zM362 498 q0 -141 48 -215q49 -78 172 -78q133 0 196 14v715q-94 14 -196 14q-123 0 -172 -76q-47 -74 -48 -217v-157z" />
<glyph unicode="e" horiz-adv-x="1175" d="M98 498v151q0 244 129 381q129 139 363 139q152 0 264 -65q109 -63 166 -184t57 -271v-114q0 -51 -41 -52h-667v-6q0 -104 57 -184q55 -76 188 -76q186 0 377 21h6q37 0 37 -31v-135q0 -29 -8 -37q-10 -10 -35 -17q-88 -16 -186 -26q-80 -8 -211 -8q-78 0 -170 26 q-84 25 -160 84.5t-121 159.5q-45 99 -45 244zM371 676h434v8q0 80 -26.5 135t-76 86t-112.5 31q-98 0 -158 -66q-61 -68 -61 -186v-8z" />
<glyph unicode="f" horiz-adv-x="808" d="M31 1020v94q0 16 12 28.5t29 12.5h182v100q0 125 43 199t119 100q80 29 192 29q41 0 123 -16q37 -10 37 -33v-121q0 -35 -31 -35h-92q-49 0 -75.5 -10t-34.5 -37q-10 -31 -11 -76v-100h197q16 0 28.5 -12.5t12.5 -28.5v-123q0 -16 -12 -28q-10 -10 -29 -11h-197v-909 q0 -18 -12 -30.5t-29 -12.5h-186q-18 0 -30.5 12.5t-12.5 30.5v909l-182 29q-41 6 -41 39z" />
<glyph unicode="g" horiz-adv-x="1193" d="M106 -57q0 59 29 123q27 59 76 102q-27 20 -47 49q-23 33 -35 68q-10 31 -10 71v2q0 109 82 166q-45 45 -64 105q-20 66 -20 135v14q0 166 119 273q117 104 368 104h479q23 0 39.5 -16.5t16.5 -38.5v-86q0 -23 -6.5 -29t-26.5 -16l-68 -27q51 -72 52 -164v-14 q0 -126 -56 -209q-55 -84 -166 -125q-104 -39 -264 -39q-131 0 -223 35q-35 -23 -35 -53.5t16 -44.5q16 -12 54 -23l241 -57q160 -37 263 -72q92 -31 143 -92q53 -63 53 -164v-14q0 -162 -123 -242t-379 -80q-166 0 -276 39q-117 41 -174.5 117t-57.5 184v19zM371 -57v-19 q0 -68 53 -102q51 -33 190 -33q137 0 184.5 28.5t47.5 88.5v14q0 27 -17 43q-14 14 -67 35q-61 23 -158 45l-182 43q-27 -39 -39 -66q-12 -28 -12 -77zM383 758q0 -70 47 -117q45 -45 174 -45q119 0 170 41q49 39 49 121v16q0 83 -49 129q-47 45 -170 45q-221 0 -221 -174 v-16z" />
<glyph unicode="h" horiz-adv-x="1210" d="M133 43v1475q0 16 12.5 28.5t28.5 12.5h188q16 0 28.5 -12.5t12.5 -28.5v-424q70 43 132 57q74 18 178 18q367 0 366 -452v-674q0 -18 -12 -30.5t-29 -12.5h-188q-14 0 -29 14q-12 12 -12 29v674q0 86 -14 139q-12 47 -49 65.5t-105 18.5q-104 0 -238 -70v-827 q0 -18 -12 -30.5t-29 -12.5h-188q-14 0 -29 14q-12 13 -12 29z" />
<glyph unicode="i" horiz-adv-x="548" d="M133 1350v180q0 14 14 29q12 12 29 12h199q16 0 28.5 -12.5t12.5 -28.5v-180q0 -16 -12.5 -28.5t-28.5 -12.5h-199q-16 0 -29 12q-14 15 -14 29zM139 43v1071q0 16 12.5 28.5t28.5 12.5h189q16 0 28.5 -12.5t12.5 -28.5v-1071q0 -16 -13 -29q-14 -14 -28 -14h-189 q-14 0 -28 14q-13 13 -13 29z" />
<glyph unicode="j" horiz-adv-x="548" d="M-68 -227q0 33 43 32h93q33 0 49 10.5t18 32.5q4 33 4 66v1200q0 16 12.5 28.5t28.5 12.5h189q16 0 28.5 -12.5t12.5 -28.5v-1200q0 -178 -76 -252q-74 -72 -228 -72q-65 0 -135 13q-39 6 -39 37v133zM135 1350v180q0 16 12.5 28.5t28.5 12.5h197q18 0 30.5 -12.5 t12.5 -28.5v-180q0 -16 -12.5 -28.5t-30.5 -12.5h-197q-16 0 -28.5 12.5t-12.5 28.5z" />
<glyph unicode="k" horiz-adv-x="1122" d="M133 43v1475q0 16 12.5 28.5t28.5 12.5h188q16 0 28.5 -12.5t12.5 -28.5v-854l351 466q18 25 47 25h229q31 0 31 -22q0 -10 -8 -21l-412 -506l416 -565q6 -8 6 -16q0 -12 -8 -19q-10 -6 -21 -6h-250q-14 0 -32 12q-16 10 -27 29l-322 467v-465q0 -18 -12 -30.5t-29 -12.5 h-188q-14 0 -29 14q-12 13 -12 29z" />
<glyph unicode="l" horiz-adv-x="555" d="M143 43v1475q0 16 12.5 28.5t28.5 12.5h191q16 0 28 -13q10 -10 11 -28v-1475q0 -20 -11 -31q-12 -12 -28 -12h-191q-14 0 -28 14q-13 13 -13 29z" />
<glyph unicode="m" horiz-adv-x="1736" d="M133 43v1071q0 16 12.5 28.5t28.5 12.5h178q20 0 30.5 -10t10.5 -31v-43q74 49 142 72q76 27 151 26q166 0 240 -92q66 37 108 53q51 20 105 29q66 10 125 10q195 0 268 -112q72 -111 72 -318v-696q0 -16 -13 -29q-14 -14 -28 -14h-189q-14 0 -28 14q-12 12 -13 29v696 q0 78 -12 121q-12 41 -45 62q-27 16 -90 16q-94 0 -191 -51q8 -59 9 -148v-696q0 -16 -13 -29q-14 -14 -28 -14h-189q-14 0 -29 14q-12 12 -12 29v696q0 80 -12 123t-41 60q-27 16 -88 16q-63 0 -189 -68v-827q0 -18 -12 -30.5t-29 -12.5h-188q-14 0 -29 14q-12 13 -12 29z " />
<glyph unicode="n" horiz-adv-x="1210" d="M133 43v1071q0 16 12.5 28.5t28.5 12.5h178q20 0 30.5 -10t10.5 -31v-43q86 53 160 78q63 20 172 20q205 0 279 -118q76 -123 75 -340v-668q0 -18 -12 -30.5t-29 -12.5h-188q-14 0 -29 14q-12 12 -12 29v668q0 104 -10 143q-12 43 -49 66q-35 20 -115 20q-90 0 -232 -74 v-823q0 -18 -12 -30.5t-29 -12.5h-188q-14 0 -29 14q-12 13 -12 29z" />
<glyph unicode="o" horiz-adv-x="1175" d="M98 494v165q0 145 55.5 262t168 182.5t266 65.5t266.5 -65.5t168 -182t55 -262.5v-165q0 -145 -55 -262t-168 -182.5t-266.5 -65.5t-266 65.5t-168 182.5t-55.5 262zM369 494q0 -125 57 -201t161.5 -76t162.5 74q57 72 57 203v165q0 127 -57 203q-55 74 -162 74t-162 -74 q-57 -76 -57 -203v-165z" />
<glyph unicode="p" horiz-adv-x="1181" d="M133 -365v1426q0 20 10 35q8 10 45 20q207 53 412 53q162 0 272 -61q109 -61 164 -176q53 -113 54 -277v-157q0 -164 -54 -277q-55 -115 -164 -176q-111 -61 -272 -61q-96 0 -197 14v-363q0 -16 -12 -28.5t-29 -12.5h-188q-16 0 -28.5 12.5t-12.5 28.5zM403 219 q94 -14 197 -14q125 0 172 77.5t47 215.5v157q0 139 -47 217q-45 76 -172 76q-47 0 -113 -4q-37 -2 -84 -10v-715z" />
<glyph unicode="q" horiz-adv-x="1181" d="M92 498v157q0 164 53 277q55 115 164 176q111 61 273 61q66 0 137 -6q47 -4 145 -20q82 -14 129 -27q37 -10 45 -20q10 -14 11 -35v-1426q0 -16 -12.5 -28.5t-28.5 -12.5h-189q-16 0 -28.5 12.5t-12.5 28.5v363q-100 -14 -196 -14q-238 0 -365 135q-125 133 -125 379z M362 498q0 -141 48 -215q49 -78 172 -78q102 0 196 14v715q-41 8 -84 10q-66 4 -112 4q-123 0 -172 -76q-47 -74 -48 -217v-157z" />
<glyph unicode="r" horiz-adv-x="768" d="M133 43v1071q0 16 12.5 28.5t28.5 12.5h178q20 0 30.5 -10t10.5 -31v-43q127 98 293 98q18 0 31 -12q10 -10 10 -29v-147q0 -16 -12.5 -28.5t-28.5 -12.5q-141 0 -283 -74v-823q0 -18 -12 -30.5t-29 -12.5h-188q-14 0 -29 14q-12 13 -12 29z" />
<glyph unicode="s" horiz-adv-x="999" d="M92 862q0 307 389 307q111 0 199 -10q74 -8 166 -31q37 -10 37 -47v-118q0 -39 -33 -39h-8q-175 25 -338 24q-74 0 -109 -18q-33 -18 -33 -68q0 -23 15 -37q10 -10 67 -47l269 -164q80 -47 125 -102q43 -53 57 -100q14 -49 14 -109q0 -90 -45 -161.5t-137 -114.5 t-219 -43q-55 0 -174 10q-106 8 -193 31q-39 8 -39 47v123q0 12 10.5 22t24.5 10h8q190 -23 344 -22q82 0 115 26q31 25 31 72q0 33 -21 53q-27 27 -69 52l-281 172q-78 47 -125 122.5t-47 159.5z" />
<glyph unicode="t" horiz-adv-x="827" d="M41 1022v92q0 16 12.5 28.5t28.5 12.5h192v168q0 35 41 41l191 33h8q33 0 33 -31v-211h184q20 0 30.5 -10t10.5 -31v-121q0 -16 -12 -28.5t-29 -12.5h-184v-643q0 -43 4 -76q2 -25 20 -30q20 -8 56 -8h108q43 0 43 -31v-129q0 -31 -39 -37q-6 -2 -29.5 -4t-39.5 -4 q-49 -6 -70 -6q-120 0 -190 24q-70 25 -103 94q-33 68 -33 207v643l-192 29q-41 6 -41 41z" />
<glyph unicode="u" horiz-adv-x="1210" d="M133 444v668q0 16 12 29q14 14 29 14h188q16 0 28.5 -12.5t12.5 -30.5v-668q0 -80 11 -127q10 -45 37 -69q41 -37 127 -37q45 0 106 22q49 18 125 60v819q0 16 12 29q14 14 29 14h188q16 0 28.5 -12.5t12.5 -30.5v-1071q0 -16 -12 -28.5t-29 -12.5h-188q-16 0 -28.5 12.5 t-12.5 28.5v47q-84 -55 -154 -78q-74 -25 -168 -24q-166 0 -251 86q-55 55 -80 149q-23 84 -23 223z" />
<glyph unicode="v" horiz-adv-x="1126" d="M49 1122q0 14 8 23q10 10 25 10h205q31 0 41 -41l196 -858q8 -51 39 -51t39 51l197 858q2 20 16 30.5t27 10.5h205q14 0 22 -8q10 -10 10 -25q0 -12 -2 -14l-258 -932q-53 -193 -256 -192q-201 0 -254 192l-258 932q-2 2 -2 14z" />
<glyph unicode="w" horiz-adv-x="1675" d="M51 1108v6q0 16 12.5 28.5t28.5 12.5h199q16 0 26 -10q6 -6 11 -27l129 -866q4 -29 10 -29q8 0 14 29l170 688q15 58 37 74q20 14 78 14h143q57 0 78 -14q22 -15 37 -74l170 -688q6 -29 14 -29q6 0 11 29l129 866q0 10 12 27q8 10 24 10h199q20 0 30.5 -10t10.5 -31v-6 l-186 -942q-12 -63 -31 -103q-16 -31 -55 -53q-31 -16 -97 -16h-55q-84 0 -129 39q-43 37 -65 121l-162 626q-2 10 -6 10.5t-7 -10.5l-161 -626q-23 -84 -66 -121q-45 -39 -129 -39h-55q-68 0 -98 16q-35 18 -52 53q-20 43 -32 103z" />
<glyph unicode="x" horiz-adv-x="1140" d="M35 23q0 9 6 18l367 555l-347 518l-4 12q0 12 8.5 20.5t24.5 8.5h234q20 0 28 -8q10 -10 25 -33l207 -319l192 319q20 31 27 35q8 6 28 6h211q25 0 25 -22q0 -9 -6 -19l-338 -516l373 -557q4 -12 4 -14q0 -10 -8.5 -18.5t-22.5 -8.5h-233q-16 0 -27 6q-4 2 -29 35 l-233 360l-221 -360q-14 -25 -27 -33q-10 -8 -29 -8h-211q-24 0 -24 23z" />
<glyph unicode="y" horiz-adv-x="1146" d="M49 1122q0 33 39 33h207q14 0 24 -10q12 -10 15 -27l207 -833q8 -45 28 -45h2h11h6l221 880q6 35 41 35h209q12 0 26 -10q10 -8 11 -25q0 -10 -2 -12l-342 -1196q-37 -125 -78 -186q-47 -70 -125 -103t-215 -33q-57 0 -115 9q-82 12 -102 18q-43 12 -43 35v131 q0 14 12 27q10 10 29 10h4q29 0 114.5 -6.5t116.5 -6.5q51 0 76 11q31 12 51 39q16 23 35 82l16 61h-30q-57 0 -102.5 33t-76.5 137l-268 938q-2 4 -2 14z" />
<glyph unicode="z" horiz-adv-x="1003" d="M82 82v88q0 31 27 66l495 682q6 9 6 12q0 6 -12 6h-463q-16 0 -26.5 8t-10.5 25v145q0 16 12.5 28.5t28.5 12.5h697q33 0 57.5 -24.5t24.5 -59.5v-117q0 -35 -11 -47l-477 -653l-4 -6q0 -8 12 -8h447q18 0 26 -9q10 -10 11 -24v-166q0 -16 -12.5 -28.5t-28.5 -12.5h-717 q-33 0 -57.5 24.5t-24.5 57.5z" />
<glyph unicode="{" horiz-adv-x="741" d="M76 477v164q63 43 92 96q27 51 27 133v310q0 138 30 209q31 74 109 102q80 31 233 31h117q16 0 27 -9q12 -10 12 -26v-150q0 -33 -39 -32h-96q-57 0 -78 -11q-25 -12 -33 -39q-8 -25 -8 -75v-310q0 -108 -37 -184q-35 -74 -123 -127q88 -53 123 -127q39 -82 39 -184v-311 q0 -51 8 -76t33 -37t78 -12h94q20 0 29 -9q10 -10 10 -24v-150q0 -18 -12 -26q-10 -8 -27 -9h-115q-113 0 -188 17q-68 14 -111 55q-41 39 -57 105q-16 70 -16 166v311q0 84 -29 133q-33 53 -92 96z" />
<glyph unicode="|" horiz-adv-x="559" d="M143 -356v1837q0 16 12.5 28.5t28.5 12.5h195q14 0 26.5 -12.5t12.5 -28.5v-1837q0 -16 -12.5 -28.5t-26.5 -12.5h-195q-16 0 -28.5 12.5t-12.5 28.5z" />
<glyph unicode="}" horiz-adv-x="741" d="M20 -221q0 16 10.5 24.5t28.5 8.5h95q53 0 77.5 12t32.5 36.5t8 76.5v311q0 111 37 184.5t125 126.5q-88 55 -123 127q-37 77 -37 184v310q0 51 -8 75q-8 27 -33 39q-20 10 -77 11h-97q-39 0 -39 32v150q0 18 10.5 26.5t28.5 8.5h117q154 0 233.5 -31t110.5 -102 q29 -66 29 -209v-310q0 -82 26 -133q29 -53 93 -96v-164q-61 -43 -93 -96q-29 -49 -28 -133v-311q0 -98 -17 -168q-14 -61 -55 -103q-39 -39 -113 -55q-76 -16 -188 -17h-115q-18 0 -28.5 8.5t-10.5 26.5v150z" />
<glyph unicode="~" d="M162 741v54q0 150 65 219q63 68 201 67q90 0 152 -43l180 -123q43 -27 82 -26q37 0 55 18q16 16 16 66v53q0 41 35 41h144q39 0 38 -41v-53q0 -150 -65 -219q-63 -66 -199 -66q-33 0 -80 10q-43 9 -73 31l-181 125q-35 27 -79 27q-74 0 -74 -86v-54q0 -41 -35 -41h-145 q-37 0 -37 41z" />
<glyph unicode="&#xa0;" />
<glyph unicode="&#xa1;" horiz-adv-x="522" d="M123 -371l31 1041q0 16 12 28.5t29 12.5h133q18 0 30.5 -12.5t12.5 -28.5l30 -1041q0 -14 -14 -28q-10 -10 -29 -11h-194q-16 0 -28.5 12.5t-12.5 26.5zM131 883v231q0 18 10 29q12 12 29 12h184q18 0 29 -12q10 -14 10 -29v-231q0 -18 -10 -28.5t-29 -10.5h-184 q-18 0 -28.5 10.5t-10.5 28.5z" />
<glyph unicode="&#xa2;" d="M238 481v191q0 121 38 225q37 100 107 160q74 63 162 90v180q0 16 12 28.5t29 12.5h168q16 0 28.5 -12.5t12.5 -28.5v-160q88 -2 174 -24q29 -6 35 -17q8 -10 8 -36v-134q0 -31 -37 -30h-6q-106 14 -264 14q-86 0 -141.5 -61.5t-55.5 -206.5v-191q0 -145 55 -206.5 t142 -61.5q72 0 153 4q41 2 111 10h6q14 0 26 -8q10 -6 11 -22v-134q0 -27 -8 -36q-6 -10 -35 -17q-86 -23 -174 -24v-164q0 -16 -12.5 -28.5t-28.5 -12.5h-168q-16 0 -28.5 12t-12.5 29v184q-88 27 -162 90q-70 59 -107 160q-38 104 -38 225z" />
<glyph unicode="&#xa3;" d="M141 702v154q0 14 12.5 26.5t28.5 12.5h101v197q0 106 24 180q25 76 82 127q58 52 154 80q92 27 237 26q57 0 176 -10q109 -10 158 -18q25 -3 31 -13t6 -26v-150q0 -37 -35 -37h-4q-4 0 -147.5 10.5t-184.5 10.5q-119 0 -168 -37q-51 -39 -51 -143v-197h379q14 0 29 -10 q12 -8 12 -29v-154q0 -37 -39 -36h-381v-256q0 -96 -49 -183h596q14 0 29 -10q12 -9 12 -24v-156q0 -16 -12 -27q-14 -10 -29 -10h-875q-37 0 -36 53v105q0 20 16 47q29 43 49 96q20 55 21 109v256h-103q-14 0 -28 10q-11 8 -11 26z" />
<glyph unicode="&#xa4;" d="M121 1145q0 14 10 24l98 99q14 10 21 10q12 0 33 -16l168 -168q89 55 196 55q98 0 189 -53l172 172q14 14 30 14q12 0 23 -10l98 -98q10 -14 10 -23q0 -16 -14 -31l-174 -172q53 -88 53 -186q0 -106 -55 -195l170 -172q14 -14 14 -30q0 -12 -10 -23l-96 -98 q-10 -10 -23 -11q-16 0 -30 15l-177 176q-82 -49 -180 -49q-104 0 -186 51l-174 -172q-23 -16 -33 -16q-6 0 -21 10l-96 98q-10 14 -10 25q0 16 14 30l172 170q-55 96 -55 191q0 98 49 180l-172 172q-14 15 -14 31zM459 766q0 -76 57 -133.5t133 -57.5q78 0 133.5 55.5 t55.5 135.5q0 51 -25 94q-25 41 -70 68q-43 25 -94 24.5t-94 -24.5q-45 -27 -70 -68q-26 -47 -26 -94z" />
<glyph unicode="&#xa5;" d="M59 1495q0 14 11 21q8 6 22 6h234q23 0 36 -33l283 -602l283 602q18 33 39 33h231q33 0 33 -27q0 -8 -6 -20l-234 -465h191q18 0 28 -11q12 -12 13 -26v-129q0 -18 -11 -27q-14 -10 -28 -10h-293l-103 -203v-24h394q18 0 28 -11q12 -12 13 -26v-129q0 -18 -11 -27 q-14 -10 -28 -10h-396v-336q0 -14 -10 -29q-8 -12 -28 -12h-211q-18 0 -27 12q-10 14 -10 29v336h-398q-39 0 -38 37v129q0 14 12 26q10 10 28 11h396v24l-103 203h-295q-39 0 -38 37v129q0 14 12 26q10 10 28 11h193l-233 465q-7 12 -7 20z" />
<glyph unicode="&#xa6;" horiz-adv-x="559" d="M143 317q0 16 12.5 28.5t28.5 12.5h195q18 0 29 -12q10 -14 10 -29v-706q0 -20 -10 -31q-12 -12 -29 -12h-195q-14 0 -28 14q-12 12 -13 29v706zM143 743v707q0 16 12.5 28.5t28.5 12.5h195q18 0 29 -12q10 -14 10 -29v-707q0 -20 -10 -30q-12 -12 -29 -13h-195 q-16 0 -28.5 12.5t-12.5 30.5z" />
<glyph unicode="&#xa7;" horiz-adv-x="1173" d="M90 737q0 133 57 211q-57 84 -57 215q0 120 49 203q47 80 162 127q109 45 299 45q96 0 225 -12q123 -12 179 -25q39 -10 38 -39v-162q0 -16 -10 -26t-28 -10h-3q-43 2 -118 8q-102 8 -156 10q-106 4 -123 4h-6q-115 0 -162 -33q-49 -34 -49 -104q0 -55 33 -90 q35 -39 131 -92l246 -138q108 -58 172 -122q63 -63 88 -134q27 -76 26 -153q0 -125 -53 -219q53 -84 53 -207q0 -119 -51 -215q-52 -98 -172 -159.5t-313 -61.5q-215 0 -377 39q-41 10 -41 38v160q0 16 12 27q14 10 29 10h4q126 -12 203 -18q78 -6 160 -7h14q86 0 137 23 q49 22 68 61q20 45 20 97q0 61 -33 100q-35 43 -133 98l-256 152q-154 90 -207 180q-57 96 -57 219zM315 729q0 -49 17 -80q23 -43 55.5 -67.5t122.5 -81.5l158 -94q98 -59 149 -107q25 46 25 123q0 57 -17 90q-20 41 -61 76q-39 33 -137 92l-162 96q-76 45 -111 76 q-39 -45 -39 -123z" />
<glyph unicode="&#xa8;" horiz-adv-x="849" d="M104 1350v180q0 16 12.5 28.5t30.5 12.5h148q16 0 29 -12q14 -14 14 -29v-180q0 -14 -14 -29q-12 -12 -29 -12h-148q-18 0 -30.5 12.5t-12.5 28.5zM514 1350v180q0 14 14 29q12 12 29 12h148q18 0 30.5 -12.5t12.5 -28.5v-180q0 -16 -12.5 -28.5t-30.5 -12.5h-148 q-16 0 -29 12q-14 15 -14 29z" />
<glyph unicode="&#xa9;" horiz-adv-x="1536" d="M92 766q0 133 53.5 262t143.5 219q92 92 217 145.5t260 53.5q137 0 262 -53q129 -55 217 -144q94 -94 146 -219q53 -129 53 -264q0 -133 -53 -262q-51 -123 -146 -217q-88 -88 -217 -144q-121 -51 -262 -51q-135 0 -260 53q-129 55 -217 143.5t-144 217.5 q-53 125 -53 260zM190 766q0 -156 76 -287t211 -209q133 -78 289 -77.5t289 77.5q135 78 211 209q78 133 77 287q0 156 -77 289q-76 131 -211 213q-129 78 -289 78t-289 -78q-135 -82 -211 -213t-76 -289zM438 711v123q0 195 88 289t246 94q104 0 176 -19q29 -6 29 -27v-100 q0 -25 -27 -24h-4q-123 10 -174 10q-156 0 -156 -223v-123q0 -223 156 -224q12 0 25.5 1t27.5 1q10 0 25.5 1.5t22 1.5t18.5 1t16 1q6 0 39 4h4q27 0 27 -25v-98q0 -23 -29 -29q-74 -18 -176 -18q-158 0 -246 94t-88 289z" />
<glyph unicode="&#xaa;" horiz-adv-x="684" d="M66 1036v15q0 72 36.5 114.5t104.5 61.5q76 20 170 20h53v27q0 61 -22.5 83.5t-73.5 22.5q-72 0 -191 -10h-2q-10 0 -18 8q-10 10 -10 21v78q0 25 28 30q98 25 193 25q137 0 205 -59q72 -61 71 -199v-391q0 -27 -18 -33q-111 -31 -238 -31q-147 0 -219 53q-69 51 -69 164 zM238 1036q0 -47 26 -67q25 -18 90 -19q16 0 29 2q25 4 27 4q4 0 10 1t10 1v183q-2 0 -7 1t-7 1h-25q-12 0 -14 -2q-78 0 -107 -21q-33 -23 -32 -69v-15z" />
<glyph unicode="&#xab;" horiz-adv-x="1409" d="M113 577.5q0 30.5 16 51.5l332 364q10 14 24 21q12 6 37 6h195q31 0 31 -23q0 -8 -7 -14l-370 -405l370 -406q6 -6 7 -14q0 -23 -31 -23h-195q-23 0 -35 6t-26 21l-332 364q-16 21 -16 51.5zM700 577.5q0 34.5 17 51.5l332 364q10 14 24 21q12 6 37 6h195q31 0 30 -23 q0 -8 -6 -14l-371 -405l371 -406q6 -6 6 -14q0 -23 -30 -23h-195q-23 0 -35 6t-26 21l-332 364q-17 17 -17 51.5z" />
<glyph unicode="&#xac;" d="M190 979v143q0 33 41 33h834q16 0 26.5 -10t10.5 -25v-704q0 -16 -12.5 -28.5t-28.5 -12.5h-127q-16 0 -28.5 12t-12.5 29v530h-662q-41 0 -41 33z" />
<glyph unicode="&#xad;" horiz-adv-x="655" d="M569 565q0 -16 -12 -26q-14 -10 -27 -11h-401q-18 0 -29 11q-12 12 -12 26v129q0 14 12.5 26.5t28.5 12.5h401q16 0 27 -10q12 -12 12 -29v-129z" />
<glyph unicode="&#xae;" horiz-adv-x="1224" d="M49 991q0 152 76 283t205 205q133 76 282.5 75.5t282.5 -75.5q129 -74 207 -205q76 -127 76 -282.5t-76 -282.5t-207 -205q-127 -76 -282.5 -76t-282.5 76q-129 76 -205 205q-76 126 -76 282zM145 991q0 -126 62 -233q63 -109 172 -172q108 -61 233 -62q126 0 234 62 q106 61 172 170q63 106 63 235t-63.5 235.5t-170 170t-235.5 63.5t-235 -63q-109 -66 -170 -172q-62 -108 -62 -234zM365 680v608q0 49 45 55q49 8 172 9q138 0 209 -49q70 -49 69 -166v-13q0 -133 -127 -180l148 -252q4 -12 4 -16q0 -23 -23 -23h-104q-14 0 -23 17 l-143 241q-6 10 -21 11h-41h-22v-242q0 -8 -6 -18q-6 -8 -19 -9h-94q-10 0 -16 9q-8 12 -8 18zM504 1032h47q6 0 20.5 -1t20.5 -1q68 0 100 23q31 20 31 71v13q0 51 -31 71q-29 20 -100 21h-64h-24v-197z" />
<glyph unicode="&#xaf;" horiz-adv-x="1069" d="M-63 1722q0 33 40 33h1117q41 0 41 -33v-80q0 -33 -41 -32h-1117q-41 0 -40 32v80z" />
<glyph unicode="&#xb0;" horiz-adv-x="722" d="M57 1233q0 86 41 153q43 72 113 111q72 41 151 41q61 0 119 -22q53 -20 98.5 -65.5t65.5 -98.5q23 -57 23 -119t-23 -119q-18 -47 -67 -96q-47 -47 -99 -68q-57 -23 -117 -22q-80 0 -151 41q-70 39 -113 110q-41 68 -41 154zM203 1233q0 -66 47 -113t112 -47q68 0 115 47 t47 113q0 33 -12 63q-10 27 -35 52q-23 23 -51.5 35t-63.5 12q-68 0 -112 -47q-47 -52 -47 -115z" />
<glyph unicode="&#xb1;" d="M170 2v115q0 15 12 24q10 8 29 9h870q18 0 29 -9q12 -9 12 -24v-115q0 -15 -12 -25q-10 -8 -29 -8h-870q-18 0 -29 8q-12 10 -12 25zM170 729v143q0 33 41 33h330v332q0 41 32 41h144q15 0 24 -12q8 -10 9 -29v-332h331q41 0 41 -33v-143q0 -15 -12 -24q-10 -8 -29 -9 h-331v-329q0 -18 -9 -29q-9 -12 -24 -12h-144q-33 0 -32 41v329h-330q-18 0 -29 9q-12 9 -12 24z" />
<glyph unicode="&#xb2;" horiz-adv-x="706" d="M80 711v94q0 115 45 190q47 78 145 144l113 75q43 31 53 48q12 20 13 53q0 39 -29 55t-109 16q-90 0 -190 -14h-4q-25 0 -25 25v84q0 18 27 24q41 14 96 23q66 10 121 10q150 0 221.5 -53t71.5 -170q0 -63 -31 -113q-29 -45 -106 -100l-101 -68q-86 -59 -112 -96 q-27 -39 -27 -92v-4h340q12 0 20.5 -8.5t8.5 -16.5v-108q0 -12 -9 -19q-10 -6 -20 -6h-483q-12 0 -20.5 8.5t-8.5 18.5z" />
<glyph unicode="&#xb3;" horiz-adv-x="706" d="M82 741v82q0 25 22 25h5q106 -10 139 -10q104 0 151 18t47 74v20q0 39 -22 72q-23 31 -76 31h-201q-27 0 -26 26v88q0 27 26 27h193q57 0 82 27q25 28 24 67v10q0 55 -40 70q-45 16 -121 16h-41q-25 0 -74 -6t-57 -6h-4q-23 0 -23 25v84q0 18 25 26q92 31 208 31 q305 0 306 -217v-14q0 -119 -99 -183q96 -57 97 -174v-20q0 -115 -80 -180q-82 -66 -224 -66q-57 0 -112 8t-105 25q-20 8 -20 24z" />
<glyph unicode="&#xb4;" horiz-adv-x="849" d="M291 1298q0 12 8 21l195 246q15 18 24 24q10 6 29 6h215q23 0 22 -14q0 -8 -8 -16l-241 -254q-10 -12 -23 -21q-8 -6 -27 -6h-176q-18 0 -18 14z" />
<glyph unicode="&#xb5;" horiz-adv-x="1200" d="M123 -352v1464q0 16 12 29q14 14 29 14h190q16 0 28.5 -12.5t12.5 -30.5v-709q0 -197 213 -196q111 0 197 22v883q0 16 12 29q14 14 29 14h190q18 0 30.5 -12.5t12.5 -30.5v-1026q0 -41 -55 -53q-184 -49 -416 -49q-133 0 -211 63v-399q0 -16 -10 -31q-8 -10 -27 -10 h-198q-14 0 -26.5 12.5t-12.5 28.5z" />
<glyph unicode="&#xb6;" horiz-adv-x="1318" d="M92 969v96q0 145 64 248q63 104 176 155q117 53 254 54h577q33 0 33 -39v-1843q0 -12 -10 -27q-9 -12 -25 -12h-71q-15 0 -25 12q-10 14 -10 27v1744h-125v-1744q0 -12 -10 -27q-9 -12 -25 -12h-72q-15 0 -24 12q-10 14 -11 27v872h-202q-137 0 -254 53q-111 51 -176 158 q-64 103 -64 246z" />
<glyph unicode="&#xb7;" horiz-adv-x="528" d="M397 674q0 -16 -12 -28.5t-29 -12.5h-182q-16 0 -28.5 12t-12.5 29v231q0 14 12.5 26.5t28.5 12.5h182q14 0 29 -10q12 -8 12 -29v-231z" />
<glyph unicode="&#xb8;" horiz-adv-x="823" d="M113 -367q0 12 8 21l192 246q14 16 27 24q8 6 27 6h217q23 0 22 -14q0 -8 -8 -16l-244 -252q-16 -20 -26 -25q-8 -4 -21 -4h-176q-18 0 -18 14z" />
<glyph unicode="&#xb9;" horiz-adv-x="608" d="M82 1294v125q0 14 16 21l170 73q10 8 23 9h112q23 0 23 -21v-794q0 -23 -20 -23h-142q-20 0 -20 23v636l-138 -57q-4 -1 -9 -3q-4 -1 -5 -1q-10 0 -10 12z" />
<glyph unicode="&#xba;" horiz-adv-x="729" d="M68 1141v69q0 156 77 240q76 82 222 82q147 0 223 -82t76 -240v-69q0 -158 -76 -240t-223 -82q-145 0 -222 82q-77 84 -77 240zM248 1141q0 -88 28.5 -129t90.5 -41q59 0 87.5 41t28.5 129v69q0 88 -28 129q-27 39 -88 39q-63 0 -91 -39q-29 -41 -28 -129v-69z" />
<glyph unicode="&#xbb;" horiz-adv-x="1409" d="M106 158q0 8 7 14l370 406l-370 405q-6 6 -7 14q0 23 31 23h195q23 0 35 -6t26 -21l332 -364q16 -20 16 -51t-16 -52l-332 -364q-14 -14 -26 -23q-6 -4 -35 -4h-195q-31 0 -31 23zM694 158q0 8 6 14l371 406l-371 405q-6 6 -6 14q0 23 31 23h195q25 0 36 -6q14 -6 25 -21 l332 -364q16 -20 16 -51t-16 -52l-332 -364q-8 -8 -27 -21q-8 -6 -34 -6h-195q-31 0 -31 23z" />
<glyph unicode="&#xbc;" horiz-adv-x="1572" d="M82 1294v125q0 14 16 21l170 73q10 8 23 9h112q23 0 23 -21v-794q0 -23 -20 -23h-142q-20 0 -20 23v636l-138 -57q-4 -1 -9 -3q-4 -1 -5 -1q-10 0 -10 12zM182 12q0 14 8 25l859 1450q10 18 20 29q6 6 25 6h172q20 0 20 -17q0 -14 -8 -24l-858 -1452q-14 -25 -21 -29 q-10 -6 -22 -6h-174q-21 0 -21 18zM874 211v104q0 27 13 45l344 469q9 12 24 13h95q14 0 30 -13q14 -12 15 -32v-461h67q12 0 20.5 -6t8.5 -19v-92q0 -10 -8 -18t-21 -8h-67v-164q0 -12 -8.5 -20.5t-18.5 -8.5h-129q-8 0 -16.5 8t-8.5 21v164h-317q-8 0 -16 4q-7 4 -7 14z M1030 348q0 -12 14 -12h177v268q0 6 -2 6q-3 0 -7 -6l-174 -237q-8 -9 -8 -19z" />
<glyph unicode="&#xbd;" horiz-adv-x="1628" d="M82 1294v125q0 14 16 21l170 73q10 8 23 9h112q23 0 23 -21v-794q0 -23 -20 -23h-142q-20 0 -20 23v636l-138 -57q-4 -1 -9 -3q-4 -1 -5 -1q-10 0 -10 12zM182 12q0 14 8 25l859 1450q10 18 20 29q6 6 25 6h172q20 0 20 -17q0 -14 -8 -24l-858 -1452q-14 -25 -21 -29 q-10 -6 -22 -6h-174q-21 0 -21 18zM999 27v94q0 113 45 184q47 76 146 141l113 76q41 29 53 47.5t12 53.5q0 39 -28.5 55t-108.5 16q-90 0 -191 -14h-4q-25 0 -24 25v83q0 18 26 25q104 33 217 33q150 0 221.5 -53.5t71.5 -169.5q0 -59 -32 -113q-29 -47 -105 -100l-100 -68 q-80 -53 -113 -94q-27 -33 -27 -86v-4h340q12 0 20.5 -6.5t8.5 -18.5v-108q0 -12 -8 -18.5t-21 -6.5h-483q-12 0 -20.5 8.5t-8.5 18.5z" />
<glyph unicode="&#xbe;" horiz-adv-x="1751" d="M82 741v82q0 25 22 25h5q106 -10 139 -10q104 0 151 18t47 74v20q0 39 -22 72q-23 31 -76 31h-201q-27 0 -26 26v88q0 27 26 27h193q57 0 82 27q25 28 24 67v10q0 55 -40 70q-45 16 -121 16h-41q-25 0 -74 -6t-57 -6h-4q-23 0 -23 25v84q0 18 25 26q92 31 208 31 q305 0 306 -217v-14q0 -119 -99 -183q96 -57 97 -174v-20q0 -115 -80 -180q-82 -66 -224 -66q-57 0 -112 8t-105 25q-20 8 -20 24zM322 12q0 14 8 25l858 1450q10 18 20 29q6 6 25 6h172q20 0 20 -17q0 -14 -8 -24l-858 -1452q-10 -18 -20 -29q-6 -6 -23 -6h-174 q-20 0 -20 18zM1014 211v104q0 27 12 45l344 469q9 12 25 13h94q14 0 31 -13q14 -12 14 -32v-461h68q12 0 20 -6t8 -19v-92q0 -10 -8 -18t-20 -8h-68v-164q0 -12 -8 -20.5t-19 -8.5h-129q-10 0 -16 8q-8 12 -8 21v164h-318q-8 0 -16 4q-6 4 -6 14zM1169 348q0 -4 4.5 -8 t10.5 -4h176v268q0 6 -2 6q-3 0 -6 -6l-174 -237q-9 -11 -9 -19z" />
<glyph unicode="&#xbf;" horiz-adv-x="894" d="M61 -37q0 70 25 137q25 66 121 179l125 147q53 61 73.5 96t20.5 72v78q0 14 12.5 26.5t28.5 12.5h170q18 0 28.5 -10.5t10.5 -28.5v-78q0 -98 -24.5 -155.5t-96.5 -145.5l-131 -152q-35 -41 -47 -84t-12 -94v-33q0 -45 26 -59q29 -16 92 -16q76 0 160 8q143 14 148 14h8 q35 0 35 -45v-127q0 -27 -6.5 -39t-30.5 -18q-138 -37 -314 -37q-207 0 -315 72q-106 70 -107 247v33zM418 885v231q0 14 12 26.5t29 12.5h184q14 0 29 -10q12 -10 12 -29v-231q0 -16 -12.5 -28.5t-28.5 -12.5h-184q-16 0 -28.5 12.5t-12.5 28.5z" />
<glyph unicode="&#xc0;" horiz-adv-x="1320" d="M39 35q0 2 1 2t1 2v6l336 1284q55 209 284.5 209t284.5 -209l336 -1284l1 -2l1 -2v-6q0 -14 -10 -24.5t-27 -10.5h-217q-10 0 -24 10q-10 8 -15 25l-94 389h-471l-94 -389q-4 -16 -15 -25q-14 -10 -24 -10h-217q-16 0 -26.5 10.5t-10.5 24.5zM481 657h361l-148 609 q-6 20 -12 26t-20.5 6t-20.5 -6t-12 -26zM396 1923q0 14 22 14h217q18 0 29 -6q9 -6 24 -24l193 -246q8 -8 8 -21q0 -14 -18 -14h-176q-16 0 -20.5 2t-27.5 25l-243 254q-8 8 -8 16z" />
<glyph unicode="&#xc1;" horiz-adv-x="1320" d="M39 35q0 2 1 2t1 2v6l336 1284q55 209 284.5 209t284.5 -209l336 -1284l1 -2l1 -2v-6q0 -14 -10 -24.5t-27 -10.5h-217q-10 0 -24 10q-10 8 -15 25l-94 389h-471l-94 -389q-4 -16 -15 -25q-14 -10 -24 -10h-217q-16 0 -26.5 10.5t-10.5 24.5zM481 657h361l-148 609 q-6 20 -12 26t-20.5 6t-20.5 -6t-12 -26zM512 1640q0 12 8 21l195 246q15 18 24 24q10 6 29 6h215q23 0 22 -14q0 -8 -8 -16l-241 -254q-10 -12 -23 -21q-8 -6 -27 -6h-176q-18 0 -18 14z" />
<glyph unicode="&#xc2;" horiz-adv-x="1320" d="M39 35q0 2 1 2t1 2v6l336 1284q55 209 284.5 209t284.5 -209l336 -1284l1 -2l1 -2v-6q0 -14 -10 -24.5t-27 -10.5h-217q-10 0 -24 10q-10 8 -15 25l-94 389h-471l-94 -389q-4 -16 -15 -25q-14 -10 -24 -10h-217q-16 0 -26.5 10.5t-10.5 24.5zM481 657h361l-148 609 q-6 20 -12 26t-20.5 6t-20.5 -6t-12 -26zM279 1640q0 12 8 21l189 246q15 18 24 24q10 6 29 6h266q18 0 29 -6q9 -6 24 -24l187 -246q8 -8 8 -21q0 -14 -19 -14h-170q-14 0 -18 2q-8 4 -14 10l-15 15l-145 166l-145 -166q-10 -12 -23 -21q-8 -6 -27 -6h-170q-18 0 -18 14z " />
<glyph unicode="&#xc3;" horiz-adv-x="1320" d="M39 35q0 2 1 2t1 2v6l336 1284q55 209 284.5 209t284.5 -209l336 -1284l1 -2l1 -2v-6q0 -14 -10 -24.5t-27 -10.5h-217q-10 0 -24 10q-10 8 -15 25l-94 389h-471l-94 -389q-4 -16 -15 -25q-14 -10 -24 -10h-217q-16 0 -26.5 10.5t-10.5 24.5zM481 657h361l-148 609 q-6 20 -12 26t-20.5 6t-20.5 -6t-12 -26zM310 1659v43q0 229 229 230q82 0 141 -46l90 -67q53 -41 86 -41q57 0 58 68v43q0 33 28 32h117q29 0 29 -32v-46q0 -229 -228 -229q-37 0 -73 12q-39 12 -70 35l-90 68q-58 43 -86 43q-57 0 -57 -70v-43q0 -33 -29 -33h-117 q-28 0 -28 33z" />
<glyph unicode="&#xc4;" horiz-adv-x="1320" d="M39 35q0 2 1 2t1 2v6l336 1284q55 209 284.5 209t284.5 -209l336 -1284l1 -2l1 -2v-6q0 -14 -10 -24.5t-27 -10.5h-217q-10 0 -24 10q-10 8 -15 25l-94 389h-471l-94 -389q-4 -16 -15 -25q-14 -10 -24 -10h-217q-16 0 -26.5 10.5t-10.5 24.5zM481 657h361l-148 609 q-6 20 -12 26t-20.5 6t-20.5 -6t-12 -26zM337 1688v180q0 16 12.5 28.5t30.5 12.5h148q16 0 29 -12q14 -14 14 -29v-180q0 -14 -14 -29q-12 -12 -29 -12h-148q-18 0 -30.5 12.5t-12.5 28.5zM747 1688v180q0 14 14 29q12 12 29 12h148q18 0 30.5 -12.5t12.5 -28.5v-180 q0 -16 -12.5 -28.5t-30.5 -12.5h-148q-16 0 -29 12q-14 15 -14 29z" />
<glyph unicode="&#xc5;" horiz-adv-x="1320" d="M39 35q0 2 1 2t1 2v6l336 1284q55 209 284.5 209t284.5 -209l336 -1284l1 -2l1 -2v-6q0 -14 -10 -24.5t-27 -10.5h-217q-10 0 -24 10q-10 8 -15 25l-94 389h-471l-94 -389q-4 -16 -15 -25q-14 -10 -24 -10h-217q-16 0 -26.5 10.5t-10.5 24.5zM481 657h361l-148 609 q-6 20 -12 26t-20.5 6t-20.5 -6t-12 -26zM884 1821q0 -61 -30.5 -112.5t-82 -82t-112.5 -30.5t-113 30q-55 33 -84 82q-31 51 -30 113q0 90 65 160q63 68 162 67q95 0 160 -67q65 -70 65 -160zM757 1823q0 40 -30 68q-33 29 -68 28q-37 0 -65.5 -28.5t-28.5 -67.5 q0 -43 26 -70q29 -29 68 -28q41 0 69.5 28.5t28.5 69.5z" />
<glyph unicode="&#xc6;" horiz-adv-x="1800" d="M39 35q0 2 1 2t1 2v6l336 1284q20 88 69 131q47 41 101 51q57 10 115 11h976q41 0 41 -43v-144q0 -16 -12 -28.5t-29 -12.5h-518v-397h494q16 0 28.5 -12.5t12.5 -28.5v-147q0 -16 -12.5 -28.5t-28.5 -12.5h-494v-265q0 -100 35 -137q37 -39 127 -39h356q16 0 28.5 -12 t12.5 -29v-131q0 -20 -10 -30q-9 -9 -31 -13q-74 -16 -129 -22q-59 -6 -198 -6q-141 0 -250 34q-100 33 -164 127q-59 88 -59 258v21h-412l-94 -389q-4 -16 -15 -25q-14 -10 -24 -10h-217q-16 0 -26.5 10.5t-10.5 24.5zM481 657h357v641h-176q-14 0 -20.5 -6t-12.5 -26z" />
<glyph unicode="&#xc7;" horiz-adv-x="1150" d="M113 610v301q0 178 53 308q51 125 137 194q82 68 186 96q102 29 203 29q66 0 139 -6q84 -6 123 -14q49 -9 62 -13q45 -14 45 -47v-137q0 -43 -39 -43h-6q-203 16 -320 16q-139 0 -219 -88q-78 -86 -78 -295v-301q0 -383 297 -383q139 0 320 17h6q39 0 39 -43v-138 q0 -33 -45 -47q-23 -6 -129 -20q-92 -12 -195 -12q-96 0 -200 28q-96 27 -187 101q-88 72 -139 192q-53 125 -53 305zM365 -367q0 10 8 21l192 246q25 31 53 30h218q25 0 24 -14q0 -6 -10 -16l-244 -252q-6 -6 -12 -15q-8 -8 -14 -10q-12 -4 -21 -4h-176q-18 0 -18 14z" />
<glyph unicode="&#xc8;" horiz-adv-x="1179" d="M154 403v715q0 168 59 258q63 94 164 127q109 35 250 35q137 0 239 -8q84 -6 150 -21q23 -2 33 -12q8 -8 8 -31v-131q0 -16 -12.5 -28.5t-28.5 -12.5h-418q-88 0 -127 -39q-35 -35 -35 -137v-221h555q20 0 30.5 -10t10.5 -31v-147q0 -16 -12 -28.5t-29 -12.5h-555v-265 q0 -100 35 -137q37 -39 127 -39h418q16 0 28.5 -12t12.5 -29v-131q0 -37 -41 -43q-39 -4 -58 -8q-12 -2 -96 -10q-8 0 -104 -8q-27 -2 -131 -2q-141 0 -250 34q-100 33 -164 127q-59 88 -59 258zM332 1923q0 14 22 14h217q18 0 29 -6q9 -6 24 -24l193 -246q8 -8 8 -21 q0 -14 -18 -14h-176q-16 0 -20.5 2t-27.5 25l-243 254q-8 8 -8 16z" />
<glyph unicode="&#xc9;" horiz-adv-x="1179" d="M154 403v715q0 168 59 258q63 94 164 127q109 35 250 35q137 0 239 -8q84 -6 150 -21q23 -2 33 -12q8 -8 8 -31v-131q0 -16 -12.5 -28.5t-28.5 -12.5h-418q-88 0 -127 -39q-35 -35 -35 -137v-221h555q20 0 30.5 -10t10.5 -31v-147q0 -16 -12 -28.5t-29 -12.5h-555v-265 q0 -100 35 -137q37 -39 127 -39h418q16 0 28.5 -12t12.5 -29v-131q0 -37 -41 -43q-39 -4 -58 -8q-12 -2 -96 -10q-8 0 -104 -8q-27 -2 -131 -2q-141 0 -250 34q-100 33 -164 127q-59 88 -59 258zM436 1640q0 12 8 21l195 246q15 18 24 24q10 6 29 6h215q23 0 22 -14 q0 -8 -8 -16l-241 -254q-10 -12 -23 -21q-8 -6 -27 -6h-176q-18 0 -18 14z" />
<glyph unicode="&#xca;" horiz-adv-x="1179" d="M154 403v715q0 168 59 258q63 94 164 127q109 35 250 35q137 0 239 -8q84 -6 150 -21q23 -2 33 -12q8 -8 8 -31v-131q0 -16 -12.5 -28.5t-28.5 -12.5h-418q-88 0 -127 -39q-35 -35 -35 -137v-221h555q20 0 30.5 -10t10.5 -31v-147q0 -16 -12 -28.5t-29 -12.5h-555v-265 q0 -100 35 -137q37 -39 127 -39h418q16 0 28.5 -12t12.5 -29v-131q0 -37 -41 -43q-39 -4 -58 -8q-12 -2 -96 -10q-8 0 -104 -8q-27 -2 -131 -2q-141 0 -250 34q-100 33 -164 127q-59 88 -59 258zM227 1642q0 12 8 21l189 246q15 18 24 24q10 6 29 6h266q18 0 29 -6 q9 -6 24 -24l187 -246q8 -8 8 -21q0 -14 -19 -14h-170q-14 0 -18 2q-8 4 -14 10l-15 15l-145 166l-145 -166q-10 -12 -23 -21q-8 -6 -27 -6h-170q-18 0 -18 14z" />
<glyph unicode="&#xcb;" horiz-adv-x="1179" d="M154 403v715q0 168 59 258q63 94 164 127q109 35 250 35q137 0 239 -8q84 -6 150 -21q23 -2 33 -12q8 -8 8 -31v-131q0 -16 -12.5 -28.5t-28.5 -12.5h-418q-88 0 -127 -39q-35 -35 -35 -137v-221h555q20 0 30.5 -10t10.5 -31v-147q0 -16 -12 -28.5t-29 -12.5h-555v-265 q0 -100 35 -137q37 -39 127 -39h418q16 0 28.5 -12t12.5 -29v-131q0 -37 -41 -43q-39 -4 -58 -8q-12 -2 -96 -10q-8 0 -104 -8q-27 -2 -131 -2q-141 0 -250 34q-100 33 -164 127q-59 88 -59 258zM274 1688v180q0 16 12.5 28.5t30.5 12.5h148q16 0 29 -12q14 -14 14 -29v-180 q0 -14 -14 -29q-12 -12 -29 -12h-148q-18 0 -30.5 12.5t-12.5 28.5zM684 1688v180q0 14 14 29q12 12 29 12h148q18 0 30.5 -12.5t12.5 -28.5v-180q0 -16 -12.5 -28.5t-30.5 -12.5h-148q-16 0 -29 12q-14 15 -14 29z" />
<glyph unicode="&#xcc;" horiz-adv-x="591" d="M154 41v1442q0 16 12 28q10 10 29 11h202q14 0 29 -11q12 -8 12 -28v-1442q0 -16 -12 -28.5t-29 -12.5h-202q-16 0 -28.5 12.5t-12.5 28.5zM-20 1923q0 14 22 14h217q18 0 29 -6q9 -6 24 -24l193 -246q8 -8 8 -21q0 -14 -18 -14h-176q-16 0 -20.5 2t-27.5 25l-243 254 q-8 8 -8 16z" />
<glyph unicode="&#xcd;" horiz-adv-x="591" d="M154 41v1442q0 16 12 28q10 10 29 11h202q14 0 29 -11q12 -8 12 -28v-1442q0 -16 -12 -28.5t-29 -12.5h-202q-16 0 -28.5 12.5t-12.5 28.5zM127 1640q0 12 8 21l195 246q15 18 24 24q10 6 29 6h215q23 0 22 -14q0 -8 -8 -16l-241 -254q-10 -12 -23 -21q-8 -6 -27 -6h-176 q-18 0 -18 14z" />
<glyph unicode="&#xce;" horiz-adv-x="591" d="M154 41v1442q0 16 12 28q10 10 29 11h202q14 0 29 -11q12 -8 12 -28v-1442q0 -16 -12 -28.5t-29 -12.5h-202q-16 0 -28.5 12.5t-12.5 28.5zM-84 1640q0 12 8 21l189 246q15 18 24 24q10 6 29 6h266q18 0 29 -6q9 -6 24 -24l187 -246q8 -8 8 -21q0 -14 -19 -14h-170 q-14 0 -18 2q-8 4 -14 10l-15 15l-145 166l-145 -166q-10 -12 -23 -21q-8 -6 -27 -6h-170q-18 0 -18 14z" />
<glyph unicode="&#xcf;" horiz-adv-x="591" d="M154 41v1442q0 16 12 28q10 10 29 11h202q14 0 29 -11q12 -8 12 -28v-1442q0 -16 -12 -28.5t-29 -12.5h-202q-16 0 -28.5 12.5t-12.5 28.5zM-27 1688v180q0 16 12.5 28.5t30.5 12.5h148q16 0 29 -12q14 -14 14 -29v-180q0 -14 -14 -29q-12 -12 -29 -12h-148 q-18 0 -30.5 12.5t-12.5 28.5zM383 1688v180q0 14 14 29q12 12 29 12h148q18 0 30.5 -12.5t12.5 -28.5v-180q0 -16 -12.5 -28.5t-30.5 -12.5h-148q-16 0 -29 12q-14 15 -14 29z" />
<glyph unicode="&#xd0;" horiz-adv-x="1363" d="M-4 707v153q0 16 10 26.5t29 10.5h119v553q0 53 53 63q10 2 98 11q80 8 162 10q127 4 143 4q201 0 348 -72q141 -70 220 -213q76 -139 75 -342v-301q0 -203 -75 -342q-78 -143 -220 -213q-147 -72 -348 -71q-16 0 -147 4q-84 2 -160 10q-86 8 -96 10q-53 10 -53 64v596 h-119q-16 0 -29 12q-10 11 -10 27zM438 229q16 0 46 -1t44 -3q27 -2 82 -2q106 0 189 35q80 33 125 119q47 88 47 233v301q0 147 -45 232q-47 88 -125 121q-82 35 -191 34h-63q-4 0 -19.5 -1t-27.5 -1q-25 0 -62 -4v-395h146q39 0 39 -37v-153q0 -14 -12.5 -26.5 t-26.5 -12.5h-146v-439z" />
<glyph unicode="&#xd1;" horiz-adv-x="1456" d="M154 41v1399q0 33 24.5 57.5t57.5 24.5h221q37 0 53 -15q18 -16 37 -51l477 -1053q6 -16 16.5 -16t10.5 19v1077q0 16 12 28q10 10 27 11h176q18 0 28.5 -10.5t10.5 -28.5v-1401q0 -33 -25 -57.5t-57 -24.5h-207q-49 0 -76 12q-28 12 -49 62l-455 997q-10 16 -18 16 q-10 0 -10 -16v-1030q0 -18 -11 -29q-12 -12 -28 -12h-174q-16 0 -28.5 12.5t-12.5 28.5zM326 1659v43q0 229 229 230q82 0 141 -46l90 -67q53 -41 86 -41q57 0 58 68v43q0 33 28 32h117q29 0 29 -32v-46q0 -229 -228 -229q-37 0 -73 12q-39 12 -70 35l-90 68q-58 43 -86 43 q-57 0 -57 -70v-43q0 -33 -29 -33h-117q-28 0 -28 33z" />
<glyph unicode="&#xd2;" horiz-adv-x="1392" d="M113 623v276q0 215 73 361q74 143 205 210q133 68 305 68t303 -68q135 -70 207 -210q74 -145 74 -361v-276q0 -217 -74 -361q-72 -141 -207 -211q-131 -68 -303 -67.5t-305 67.5q-131 68 -204.5 211.5t-73.5 360.5zM399 623q0 -205 72 -297q74 -94 225 -95q150 0 224 95 q74 96 73 297v276q0 203 -73.5 297t-223.5 94q-152 0 -225 -94q-72 -92 -72 -297v-276zM379 1923q0 14 22 14h217q18 0 29 -6q9 -6 24 -24l193 -246q8 -8 8 -21q0 -14 -18 -14h-176q-16 0 -20.5 2t-27.5 25l-243 254q-8 8 -8 16z" />
<glyph unicode="&#xd3;" horiz-adv-x="1392" d="M113 623v276q0 215 73 361q74 143 205 210q133 68 305 68t303 -68q135 -70 207 -210q74 -145 74 -361v-276q0 -217 -74 -361q-72 -141 -207 -211q-131 -68 -303 -67.5t-305 67.5q-131 68 -204.5 211.5t-73.5 360.5zM399 623q0 -205 72 -297q74 -94 225 -95q150 0 224 95 q74 96 73 297v276q0 203 -73.5 297t-223.5 94q-152 0 -225 -94q-72 -92 -72 -297v-276zM506 1640q0 12 8 21l195 246q15 18 24 24q10 6 29 6h215q23 0 22 -14q0 -8 -8 -16l-241 -254q-10 -12 -23 -21q-8 -6 -27 -6h-176q-18 0 -18 14z" />
<glyph unicode="&#xd4;" horiz-adv-x="1392" d="M113 623v276q0 215 73 361q74 143 205 210q133 68 305 68t303 -68q135 -70 207 -210q74 -145 74 -361v-276q0 -217 -74 -361q-72 -141 -207 -211q-131 -68 -303 -67.5t-305 67.5q-131 68 -204.5 211.5t-73.5 360.5zM399 623q0 -205 72 -297q74 -94 225 -95q150 0 224 95 q74 96 73 297v276q0 203 -73.5 297t-223.5 94q-152 0 -225 -94q-72 -92 -72 -297v-276zM309 1642q0 12 8 21l189 246q15 18 24 24q10 6 29 6h266q18 0 29 -6q9 -6 24 -24l187 -246q8 -8 8 -21q0 -14 -19 -14h-170q-14 0 -18 2q-8 4 -14 10l-15 15l-145 166l-145 -166 q-10 -12 -23 -21q-8 -6 -27 -6h-170q-18 0 -18 14z" />
<glyph unicode="&#xd5;" horiz-adv-x="1392" d="M113 623v276q0 215 73 361q74 143 205 210q133 68 305 68t303 -68q135 -70 207 -210q74 -145 74 -361v-276q0 -217 -74 -361q-72 -141 -207 -211q-131 -68 -303 -67.5t-305 67.5q-131 68 -204.5 211.5t-73.5 360.5zM399 623q0 -205 72 -297q74 -94 225 -95q150 0 224 95 q74 96 73 297v276q0 203 -73.5 297t-223.5 94q-152 0 -225 -94q-72 -92 -72 -297v-276zM318 1661v43q0 229 229 230q82 0 141 -46l90 -67q53 -41 86 -41q57 0 58 68v43q0 33 28 32h117q29 0 29 -32v-46q0 -229 -228 -229q-37 0 -73 12q-39 12 -70 35l-90 68q-58 43 -86 43 q-57 0 -57 -70v-43q0 -33 -29 -33h-117q-28 0 -28 33z" />
<glyph unicode="&#xd6;" horiz-adv-x="1392" d="M113 623v276q0 215 73 361q74 143 205 210q133 68 305 68t303 -68q135 -70 207 -210q74 -145 74 -361v-276q0 -217 -74 -361q-72 -141 -207 -211q-131 -68 -303 -67.5t-305 67.5q-131 68 -204.5 211.5t-73.5 360.5zM399 623q0 -205 72 -297q74 -94 225 -95q150 0 224 95 q74 96 73 297v276q0 203 -73.5 297t-223.5 94q-152 0 -225 -94q-72 -92 -72 -297v-276zM362 1688v180q0 16 12.5 28.5t30.5 12.5h148q16 0 29 -12q14 -14 14 -29v-180q0 -14 -14 -29q-12 -12 -29 -12h-148q-18 0 -30.5 12.5t-12.5 28.5zM772 1688v180q0 14 14 29 q12 12 29 12h148q18 0 30.5 -12.5t12.5 -28.5v-180q0 -16 -12.5 -28.5t-30.5 -12.5h-148q-16 0 -29 12q-14 15 -14 29z" />
<glyph unicode="&#xd7;" d="M225 1087q0 12 11 21l100 100q10 10 20 11q16 0 33 -17l256 -256l256 256q16 16 33 17q10 0 20 -11l101 -100q10 -10 10 -21q0 -16 -16 -32l-256 -256l256 -254q14 -14 14 -31q0 -12 -10 -22l-101 -101q-10 -10 -20 -10q-14 0 -31 16l-256 254l-254 -254q-16 -16 -33 -16 q-10 0 -20 10l-100 101q-10 8 -11 20q0 18 17 33l254 254l-256 256q-17 14 -17 32z" />
<glyph unicode="&#xd8;" horiz-adv-x="1392" d="M51 6q0 6 6 17l148 204q-92 150 -92 396v276q0 215 73 361q74 143 205 210q133 68 305 68q229 0 373 -111l59 84q14 20 39 21h154q23 0 22 -23q0 -6 -6 -16l-147 -205q90 -156 90 -389v-276q0 -217 -74 -361q-72 -141 -207 -211q-131 -68 -303 -67q-115 0 -202 26 q-94 29 -164 80l-60 -82q-18 -25 -41 -24h-155q-23 -1 -23 22zM399 623q0 -66 7 -115l503 700q-70 82 -213 82q-152 0 -225 -94q-72 -92 -72 -297v-276zM487 309q74 -78 209 -78q150 0 224 95q74 96 73 297v276q0 57 -6 107z" />
<glyph unicode="&#xd9;" horiz-adv-x="1411" d="M143 563v920q0 16 13 28q10 10 28 11h203q14 0 29 -11q12 -8 12 -28v-920q0 -123 25 -196q25 -76 84 -111q61 -37 169.5 -37t170.5 37q59 35 84 111q25 74 24 196v920q0 16 12 28q10 10 29 11h203q18 0 28 -11q12 -12 13 -28v-920q0 -164 -39 -272.5t-115 -177.5 q-74 -68 -178 -98.5t-231 -30.5t-232 30q-102 31 -176 98.5t-115 180t-41 270.5zM375 1923q0 14 22 14h217q18 0 29 -6q9 -6 24 -24l193 -246q8 -8 8 -21q0 -14 -18 -14h-176q-16 0 -20.5 2t-27.5 25l-243 254q-8 8 -8 16z" />
<glyph unicode="&#xda;" horiz-adv-x="1411" d="M143 563v920q0 16 13 28q10 10 28 11h203q14 0 29 -11q12 -8 12 -28v-920q0 -123 25 -196q25 -76 84 -111q61 -37 169.5 -37t170.5 37q59 35 84 111q25 74 24 196v920q0 16 12 28q10 10 29 11h203q18 0 28 -11q12 -12 13 -28v-920q0 -164 -39 -272.5t-115 -177.5 q-74 -68 -178 -98.5t-231 -30.5t-232 30q-102 31 -176 98.5t-115 180t-41 270.5zM555 1640q0 12 8 21l195 246q15 18 24 24q10 6 29 6h215q23 0 22 -14q0 -8 -8 -16l-241 -254q-10 -12 -23 -21q-8 -6 -27 -6h-176q-18 0 -18 14z" />
<glyph unicode="&#xdb;" horiz-adv-x="1411" d="M143 563v920q0 16 13 28q10 10 28 11h203q14 0 29 -11q12 -8 12 -28v-920q0 -123 25 -196q25 -76 84 -111q61 -37 169.5 -37t170.5 37q59 35 84 111q25 74 24 196v920q0 16 12 28q10 10 29 11h203q18 0 28 -11q12 -12 13 -28v-920q0 -164 -39 -272.5t-115 -177.5 q-74 -68 -178 -98.5t-231 -30.5t-232 30q-102 31 -176 98.5t-115 180t-41 270.5zM324 1640q0 12 8 21l189 246q15 18 24 24q10 6 29 6h266q18 0 29 -6q9 -6 24 -24l187 -246q8 -8 8 -21q0 -14 -19 -14h-170q-14 0 -18 2q-8 4 -14 10l-15 15l-145 166l-145 -166 q-10 -12 -23 -21q-8 -6 -27 -6h-170q-18 0 -18 14z" />
<glyph unicode="&#xdc;" horiz-adv-x="1411" d="M143 563v920q0 16 13 28q10 10 28 11h203q14 0 29 -11q12 -8 12 -28v-920q0 -123 25 -196q25 -76 84 -111q61 -37 169.5 -37t170.5 37q59 35 84 111q25 74 24 196v920q0 16 12 28q10 10 29 11h203q18 0 28 -11q12 -12 13 -28v-920q0 -164 -39 -272.5t-115 -177.5 q-74 -68 -178 -98.5t-231 -30.5t-232 30q-102 31 -176 98.5t-115 180t-41 270.5zM387 1688v180q0 16 12.5 28.5t30.5 12.5h148q16 0 29 -12q14 -14 14 -29v-180q0 -14 -14 -29q-12 -12 -29 -12h-148q-18 0 -30.5 12.5t-12.5 28.5zM797 1688v180q0 14 14 29q12 12 29 12h148 q18 0 30.5 -12.5t12.5 -28.5v-180q0 -16 -12.5 -28.5t-30.5 -12.5h-148q-16 0 -29 12q-14 15 -14 29z" />
<glyph unicode="&#xdd;" horiz-adv-x="1259" d="M47 1491q0 14 8 22.5t25 8.5h227q27 0 39 -33l246 -610q16 -41 34.5 -41t37.5 41l245 610q12 33 39 33h226q16 0 24 -9q10 -10 10 -22l-4 -16l-311 -711q-51 -119 -125 -150v-573q0 -16 -12.5 -28.5t-26.5 -12.5h-205q-16 0 -28 12q-10 10 -11 29v573q-74 31 -125 150 l-309 711zM492 1640q0 12 8 21l195 246q15 18 24 24q10 6 29 6h215q23 0 22 -14q0 -8 -8 -16l-241 -254q-10 -12 -23 -21q-8 -6 -27 -6h-176q-18 0 -18 14z" />
<glyph unicode="&#xde;" horiz-adv-x="1280" d="M154 41v1442q0 16 12 28q10 10 27 11h206q16 0 26.5 -10.5t10.5 -28.5v-129q94 4 170 4q127 0 236 -25q113 -27 190 -78q86 -57 131 -147q47 -94 47 -225v-25q0 -135 -47 -229q-47 -96 -129 -150q-88 -59 -188 -82q-117 -27 -234 -26q-47 0 -75 2q-14 2 -48 3t-53 1v-336 q0 -16 -10 -31q-8 -10 -27 -10h-206q-14 0 -26.5 12.5t-12.5 28.5zM436 616q82 -4 176 -4q104 0 176 25q71 25 105 80q33 53 33 141v25q0 65 -19 110q-16 43 -59 72q-37 25 -100 39q-58 12 -136 12q-94 0 -176 -4v-496z" />
<glyph unicode="&#xdf;" horiz-adv-x="1277" d="M123 43v1012q0 129 35 229q33 94 100 162q66 66 162 96.5t223 30.5q114 0 203 -25q94 -27 155 -75q66 -53 103 -136q37 -84 37 -200v-35q0 -88 -54 -170q-49 -76 -137 -121q98 -39 158 -125q59 -84 59 -194v-39q0 -121 -39 -207q-41 -90 -106 -148q-68 -57 -158 -86 q-92 -29 -190 -28q-37 0 -115 10q-41 6 -41 39v151q0 14 8.5 22.5t26.5 8.5q115 0 180 14q74 16 117 67.5t43 156.5v39q0 94 -66 153q-63 57 -194 57h-66q-18 0 -28 11q-12 12 -13 26v127q0 18 11 27q14 10 30 10h66q86 0 137 27q49 27 76 71q25 43 24 101v35q0 63 -24 106 q-27 45 -74 70q-49 25 -129 24q-100 0 -154 -39q-55 -41 -73 -100q-18 -61 -19 -141v-1014q0 -18 -12 -30.5t-27 -12.5h-194q-14 0 -29 14q-12 13 -12 29z" />
<glyph unicode="&#xe0;" horiz-adv-x="1120" d="M90 326v8q0 119 51 196q51 80 162 119q109 39 287 39h129v90q0 98 -43 131q-45 35 -137 35q-190 0 -334 -16h-10q-37 0 -37 35v131q0 35 39 43q174 33 342 32q145 0 245 -43q102 -43 153.5 -131t51.5 -217v-737q0 -16 -12 -28.5t-29 -12.5h-174q-16 0 -28.5 12.5 t-12.5 28.5v33q-150 -90 -289 -90q-152 0 -254 77q-100 77 -100 265zM362 326q0 -70 35 -98.5t113 -28.5q106 0 209 57v252h-129q-86 0 -139 -19q-51 -18 -70 -57q-18 -40 -19 -98v-8zM226 1581q0 14 22 14h217q18 0 29 -6q9 -6 24 -24l193 -246q8 -8 8 -21q0 -14 -18 -14 h-176q-16 0 -20.5 2t-27.5 25l-243 254q-8 8 -8 16z" />
<glyph unicode="&#xe1;" horiz-adv-x="1120" d="M90 326v8q0 119 51 196q51 80 162 119q109 39 287 39h129v90q0 98 -43 131q-45 35 -137 35q-190 0 -334 -16h-10q-37 0 -37 35v131q0 35 39 43q174 33 342 32q145 0 245 -43q102 -43 153.5 -131t51.5 -217v-737q0 -16 -12 -28.5t-29 -12.5h-174q-16 0 -28.5 12.5 t-12.5 28.5v33q-150 -90 -289 -90q-152 0 -254 77q-100 77 -100 265zM362 326q0 -70 35 -98.5t113 -28.5q106 0 209 57v252h-129q-86 0 -139 -19q-51 -18 -70 -57q-18 -40 -19 -98v-8zM406 1298q0 12 8 21l195 246q15 18 24 24q10 6 29 6h215q23 0 22 -14q0 -8 -8 -16 l-241 -254q-10 -12 -23 -21q-8 -6 -27 -6h-176q-18 0 -18 14z" />
<glyph unicode="&#xe2;" horiz-adv-x="1120" d="M90 326v8q0 119 51 196q51 80 162 119q109 39 287 39h129v90q0 98 -43 131q-45 35 -137 35q-190 0 -334 -16h-10q-37 0 -37 35v131q0 35 39 43q174 33 342 32q145 0 245 -43q102 -43 153.5 -131t51.5 -217v-737q0 -16 -12 -28.5t-29 -12.5h-174q-16 0 -28.5 12.5 t-12.5 28.5v33q-150 -90 -289 -90q-152 0 -254 77q-100 77 -100 265zM362 326q0 -70 35 -98.5t113 -28.5q106 0 209 57v252h-129q-86 0 -139 -19q-51 -18 -70 -57q-18 -40 -19 -98v-8zM182 1298q0 12 8 21l189 246q15 18 24 24q10 6 29 6h266q18 0 29 -6q9 -6 24 -24 l187 -246q8 -8 8 -21q0 -14 -19 -14h-170q-14 0 -18 2q-8 4 -14 10l-15 15l-145 166l-145 -166q-10 -12 -23 -21q-8 -6 -27 -6h-170q-18 0 -18 14z" />
<glyph unicode="&#xe3;" horiz-adv-x="1120" d="M90 326v8q0 119 51 196q51 80 162 119q109 39 287 39h129v90q0 98 -43 131q-45 35 -137 35q-190 0 -334 -16h-10q-37 0 -37 35v131q0 35 39 43q174 33 342 32q145 0 245 -43q102 -43 153.5 -131t51.5 -217v-737q0 -16 -12 -28.5t-29 -12.5h-174q-16 0 -28.5 12.5 t-12.5 28.5v33q-150 -90 -289 -90q-152 0 -254 77q-100 77 -100 265zM362 326q0 -70 35 -98.5t113 -28.5q106 0 209 57v252h-129q-86 0 -139 -19q-51 -18 -70 -57q-18 -40 -19 -98v-8zM179 1329v43q0 229 229 230q82 0 141 -46l90 -67q53 -41 86 -41q57 0 58 68v43 q0 33 28 32h117q29 0 29 -32v-46q0 -229 -228 -229q-37 0 -73 12q-39 12 -70 35l-90 68q-58 43 -86 43q-57 0 -57 -70v-43q0 -33 -29 -33h-117q-28 0 -28 33z" />
<glyph unicode="&#xe4;" horiz-adv-x="1120" d="M90 326v8q0 119 51 196q51 80 162 119q109 39 287 39h129v90q0 98 -43 131q-45 35 -137 35q-190 0 -334 -16h-10q-37 0 -37 35v131q0 35 39 43q174 33 342 32q145 0 245 -43q102 -43 153.5 -131t51.5 -217v-737q0 -16 -12 -28.5t-29 -12.5h-174q-16 0 -28.5 12.5 t-12.5 28.5v33q-150 -90 -289 -90q-152 0 -254 77q-100 77 -100 265zM362 326q0 -70 35 -98.5t113 -28.5q106 0 209 57v252h-129q-86 0 -139 -19q-51 -18 -70 -57q-18 -40 -19 -98v-8zM243 1356v180q0 16 12.5 28.5t30.5 12.5h148q16 0 29 -12q14 -14 14 -29v-180 q0 -14 -14 -29q-12 -12 -29 -12h-148q-18 0 -30.5 12.5t-12.5 28.5zM653 1356v180q0 14 14 29q12 12 29 12h148q18 0 30.5 -12.5t12.5 -28.5v-180q0 -16 -12.5 -28.5t-30.5 -12.5h-148q-16 0 -29 12q-14 15 -14 29z" />
<glyph unicode="&#xe5;" horiz-adv-x="1120" d="M90 326v8q0 119 51 196q51 80 162 119q109 39 287 39h129v90q0 98 -43 131q-45 35 -137 35q-190 0 -334 -16h-10q-37 0 -37 35v131q0 35 39 43q174 33 342 32q145 0 245 -43q102 -43 153.5 -131t51.5 -217v-737q0 -16 -12 -28.5t-29 -12.5h-174q-16 0 -28.5 12.5 t-12.5 28.5v33q-150 -90 -289 -90q-152 0 -254 77q-100 77 -100 265zM362 326q0 -70 35 -98.5t113 -28.5q106 0 209 57v252h-129q-86 0 -139 -19q-51 -18 -70 -57q-18 -40 -19 -98v-8zM786 1495q0 -61 -30.5 -112.5t-82 -82t-112.5 -30.5t-113 30q-55 33 -84 82 q-31 51 -30 113q0 90 65 160q63 68 162 67q95 0 160 -67q65 -70 65 -160zM659 1497q0 40 -30 68q-33 29 -68 28q-37 0 -65.5 -28.5t-28.5 -67.5q0 -43 26 -70q29 -29 68 -28q41 0 69.5 28.5t28.5 69.5z" />
<glyph unicode="&#xe6;" horiz-adv-x="1781" d="M94 344v23q0 117 58 186q59 72 176 102q125 33 288 33h105v55q0 111 -47 154q-49 45 -142 45q-211 0 -321 -12h-2h-4q-35 0 -35 35v122q0 35 41 48q162 35 321 34q229 0 345 -135q119 135 329 135q162 0 266.5 -61t153.5 -170q51 -113 51 -254v-135q0 -14 -14 -29 q-12 -12 -29 -12h-643v-84q0 -115 63.5 -164t205.5 -49q63 0 104 2l125 6q55 2 108 10h2h7q35 0 34 -32v-115q0 -39 -38 -49q-86 -25 -192.5 -37t-192.5 -12q-217 0 -324 110q-152 -111 -377 -110q-119 0 -219 39q-90 35 -147 118q-56 80 -56 203zM354 344q0 -86 47 -117 q49 -33 136 -32q117 0 192 28v312h-113q-90 0 -151 -17q-55 -14 -84 -53q-27 -35 -27 -98v-23zM991 664h424v69q0 94 -51 162q-49 63 -160 63q-109 0 -160 -63q-53 -66 -53 -162v-69z" />
<glyph unicode="&#xe7;" horiz-adv-x="956" d="M92 481v191q0 168 60 274q63 115 167 168q106 55 240 55q70 0 156 -8q66 -6 108 -18q25 -6 33 -17q10 -14 10 -36v-134q0 -31 -37 -30h-6q-106 14 -264 14q-86 0 -141.5 -61.5t-55.5 -206.5v-191q0 -145 55.5 -206.5t141.5 -61.5q72 0 154 4q41 2 110 10h6q37 0 37 -30 v-134q0 -23 -10 -36q-8 -10 -33 -17q-111 -27 -264 -26q-133 0 -240 55q-104 53 -167 168q-60 106 -60 274zM195 -367q0 12 8 21l192 246q14 16 27 24q8 6 27 6h217q23 0 22 -14q0 -8 -8 -16l-244 -252q-16 -20 -26 -25q-8 -4 -21 -4h-176q-18 0 -18 14z" />
<glyph unicode="&#xe8;" horiz-adv-x="1175" d="M98 498v151q0 244 129 381q129 139 363 139q152 0 264 -65q109 -63 166 -184t57 -271v-114q0 -51 -41 -52h-667v-6q0 -104 57 -184q55 -76 188 -76q186 0 377 21h6q37 0 37 -31v-135q0 -29 -8 -37q-10 -10 -35 -17q-88 -16 -186 -26q-80 -8 -211 -8q-78 0 -170 26 q-84 25 -160 84.5t-121 159.5q-45 99 -45 244zM371 676h434v8q0 80 -26.5 135t-76 86t-112.5 31q-98 0 -158 -66q-61 -68 -61 -186v-8zM228 1581q0 14 22 14h217q18 0 29 -6q9 -6 24 -24l193 -246q8 -8 8 -21q0 -14 -18 -14h-176q-16 0 -20.5 2t-27.5 25l-243 254 q-8 8 -8 16z" />
<glyph unicode="&#xe9;" horiz-adv-x="1175" d="M98 498v151q0 244 129 381q129 139 363 139q152 0 264 -65q109 -63 166 -184t57 -271v-114q0 -51 -41 -52h-667v-6q0 -104 57 -184q55 -76 188 -76q186 0 377 21h6q37 0 37 -31v-135q0 -29 -8 -37q-10 -10 -35 -17q-88 -16 -186 -26q-80 -8 -211 -8q-78 0 -170 26 q-84 25 -160 84.5t-121 159.5q-45 99 -45 244zM371 676h434v8q0 80 -26.5 135t-76 86t-112.5 31q-98 0 -158 -66q-61 -68 -61 -186v-8zM441 1298q0 12 8 21l195 246q15 18 24 24q10 6 29 6h215q23 0 22 -14q0 -8 -8 -16l-241 -254q-10 -12 -23 -21q-8 -6 -27 -6h-176 q-18 0 -18 14z" />
<glyph unicode="&#xea;" horiz-adv-x="1175" d="M98 498v151q0 244 129 381q129 139 363 139q152 0 264 -65q109 -63 166 -184t57 -271v-114q0 -51 -41 -52h-667v-6q0 -104 57 -184q55 -76 188 -76q186 0 377 21h6q37 0 37 -31v-135q0 -29 -8 -37q-10 -10 -35 -17q-88 -16 -186 -26q-80 -8 -211 -8q-78 0 -170 26 q-84 25 -160 84.5t-121 159.5q-45 99 -45 244zM371 676h434v8q0 80 -26.5 135t-76 86t-112.5 31q-98 0 -158 -66q-61 -68 -61 -186v-8zM205 1298q0 12 8 21l189 246q15 18 24 24q10 6 29 6h266q18 0 29 -6q9 -6 24 -24l187 -246q8 -8 8 -21q0 -14 -19 -14h-170q-14 0 -18 2 q-8 4 -14 10l-15 15l-145 166l-145 -166q-10 -12 -23 -21q-8 -6 -27 -6h-170q-18 0 -18 14z" />
<glyph unicode="&#xeb;" horiz-adv-x="1175" d="M98 498v151q0 244 129 381q129 139 363 139q152 0 264 -65q109 -63 166 -184t57 -271v-114q0 -51 -41 -52h-667v-6q0 -104 57 -184q55 -76 188 -76q186 0 377 21h6q37 0 37 -31v-135q0 -29 -8 -37q-10 -10 -35 -17q-88 -16 -186 -26q-80 -8 -211 -8q-78 0 -170 26 q-84 25 -160 84.5t-121 159.5q-45 99 -45 244zM371 676h434v8q0 80 -26.5 135t-76 86t-112.5 31q-98 0 -158 -66q-61 -68 -61 -186v-8zM264 1350v180q0 16 12.5 28.5t30.5 12.5h148q16 0 29 -12q14 -14 14 -29v-180q0 -14 -14 -29q-12 -12 -29 -12h-148q-18 0 -30.5 12.5 t-12.5 28.5zM674 1350v180q0 14 14 29q12 12 29 12h148q18 0 30.5 -12.5t12.5 -28.5v-180q0 -16 -12.5 -28.5t-30.5 -12.5h-148q-16 0 -29 12q-14 15 -14 29z" />
<glyph unicode="&#xec;" horiz-adv-x="548" d="M410 43q0 -16 -13 -29q-14 -14 -28 -14h-189q-14 0 -28 14q-12 12 -13 29v1071q0 16 12.5 28.5t28.5 12.5h189q16 0 28.5 -12.5t12.5 -28.5v-1071zM-59 1581q0 14 22 14h217q18 0 29 -6q9 -6 24 -24l193 -246q8 -8 8 -21q0 -14 -18 -14h-176q-16 0 -20.5 2t-27.5 25 l-243 254q-8 8 -8 16z" />
<glyph unicode="&#xed;" horiz-adv-x="548" d="M410 43q0 -16 -13 -29q-14 -14 -28 -14h-189q-14 0 -28 14q-12 12 -13 29v1071q0 16 12.5 28.5t28.5 12.5h189q16 0 28.5 -12.5t12.5 -28.5v-1071zM125 1298q0 12 8 21l195 246q15 18 24 24q10 6 29 6h215q23 0 22 -14q0 -8 -8 -16l-241 -254q-10 -12 -23 -21 q-8 -6 -27 -6h-176q-18 0 -18 14z" />
<glyph unicode="&#xee;" horiz-adv-x="548" d="M410 43q0 -16 -13 -29q-14 -14 -28 -14h-189q-14 0 -28 14q-12 12 -13 29v1071q0 16 12.5 28.5t28.5 12.5h189q16 0 28.5 -12.5t12.5 -28.5v-1071zM-107 1298q0 12 8 21l189 246q15 18 24 24q10 6 29 6h266q18 0 29 -6q9 -6 24 -24l187 -246q8 -8 8 -21q0 -14 -19 -14 h-170q-14 0 -18 2q-8 4 -14 10l-15 15l-145 166l-145 -166q-10 -12 -23 -21q-8 -6 -27 -6h-170q-18 0 -18 14z" />
<glyph unicode="&#xef;" horiz-adv-x="548" d="M410 43q0 -16 -13 -29q-14 -14 -28 -14h-189q-14 0 -28 14q-12 12 -13 29v1071q0 16 12.5 28.5t28.5 12.5h189q16 0 28.5 -12.5t12.5 -28.5v-1071zM-48 1350v180q0 16 12.5 28.5t30.5 12.5h148q16 0 29 -12q14 -14 14 -29v-180q0 -14 -14 -29q-12 -12 -29 -12h-148 q-18 0 -30.5 12.5t-12.5 28.5zM362 1350v180q0 14 14 29q12 12 29 12h148q18 0 30.5 -12.5t12.5 -28.5v-180q0 -16 -12.5 -28.5t-30.5 -12.5h-148q-16 0 -29 12q-14 15 -14 29z" />
<glyph unicode="&#xf0;" horiz-adv-x="1175" d="M98 518v82q0 174 56 293q53 117 168 180q106 59 266 60q92 0 149 -29q-63 98 -256 199l-155 -119q-18 -12 -26.5 -12.5t-23.5 12.5l-59 65q-6 6 -6 17q0 20 20 32l93 70q-61 22 -105 31q-33 8 -33 31q0 8 2 10l43 119q10 23 29 22q12 0 16 -2q121 -29 230 -72l174 133 q8 8 26.5 8.5t24.5 -10.5l60 -63q8 -8 8 -16q0 -14 -21 -29l-121 -92q150 -82 242 -197q92 -114 135 -270t43 -371v-82q0 -174 -55 -293t-166 -180t-266 -61q-248 0 -371 141q-121 139 -121 393zM371 518q0 -160 51 -231q53 -74 168 -74q111 0 164 74q51 72 51 231v82 q0 160 -51 231q-52 74 -166 74q-76 0 -123 -33q-51 -35 -72 -100q-23 -72 -22 -172v-82z" />
<glyph unicode="&#xf1;" horiz-adv-x="1210" d="M133 43v1071q0 16 12.5 28.5t28.5 12.5h178q20 0 30.5 -10t10.5 -31v-43q86 53 160 78q63 20 172 20q205 0 279 -118q76 -123 75 -340v-668q0 -18 -12 -30.5t-29 -12.5h-188q-14 0 -29 14q-12 12 -12 29v668q0 104 -10 143q-12 43 -49 66q-35 20 -115 20q-90 0 -232 -74 v-823q0 -18 -12 -30.5t-29 -12.5h-188q-14 0 -29 14q-12 13 -12 29zM209 1329v43q0 229 229 230q82 0 141 -46l90 -67q53 -41 86 -41q57 0 58 68v43q0 33 28 32h117q29 0 29 -32v-46q0 -229 -228 -229q-37 0 -73 12q-39 12 -70 35l-90 68q-58 43 -86 43q-57 0 -57 -70v-43 q0 -33 -29 -33h-117q-28 0 -28 33z" />
<glyph unicode="&#xf2;" horiz-adv-x="1175" d="M98 494v165q0 145 55.5 262t168 182.5t266 65.5t266.5 -65.5t168 -182t55 -262.5v-165q0 -145 -55 -262t-168 -182.5t-266.5 -65.5t-266 65.5t-168 182.5t-55.5 262zM369 494q0 -125 57 -201t161.5 -76t162.5 74q57 72 57 203v165q0 127 -57 203q-55 74 -162 74t-162 -74 q-57 -76 -57 -203v-165zM261 1581q0 14 22 14h217q18 0 29 -6q9 -6 24 -24l193 -246q8 -8 8 -21q0 -14 -18 -14h-176q-16 0 -20.5 2t-27.5 25l-243 254q-8 8 -8 16z" />
<glyph unicode="&#xf3;" horiz-adv-x="1175" d="M98 494v165q0 145 55.5 262t168 182.5t266 65.5t266.5 -65.5t168 -182t55 -262.5v-165q0 -145 -55 -262t-168 -182.5t-266.5 -65.5t-266 65.5t-168 182.5t-55.5 262zM369 494q0 -125 57 -201t161.5 -76t162.5 74q57 72 57 203v165q0 127 -57 203q-55 74 -162 74t-162 -74 q-57 -76 -57 -203v-165zM410 1298q0 12 8 21l195 246q15 18 24 24q10 6 29 6h215q23 0 22 -14q0 -8 -8 -16l-241 -254q-10 -12 -23 -21q-8 -6 -27 -6h-176q-18 0 -18 14z" />
<glyph unicode="&#xf4;" horiz-adv-x="1175" d="M98 494v165q0 145 55.5 262t168 182.5t266 65.5t266.5 -65.5t168 -182t55 -262.5v-165q0 -145 -55 -262t-168 -182.5t-266.5 -65.5t-266 65.5t-168 182.5t-55.5 262zM369 494q0 -125 57 -201t161.5 -76t162.5 74q57 72 57 203v165q0 127 -57 203q-55 74 -162 74t-162 -74 q-57 -76 -57 -203v-165zM203 1298q0 12 8 21l189 246q15 18 24 24q10 6 29 6h266q18 0 29 -6q9 -6 24 -24l187 -246q8 -8 8 -21q0 -14 -19 -14h-170q-14 0 -18 2q-8 4 -14 10l-15 15l-145 166l-145 -166q-10 -12 -23 -21q-8 -6 -27 -6h-170q-18 0 -18 14z" />
<glyph unicode="&#xf5;" horiz-adv-x="1175" d="M98 494v165q0 145 55.5 262t168 182.5t266 65.5t266.5 -65.5t168 -182t55 -262.5v-165q0 -145 -55 -262t-168 -182.5t-266.5 -65.5t-266 65.5t-168 182.5t-55.5 262zM369 494q0 -125 57 -201t161.5 -76t162.5 74q57 72 57 203v165q0 127 -57 203q-55 74 -162 74t-162 -74 q-57 -76 -57 -203v-165zM195 1329v43q0 229 229 230q82 0 141 -46l90 -67q53 -41 86 -41q57 0 58 68v43q0 33 28 32h117q29 0 29 -32v-46q0 -229 -228 -229q-37 0 -73 12q-39 12 -70 35l-90 68q-58 43 -86 43q-57 0 -57 -70v-43q0 -33 -29 -33h-117q-28 0 -28 33z" />
<glyph unicode="&#xf6;" horiz-adv-x="1175" d="M98 494v165q0 145 55.5 262t168 182.5t266 65.5t266.5 -65.5t168 -182t55 -262.5v-165q0 -145 -55 -262t-168 -182.5t-266.5 -65.5t-266 65.5t-168 182.5t-55.5 262zM369 494q0 -125 57 -201t161.5 -76t162.5 74q57 72 57 203v165q0 127 -57 203q-55 74 -162 74t-162 -74 q-57 -76 -57 -203v-165zM262 1350v180q0 16 12.5 28.5t30.5 12.5h148q16 0 29 -12q14 -14 14 -29v-180q0 -14 -14 -29q-12 -12 -29 -12h-148q-18 0 -30.5 12.5t-12.5 28.5zM672 1350v180q0 14 14 29q12 12 29 12h148q18 0 30.5 -12.5t12.5 -28.5v-180q0 -16 -12.5 -28.5 t-30.5 -12.5h-148q-16 0 -29 12q-14 15 -14 29z" />
<glyph unicode="&#xf7;" d="M190 729v143q0 33 41 33h830q41 0 41 -33v-143q0 -15 -12 -24q-10 -8 -29 -9h-830q-18 0 -28 9q-13 9 -13 24zM512 260v211q0 16 12.5 28.5t28.5 12.5h184q20 0 30.5 -10t10.5 -31v-211q0 -16 -12 -29q-10 -10 -29 -10h-184q-16 0 -28.5 12.5t-12.5 26.5zM512 1110v211 q0 14 12.5 26.5t28.5 12.5h184q14 0 29 -10q12 -10 12 -29v-211q0 -16 -12 -28.5t-29 -12.5h-184q-16 0 -28.5 12.5t-12.5 28.5z" />
<glyph unicode="&#xf8;" horiz-adv-x="1175" d="M55 -55q0 12 8 22l136 189q-51 68 -76 151q-25 86 -25 187v165q0 145 55.5 262t168 182.5t266.5 65.5q166 0 284 -77l80 110q18 20 33 21h115q16 0 16 -17q0 -12 -8 -22l-133 -185q51 -68 76 -153q27 -92 26 -187v-165q0 -145 -55 -262t-168 -182.5t-266 -65.5 q-78 0 -156 20q-63 16 -131 57l-82 -112q-14 -20 -33 -21h-114q-17 1 -17 17zM369 494q0 -55 8 -91l348 484q-55 49 -137 49q-106 0 -162 -74q-57 -76 -57 -203v-165zM449 266q49 -49 139 -49q104 0 162 74q57 72 57 203v165q0 59 -8 95z" />
<glyph unicode="&#xf9;" horiz-adv-x="1210" d="M133 444v668q0 16 12 29q14 14 29 14h188q16 0 28.5 -12.5t12.5 -30.5v-668q0 -80 11 -127q10 -45 37 -69q41 -37 127 -37q45 0 106 22q49 18 125 60v819q0 16 12 29q14 14 29 14h188q16 0 28.5 -12.5t12.5 -30.5v-1071q0 -16 -12 -28.5t-29 -12.5h-188q-16 0 -28.5 12.5 t-12.5 28.5v47q-84 -55 -154 -78q-74 -25 -168 -24q-166 0 -251 86q-55 55 -80 149q-23 84 -23 223zM285 1581q0 14 22 14h217q18 0 29 -6q9 -6 24 -24l193 -246q8 -8 8 -21q0 -14 -18 -14h-176q-16 0 -20.5 2t-27.5 25l-243 254q-8 8 -8 16z" />
<glyph unicode="&#xfa;" horiz-adv-x="1210" d="M133 444v668q0 16 12 29q14 14 29 14h188q16 0 28.5 -12.5t12.5 -30.5v-668q0 -80 11 -127q10 -45 37 -69q41 -37 127 -37q45 0 106 22q49 18 125 60v819q0 16 12 29q14 14 29 14h188q16 0 28.5 -12.5t12.5 -30.5v-1071q0 -16 -12 -28.5t-29 -12.5h-188q-16 0 -28.5 12.5 t-12.5 28.5v47q-84 -55 -154 -78q-74 -25 -168 -24q-166 0 -251 86q-55 55 -80 149q-23 84 -23 223zM455 1298q0 12 8 21l195 246q15 18 24 24q10 6 29 6h215q23 0 22 -14q0 -8 -8 -16l-241 -254q-10 -12 -23 -21q-8 -6 -27 -6h-176q-18 0 -18 14z" />
<glyph unicode="&#xfb;" horiz-adv-x="1210" d="M133 444v668q0 16 12 29q14 14 29 14h188q16 0 28.5 -12.5t12.5 -30.5v-668q0 -80 11 -127q10 -45 37 -69q41 -37 127 -37q45 0 106 22q49 18 125 60v819q0 16 12 29q14 14 29 14h188q16 0 28.5 -12.5t12.5 -30.5v-1071q0 -16 -12 -28.5t-29 -12.5h-188q-16 0 -28.5 12.5 t-12.5 28.5v47q-84 -55 -154 -78q-74 -25 -168 -24q-166 0 -251 86q-55 55 -80 149q-23 84 -23 223zM221 1298q0 12 8 21l189 246q15 18 24 24q10 6 29 6h266q18 0 29 -6q9 -6 24 -24l187 -246q8 -8 8 -21q0 -14 -19 -14h-170q-14 0 -18 2q-8 4 -14 10l-15 15l-145 166 l-145 -166q-10 -12 -23 -21q-8 -6 -27 -6h-170q-18 0 -18 14z" />
<glyph unicode="&#xfc;" horiz-adv-x="1210" d="M133 444v668q0 16 12 29q14 14 29 14h188q16 0 28.5 -12.5t12.5 -30.5v-668q0 -80 11 -127q10 -45 37 -69q41 -37 127 -37q45 0 106 22q49 18 125 60v819q0 16 12 29q14 14 29 14h188q16 0 28.5 -12.5t12.5 -30.5v-1071q0 -16 -12 -28.5t-29 -12.5h-188q-16 0 -28.5 12.5 t-12.5 28.5v47q-84 -55 -154 -78q-74 -25 -168 -24q-166 0 -251 86q-55 55 -80 149q-23 84 -23 223zM294 1350v180q0 16 12.5 28.5t30.5 12.5h148q16 0 29 -12q14 -14 14 -29v-180q0 -14 -14 -29q-12 -12 -29 -12h-148q-18 0 -30.5 12.5t-12.5 28.5zM704 1350v180 q0 14 14 29q12 12 29 12h148q18 0 30.5 -12.5t12.5 -28.5v-180q0 -16 -12.5 -28.5t-30.5 -12.5h-148q-16 0 -29 12q-14 15 -14 29z" />
<glyph unicode="&#xfd;" horiz-adv-x="1146" d="M49 1122q0 33 39 33h207q14 0 24 -10q12 -10 15 -27l207 -833q8 -45 28 -45h2h11h6l221 880q6 35 41 35h209q12 0 26 -10q10 -8 11 -25q0 -10 -2 -12l-342 -1196q-37 -125 -78 -186q-47 -70 -125 -103t-215 -33q-57 0 -115 9q-82 12 -102 18q-43 12 -43 35v131 q0 14 12 27q10 10 29 10h4q29 0 114.5 -6.5t116.5 -6.5q51 0 76 11q31 12 51 39q16 23 35 82l16 61h-30q-57 0 -102.5 33t-76.5 137l-268 938q-2 4 -2 14zM471 1298q0 12 8 21l195 246q15 18 24 24q10 6 29 6h215q23 0 22 -14q0 -8 -8 -16l-241 -254q-10 -12 -23 -21 q-8 -6 -27 -6h-176q-18 0 -18 14z" />
<glyph unicode="&#xfe;" horiz-adv-x="1181" d="M133 -362v1880q0 16 12.5 28.5t26.5 12.5h195q18 0 26 -11q10 -14 10 -30v-363q100 14 205 14q113 0 207 -34q84 -31 152 -103q61 -63 92 -162q31 -95 31 -221v-147q0 -127 -29 -215q-33 -100 -90 -164q-59 -63 -154 -103q-92 -37 -209 -36q-31 0 -108 4q-55 2 -97 12 v-362q0 -14 -10 -29q-8 -12 -26 -12h-193q-16 0 -28.5 12.5t-12.5 28.5zM403 221q104 -16 181 -16q119 0 178 65q57 63 57 232v147q0 113 -28.5 180.5t-79.5 92.5q-57 27 -133 26q-37 0 -175 -16v-711z" />
<glyph unicode="&#xff;" horiz-adv-x="1146" d="M49 1122q0 33 39 33h207q14 0 24 -10q12 -10 15 -27l207 -833q8 -45 28 -45h2h11h6l221 880q6 35 41 35h209q12 0 26 -10q10 -8 11 -25q0 -10 -2 -12l-342 -1196q-37 -125 -78 -186q-47 -70 -125 -103t-215 -33q-57 0 -115 9q-82 12 -102 18q-43 12 -43 35v131 q0 14 12 27q10 10 29 10h4q29 0 114.5 -6.5t116.5 -6.5q51 0 76 11q31 12 51 39q16 23 35 82l16 61h-30q-57 0 -102.5 33t-76.5 137l-268 938q-2 4 -2 14zM264 1350v180q0 16 12.5 28.5t30.5 12.5h148q16 0 29 -12q14 -14 14 -29v-180q0 -14 -14 -29q-12 -12 -29 -12h-148 q-18 0 -30.5 12.5t-12.5 28.5zM674 1350v180q0 14 14 29q12 12 29 12h148q18 0 30.5 -12.5t12.5 -28.5v-180q0 -16 -12.5 -28.5t-30.5 -12.5h-148q-16 0 -29 12q-14 15 -14 29z" />
<glyph unicode="&#x131;" horiz-adv-x="548" d="M410 43q0 -16 -13 -29q-14 -14 -28 -14h-189q-14 0 -28 14q-12 12 -13 29v1071q0 16 12.5 28.5t28.5 12.5h189q16 0 28.5 -12.5t12.5 -28.5v-1071z" />
<glyph unicode="&#x152;" horiz-adv-x="2027" d="M123 623v276q0 215 74 361q72 141 206 210q133 68 304 68q242 0 385 -131q94 131 383 131q137 0 239 -8q84 -6 150 -21q41 -6 41 -43v-131q0 -16 -12.5 -28.5t-28.5 -12.5h-418q-86 0 -125 -39q-37 -37 -37 -137v-221h555q20 0 30.5 -10t10.5 -31v-147q0 -16 -12.5 -28.5 t-28.5 -12.5h-555v-265q0 -96 37 -137q37 -39 125 -39h418q16 0 28.5 -12t12.5 -29v-131q0 -37 -41 -43q-39 -4 -58 -8q-12 -2 -96 -10q-8 0 -104 -8q-27 -2 -131 -2q-129 0 -228 28q-96 29 -155 103q-72 -70 -170 -101q-95 -31 -215 -30q-170 0 -304 67q-135 70 -206 211 q-74 144 -74 361zM410 623q0 -201 73 -297q74 -94 224 -95q295 0 294 342v375q0 342 -294 342q-150 0 -223.5 -94t-73.5 -297v-276z" />
<glyph unicode="&#x153;" horiz-adv-x="1894" d="M102 494v165q0 145 55.5 262t168 182.5t266.5 65.5q229 0 358 -151q68 78 154 112q94 39 203 39q150 0 264 -69q104 -63 166 -187q57 -115 57 -264v-114q0 -51 -41 -52h-672v-12v-8q2 -63 27 -123q25 -61 74 -96q52 -37 129 -37q193 0 397 20h6q37 0 37 -30v-125 q0 -29 -8 -37q-10 -10 -35 -17q-88 -16 -186 -26q-80 -8 -211 -8q-98 0 -199 34q-92 33 -164 113q-129 -147 -356 -147q-154 0 -266.5 65.5t-168 182.5t-55.5 262zM373 494q0 -131 57 -203q57 -74 161.5 -74t162.5 74q57 72 57 203v165q0 127 -57 203q-55 74 -162 74 t-162 -74q-57 -76 -57 -203v-165zM1081 676h445v8q0 129 -60 195q-57 63 -159 63q-63 0 -115 -27q-53 -29 -82 -80t-29 -130v-13v-16z" />
<glyph unicode="&#x178;" horiz-adv-x="1259" d="M47 1491q0 14 8 22.5t25 8.5h227q27 0 39 -33l246 -610q16 -41 34.5 -41t37.5 41l245 610q12 33 39 33h226q16 0 24 -9q10 -10 10 -22l-4 -16l-311 -711q-51 -119 -125 -150v-573q0 -16 -12.5 -28.5t-26.5 -12.5h-205q-16 0 -28 12q-10 10 -11 29v573q-74 31 -125 150 l-309 711zM317 1678v180q0 16 12.5 28.5t30.5 12.5h148q16 0 29 -12q14 -14 14 -29v-180q0 -14 -14 -29q-12 -12 -29 -12h-148q-18 0 -30.5 12.5t-12.5 28.5zM727 1678v180q0 14 14 29q12 12 29 12h148q18 0 30.5 -12.5t12.5 -28.5v-180q0 -16 -12.5 -28.5t-30.5 -12.5h-148 q-16 0 -29 12q-14 15 -14 29z" />
<glyph unicode="&#x2c6;" horiz-adv-x="849" d="M43 1298q0 12 8 21l189 246q15 18 24 24q10 6 29 6h266q18 0 29 -6q9 -6 24 -24l187 -246q8 -8 8 -21q0 -14 -19 -14h-170q-14 0 -18 2q-8 4 -14 10l-15 15l-145 166l-145 -166q-10 -12 -23 -21q-8 -6 -27 -6h-170q-18 0 -18 14z" />
<glyph unicode="&#x2da;" horiz-adv-x="849" d="M651 1450q0 -61 -30.5 -112.5t-82 -82t-112.5 -30.5t-113 30q-55 33 -84 82q-31 51 -30 113q0 90 65 160q63 68 162 67q95 0 160 -67q65 -70 65 -160zM524 1452q0 40 -30 68q-33 29 -68 28q-37 0 -65.5 -28.5t-28.5 -67.5q0 -43 26 -70q29 -29 68 -28q41 0 69.5 28.5 t28.5 69.5z" />
<glyph unicode="&#x2dc;" horiz-adv-x="1015" d="M109 1329v43q0 229 229 230q82 0 141 -46l90 -67q53 -41 86 -41q57 0 58 68v43q0 33 28 32h117q29 0 29 -32v-46q0 -229 -228 -229q-37 0 -73 12q-39 12 -70 35l-90 68q-58 43 -86 43q-57 0 -57 -70v-43q0 -33 -29 -33h-117q-28 0 -28 33z" />
<glyph unicode="&#x2000;" horiz-adv-x="1021" />
<glyph unicode="&#x2001;" horiz-adv-x="2045" />
<glyph unicode="&#x2002;" horiz-adv-x="1021" />
<glyph unicode="&#x2003;" horiz-adv-x="2045" />
<glyph unicode="&#x2004;" horiz-adv-x="681" />
<glyph unicode="&#x2005;" horiz-adv-x="509" />
<glyph unicode="&#x2006;" horiz-adv-x="339" />
<glyph unicode="&#x2007;" horiz-adv-x="339" />
<glyph unicode="&#x2008;" horiz-adv-x="253" />
<glyph unicode="&#x2009;" horiz-adv-x="407" />
<glyph unicode="&#x200a;" horiz-adv-x="112" />
<glyph unicode="&#x2010;" horiz-adv-x="655" d="M88 565v129q0 14 12.5 26.5t28.5 12.5h401q16 0 27 -10q12 -12 12 -29v-129q0 -16 -12 -26q-14 -10 -27 -11h-401q-18 0 -29 11q-12 12 -12 26z" />
<glyph unicode="&#x2011;" horiz-adv-x="655" d="M88 565v129q0 14 12.5 26.5t28.5 12.5h401q16 0 27 -10q12 -12 12 -29v-129q0 -16 -12 -26q-14 -10 -27 -11h-401q-18 0 -29 11q-12 12 -12 26z" />
<glyph unicode="&#x2012;" horiz-adv-x="655" d="M88 565v129q0 14 12.5 26.5t28.5 12.5h401q16 0 27 -10q12 -12 12 -29v-129q0 -16 -12 -26q-14 -10 -27 -11h-401q-18 0 -29 11q-12 12 -12 26z" />
<glyph unicode="&#x2013;" horiz-adv-x="833" d="M70 524v129q0 16 12 29q10 10 27 10h616q18 0 28.5 -10t10.5 -29v-129q0 -16 -12 -26q-14 -10 -27 -11h-616q-12 0 -27 11q-12 10 -12 26z" />
<glyph unicode="&#x2014;" horiz-adv-x="1099" d="M70 524v129q0 16 12 29q10 10 27 10h882q14 0 29 -10q12 -10 12 -29v-129q0 -16 -12 -26q-14 -10 -29 -11h-882q-12 0 -27 11q-12 10 -12 26z" />
<glyph unicode="&#x2018;" horiz-adv-x="438" d="M39 1079q0 12 2 17l139 424q12 39 39 39h164q18 0 18 -21q0 -14 -2 -18l-104 -424q-8 -39 -41 -39h-193q-22 -1 -22 22z" />
<glyph unicode="&#x2019;" horiz-adv-x="438" d="M39 1077q0 14 2 19l104 424q8 39 41 39h193q23 0 22 -23q0 -12 -2 -16l-139 -424q-12 -39 -39 -39h-164q-18 0 -18 20z" />
<glyph unicode="&#x201a;" horiz-adv-x="438" d="M23 -170q0 10 2 12l125 430q12 39 40 39h197q10 0 21 -6q8 -6 8 -18q-2 -4 -4 -15l-179 -430q-10 -23 -16 -32q-6 -8 -22 -9h-142q-30 0 -30 29z" />
<glyph unicode="&#x201c;" horiz-adv-x="851" d="M39 1079q0 12 2 17l139 424q12 39 39 39h164q18 0 18 -21q0 -14 -2 -18l-104 -424q-8 -39 -41 -39h-193q-22 -1 -22 22zM451 1079q0 12 2 17l139 424q12 39 39 39h164q18 0 18 -21q0 -14 -2 -18l-104 -424q-8 -39 -41 -39h-193q-22 -1 -22 22z" />
<glyph unicode="&#x201d;" horiz-adv-x="851" d="M39 1077q0 14 2 19l104 424q8 39 41 39h193q23 0 22 -23q0 -12 -2 -16l-139 -424q-12 -39 -39 -39h-164q-18 0 -18 20zM451 1077q0 14 2 19l104 424q8 39 41 39h193q23 0 22 -23q0 -12 -2 -16l-139 -424q-12 -39 -39 -39h-164q-18 0 -18 20z" />
<glyph unicode="&#x201e;" horiz-adv-x="851" d="M23 -170q0 10 2 12l125 430q12 39 40 39h197q10 0 21 -6q8 -6 8 -18q-2 -4 -4 -15l-179 -430q-10 -23 -16 -32q-6 -8 -22 -9h-142q-30 0 -30 29zM453 -170q0 10 2 12l125 430q12 39 41 39h196q29 0 29 -24q-2 -4 -4 -15l-178 -430q-6 -20 -14.5 -30.5t-24.5 -10.5h-142 q-30 0 -30 29z" />
<glyph unicode="&#x2022;" horiz-adv-x="854" d="M92 752q0 70 27 129q31 68 71 108q49 49 107 72q68 27 131 26q72 0 131 -26q61 -27 109 -72q43 -41 69 -106q27 -68 27 -131q0 -92 -45 -168q-47 -78 -121 -123q-76 -45 -170 -45q-139 0 -237.5 98.5t-98.5 237.5z" />
<glyph unicode="&#x2026;" horiz-adv-x="1439" d="M111 41v231q0 14 12 26.5t29 12.5h184q16 0 28.5 -12t12.5 -27v-231q0 -16 -12.5 -28.5t-28.5 -12.5h-184q-16 0 -28.5 12.5t-12.5 28.5zM588 41v231q0 14 12 26.5t29 12.5h184q14 0 29 -10q12 -10 12 -29v-231q0 -16 -12.5 -28.5t-28.5 -12.5h-184q-16 0 -28.5 12.5 t-12.5 28.5zM1065 41v231q0 14 12.5 26.5t28.5 12.5h184q14 0 29 -10q12 -10 12 -29v-231q0 -16 -12 -28.5t-29 -12.5h-184q-16 0 -28.5 12.5t-12.5 28.5z" />
<glyph unicode="&#x202f;" horiz-adv-x="407" />
<glyph unicode="&#x2039;" horiz-adv-x="821" d="M82 577.5q0 30.5 16 51.5l332 364q14 14 26.5 20.5t35.5 6.5h194q31 0 31 -23q0 -8 -6 -14l-371 -405l371 -406q6 -6 6 -14q0 -23 -31 -23h-194q-18 0 -31 4q-8 2 -31 23l-332 364q-16 21 -16 51.5z" />
<glyph unicode="&#x203a;" horiz-adv-x="821" d="M106 158q0 8 7 14l370 406l-370 405q-6 6 -7 14q0 23 31 23h195q23 0 35 -6t26 -21l332 -364q16 -20 16 -51t-16 -52l-332 -364q-14 -14 -26 -23q-6 -4 -35 -4h-195q-31 0 -31 23z" />
<glyph unicode="&#x205f;" horiz-adv-x="509" />
<glyph unicode="&#x20ac;" d="M104 555v98q0 16 12.5 28.5t28.5 12.5h74v140h-74q-16 0 -28.5 12t-12.5 28v99q0 16 12.5 28.5t28.5 12.5h78q20 164 76 256q63 106 150 162q86 57 184 81q96 25 192 25q178 0 297 -33q45 -12 45 -47v-137q0 -43 -39 -43h-6q-203 16 -293 16q-123 0 -208 -67 q-84 -66 -109 -213h504q14 0 22 -8q10 -10 11 -23v-4l-1 -2q-1 -2 -1 -4l-27 -99q-12 -41 -41 -40h-473v-140h422q16 0 24.5 -8t8.5 -22v-5l-2 -2q-1 -2 -1 -4l-26 -98q-12 -41 -41 -41h-381q20 -145 108 -217q84 -70 209 -70q70 0 158 6q31 2 76 6.5t61 4.5h6q39 0 39 -43 v-138q0 -33 -45 -47q-127 -33 -299 -32q-219 0 -395 125q-180 127 -205 405h-78q-16 0 -28.5 12.5t-12.5 28.5z" />
<glyph unicode="&#x2122;" horiz-adv-x="1665" d="M51 1403v90q0 12 8.5 20.5t20.5 8.5h543q14 0 22 -8.5t8 -20.5v-90q0 -12 -10 -19q-12 -8 -20 -8h-181v-655q0 -10 -8 -19q-10 -10 -20 -10h-121q-10 0 -21 10q-8 8 -8 19v655h-184q-10 0 -19 8q-10 11 -10 19zM721 713v739q0 29 10 43q8 10 37 14q207 20 383 21 q170 0 254 -21q90 -23 133 -90q45 -72 45 -205v-501q0 -20 -20 -21h-131q-20 0 -21 21v501q0 68 -10 103q-8 31 -45 43q-29 10 -117 10v-657q0 -8 -6 -14.5t-16 -6.5h-132q-20 0 -20 21v657q-88 0 -172 -8v-649q0 -20 -21 -21h-129q-22 1 -22 21z" />
<glyph unicode="&#x2219;" horiz-adv-x="528" d="M397 674q0 -16 -12 -28.5t-29 -12.5h-182q-16 0 -28.5 12t-12.5 29v231q0 14 12.5 26.5t28.5 12.5h182q14 0 29 -10q12 -8 12 -29v-231z" />
<glyph unicode="&#xf001;" horiz-adv-x="1345" d="M31 1020v94q0 16 12 28.5t29 12.5h182v100q0 125 43 199t119 100q80 29 192 29q41 0 123 -16q37 -10 37 -33v-121q0 -35 -31 -35h-92q-49 0 -75.5 -10t-34.5 -37q-10 -31 -11 -76v-100h197q16 0 28.5 -12.5t12.5 -28.5v-123q0 -16 -12 -28q-10 -10 -29 -11h-197v-909 q0 -18 -12 -30.5t-29 -12.5h-186q-18 0 -30.5 12.5t-12.5 30.5v909l-182 29q-41 6 -41 39zM930 1350v180q0 14 14 29q12 12 29 12h198q16 0 28.5 -12.5t12.5 -28.5v-180q0 -16 -12 -28.5t-29 -12.5h-198q-16 0 -29 12q-14 15 -14 29zM936 43v1071q0 16 12.5 28.5t28.5 12.5 h188q18 0 29 -10q12 -12 12 -31v-1071q0 -18 -12 -30.5t-29 -12.5h-188q-14 0 -29 14q-12 13 -12 29z" />
<glyph unicode="&#xfb01;" horiz-adv-x="1345" d="M31 1020v94q0 16 12 28.5t29 12.5h182v100q0 125 43 199t119 100q80 29 192 29q41 0 123 -16q37 -10 37 -33v-121q0 -35 -31 -35h-92q-49 0 -75.5 -10t-34.5 -37q-10 -31 -11 -76v-100h197q16 0 28.5 -12.5t12.5 -28.5v-123q0 -16 -12 -28q-10 -10 -29 -11h-197v-909 q0 -18 -12 -30.5t-29 -12.5h-186q-18 0 -30.5 12.5t-12.5 30.5v909l-182 29q-41 6 -41 39zM930 1350v180q0 14 14 29q12 12 29 12h198q16 0 28.5 -12.5t12.5 -28.5v-180q0 -16 -12 -28.5t-29 -12.5h-198q-16 0 -29 12q-14 15 -14 29zM936 43v1071q0 16 12.5 28.5t28.5 12.5 h188q18 0 29 -10q12 -12 12 -31v-1071q0 -18 -12 -30.5t-29 -12.5h-188q-14 0 -29 14q-12 13 -12 29z" />
<glyph unicode="&#xf002;" horiz-adv-x="1349" d="M31 1020v94q0 16 12 28.5t29 12.5h182v100q0 125 43 199t119 100q80 29 192 29q41 0 123 -16q37 -10 37 -33v-121q0 -35 -31 -35h-92q-49 0 -75.5 -10t-34.5 -37q-10 -31 -11 -76v-100h197q16 0 28.5 -12.5t12.5 -28.5v-123q0 -16 -12 -28q-10 -10 -29 -11h-197v-909 q0 -18 -12 -30.5t-29 -12.5h-186q-18 0 -30.5 12.5t-12.5 30.5v909l-182 29q-41 6 -41 39zM936 43v1475q0 16 12.5 28.5t28.5 12.5h190q14 0 26.5 -12.5t12.5 -28.5v-1475q0 -18 -12 -30.5t-27 -12.5h-190q-14 0 -29 14q-12 13 -12 29z" />
<glyph unicode="&#xfb02;" horiz-adv-x="1349" d="M31 1020v94q0 16 12 28.5t29 12.5h182v100q0 125 43 199t119 100q80 29 192 29q41 0 123 -16q37 -10 37 -33v-121q0 -35 -31 -35h-92q-49 0 -75.5 -10t-34.5 -37q-10 -31 -11 -76v-100h197q16 0 28.5 -12.5t12.5 -28.5v-123q0 -16 -12 -28q-10 -10 -29 -11h-197v-909 q0 -18 -12 -30.5t-29 -12.5h-186q-18 0 -30.5 12.5t-12.5 30.5v909l-182 29q-41 6 -41 39zM936 43v1475q0 16 12.5 28.5t28.5 12.5h190q14 0 26.5 -12.5t12.5 -28.5v-1475q0 -18 -12 -30.5t-27 -12.5h-190q-14 0 -29 14q-12 13 -12 29z" />
<glyph unicode="&#xfb03;" horiz-adv-x="2166" d="M1751 1350v180q0 14 14 29q12 12 29 12h199q16 0 28.5 -12.5t12.5 -28.5v-180q0 -16 -12.5 -28.5t-28.5 -12.5h-199q-16 0 -29 12q-14 15 -14 29zM1757 43v1071q0 16 12.5 28.5t28.5 12.5h189q16 0 28.5 -12.5t12.5 -28.5v-1071q0 -16 -13 -29q-14 -14 -28 -14h-189 q-14 0 -28 14q-13 13 -13 29zM840 1020v94q0 16 12 28.5t29 12.5h182v100q0 125 43 199t119 100q80 29 192 29q41 0 123 -16q37 -10 37 -33v-121q0 -35 -31 -35h-92q-49 0 -75.5 -10t-34.5 -37q-10 -31 -11 -76v-100h197q16 0 28.5 -12.5t12.5 -28.5v-123q0 -16 -12 -28 q-10 -10 -29 -11h-197v-909q0 -18 -12 -30.5t-29 -12.5h-186q-18 0 -30.5 12.5t-12.5 30.5v909l-182 29q-41 6 -41 39zM31 1020v94q0 16 12 28.5t29 12.5h182v100q0 125 43 199t119 100q80 29 192 29q41 0 123 -16q37 -10 37 -33v-121q0 -35 -31 -35h-92q-49 0 -75.5 -10 t-34.5 -37q-10 -31 -11 -76v-100h197q16 0 28.5 -12.5t12.5 -28.5v-123q0 -16 -12 -28q-10 -10 -29 -11h-197v-909q0 -18 -12 -30.5t-29 -12.5h-186q-18 0 -30.5 12.5t-12.5 30.5v909l-182 29q-41 6 -41 39z" />
<glyph unicode="&#xfb04;" horiz-adv-x="2174" d="M1761 43v1475q0 16 12.5 28.5t28.5 12.5h191q16 0 28 -13q10 -10 11 -28v-1475q0 -20 -11 -31q-12 -12 -28 -12h-191q-14 0 -28 14q-13 13 -13 29zM840 1020v94q0 16 12 28.5t29 12.5h182v100q0 125 43 199t119 100q80 29 192 29q41 0 123 -16q37 -10 37 -33v-121 q0 -35 -31 -35h-92q-49 0 -75.5 -10t-34.5 -37q-10 -31 -11 -76v-100h197q16 0 28.5 -12.5t12.5 -28.5v-123q0 -16 -12 -28q-10 -10 -29 -11h-197v-909q0 -18 -12 -30.5t-29 -12.5h-186q-18 0 -30.5 12.5t-12.5 30.5v909l-182 29q-41 6 -41 39zM31 1020v94q0 16 12 28.5 t29 12.5h182v100q0 125 43 199t119 100q80 29 192 29q41 0 123 -16q37 -10 37 -33v-121q0 -35 -31 -35h-92q-49 0 -75.5 -10t-34.5 -37q-10 -31 -11 -76v-100h197q16 0 28.5 -12.5t12.5 -28.5v-123q0 -16 -12 -28q-10 -10 -29 -11h-197v-909q0 -18 -12 -30.5t-29 -12.5h-186 q-18 0 -30.5 12.5t-12.5 30.5v909l-182 29q-41 6 -41 39z" />
</font>
</defs>
</svg>
