<?xml version="1.0" standalone="no"?>
<!DOCTYPE svg PUBLIC "-//W3C//DTD SVG 1.1//EN" "http://www.w3.org/Graphics/SVG/1.1/DTD/svg11.dtd" >
<svg xmlns="http://www.w3.org/2000/svg">
<metadata>
This is a custom SVG webfont generated by Font Squirrel.
Copyright   : Digitized data C 2004 Agfa Monotype Corporation Neo SansTM is a trademark of Agfa Monotype Corporation and may be registered in certain jurisdictions  All rights reserved Neo Sans is designed by Sebastian Lester
Designer    : Sebastian Lester
Foundry     : Agfa Monotype Corporation
Foundry URL : httpwwwagfamonotypecom
</metadata>
<defs>
<font id="webfontcZJCgeId" horiz-adv-x="1236" >
<font-face units-per-em="2048" ascent="1638" descent="-410" />
<missing-glyph horiz-adv-x="505" />
<glyph unicode=" "  horiz-adv-x="505" />
<glyph unicode="&#x09;" horiz-adv-x="505" />
<glyph unicode="&#xa0;" horiz-adv-x="505" />
<glyph unicode="!" horiz-adv-x="442" d="M131 1501q0 16 12 29q10 10 29 10h102q18 0 29 -10q12 -12 12 -29l-16 -1065q0 -16 -12 -28q-10 -10 -27 -11h-74q-18 0 -28 11q-12 12 -13 28zM135 39v192q0 16 10 27q12 12 29 12h98q12 0 27 -10q12 -10 12 -29v-192q0 -16 -12 -29q-10 -10 -27 -10h-98 q-14 0 -26.5 12.5t-12.5 26.5z" />
<glyph unicode="&#x22;" horiz-adv-x="739" d="M59 1096q0 14 2 18l95 387q8 39 41 39h114q23 0 23 -22q0 -12 -2 -17l-119 -387q-12 -39 -39 -39h-96q-19 1 -19 21zM408 1096q0 14 2 18l94 387q8 39 41 39h114q23 0 23 -22q0 -12 -2 -17l-119 -387q-12 -39 -39 -39h-96q-18 1 -18 21z" />
<glyph unicode="#" horiz-adv-x="1351" d="M94 461v4l4 43q4 20 13 29q10 10 28 10h191l37 414h-193q-15 0 -24 12q-8 10 -9 26v5l4 45q4 23 13 28q14 10 28 10h191l35 396q0 14 12 26.5t27 12.5h92q12 0 22 -11q8 -8 8 -24v-4l-34 -396h317l35 396q2 39 39 39h90q31 0 31 -35v-4l-35 -396h201q15 0 24 -12 q8 -10 8 -26v-5l-4 -45q-4 -39 -41 -38h-198l-37 -414h200q16 0 24.5 -10.5t8.5 -28.5v-4l-4 -43q-2 -39 -41 -39h-201l-32 -383q-2 -39 -37 -39h-90q-33 0 -33 35v4l33 383h-318l-33 -383q-2 -39 -36 -39h-93q-14 0 -22 12q-10 14 -10 23v4l32 383h-190q-15 0 -25 12 q-8 11 -8 27zM492 547h317l37 414h-318z" />
<glyph unicode="$" d="M160 1174q0 106 43 180q43 76 125 119q78 41 200 57v176q0 16 12.5 28.5t28.5 12.5h97q16 0 28.5 -12.5t12.5 -28.5v-170q178 -6 299 -27q35 -6 34 -34v-89q0 -14 -10 -24q-8 -8 -24 -8h-5q-270 18 -352 18q-109 0 -174 -18q-63 -18 -96 -64q-31 -43 -31 -116 q0 -68 49 -121q41 -45 174 -127l189 -113q174 -104 247.5 -198.5t73.5 -219.5q0 -154 -84 -262q-86 -113 -290 -139v-193q0 -16 -12.5 -28.5t-28.5 -12.5h-97q-16 0 -28.5 12.5t-12.5 28.5v185q-141 2 -292 28q-23 2 -31 10.5t-8 26.5v84q0 33 34 33h7q212 -18 337 -18 q172 0 242 63t70 182q0 49 -22.5 90t-73.5 84q-51 41 -150 101l-199 121q-88 53 -157 116q-63 57 -95 121q-30 66 -30 146z" />
<glyph unicode="%" horiz-adv-x="1624" d="M92 1016v190q0 168 72 248q74 82 205 82q133 0 202 -82q72 -84 72 -248v-190q0 -164 -71.5 -248t-202.5 -84q-86 0 -147.5 37t-96.5 113q-33 71 -33 182zM219 1016q0 -215 150 -215q147 0 147 215v190q0 215 -147 215q-150 0 -150 -215v-190zM299 8q0 14 8 25l856 1450 q4 6 10.5 14t9.5 12t5 7q6 6 22 6h105q16 0 16 -13q0 -2 -10 -26l-856 -1450q-16 -27 -23 -33q-8 -8 -22 -8h-101q-20 0 -20 16zM983 317v191q0 115 33 186q33 74 96 111q57 35 148 35q88 0 149 -37q63 -37 92 -109q33 -78 33 -186v-191q0 -164 -71.5 -247.5t-202.5 -83.5 q-86 0 -148 37q-63 37 -96 110q-33 71 -33 184zM1110 317q0 -215 150 -215q147 0 147 215v191q0 215 -147 215q-150 0 -150 -215v-191z" />
<glyph unicode="&#x26;" horiz-adv-x="1388" d="M109 360v17q0 123 69 215q68 90 225 188l-14 17q-92 104 -137 176q-47 76 -61.5 121t-14.5 100v16q0 158 115 242t315 84q115 0 207 -37t148 -110q53 -72 53 -179v-16q0 -109 -63.5 -192.5t-250.5 -213.5l-57 -38l371 -400q45 84 61 164q18 92 19 197v28q0 33 32 33h88 q35 0 35 -33v-28q0 -135 -32 -254q-35 -127 -97 -217l183 -195q10 -10 10 -22q0 -23 -23 -23h-141q-18 0 -33 14l-102 111q-164 -139 -404 -139q-212 0 -356 92q-145 92 -145 282zM297 360q0 -119 88 -176t225 -57q184 0 305 104l-407 437q-127 -80 -166 -136 q-45 -63 -45 -155v-17zM344 1194q0 -49 10 -80q12 -37 47 -86q37 -52 117 -141l21 -23l69 43q104 63 152 105q49 43 67 84q16 35 17 98v16q0 96 -62 144q-59 45 -176 45q-121 0 -192 -45q-70 -45 -70 -144v-16z" />
<glyph unicode="'" horiz-adv-x="391" d="M59 1096q0 14 2 18l95 387q8 39 41 39h114q23 0 23 -22q0 -12 -2 -17l-119 -387q-12 -39 -39 -39h-96q-19 1 -19 21z" />
<glyph unicode="(" horiz-adv-x="624" d="M123 543v26q0 276 76 529q78 256 211 420q18 23 47 22h96q20 0 20 -16q0 -12 -6 -21q-68 -101 -116 -209q-45 -98 -82 -223q-33 -113 -50 -244q-16 -137 -16 -258v-26q0 -547 264 -934q6 -10 6 -21q0 -16 -20 -16h-96q-14 0 -27 4q-8 2 -20 18q-133 164 -211 420 q-76 253 -76 529z" />
<glyph unicode=")" horiz-adv-x="624" d="M80 -412q0 10 6 21q264 387 264 934v26q0 143 -18 269q-23 150 -49 241q-33 113 -84 224q-53 115 -113 200q-6 8 -6 21q0 16 20 16h97q29 0 47 -22q90 -113 153 -261q66 -152 99 -327q35 -184 34 -361v-26q0 -125 -20 -275q-18 -137 -55 -256q-41 -135 -90 -229 q-55 -106 -121 -189q-12 -16 -21 -18q-12 -4 -26 -4h-97q-20 0 -20 16z" />
<glyph unicode="*" horiz-adv-x="950" d="M96 1225l1 2q1 2 1 4v4l19 59q6 20 26 21q2 0 19 -4l254 -84v268q0 39 30 39h62q31 0 31 -39l-2 -268l256 84q16 4 18 4q20 0 27 -21l18 -59q2 -2 2 -10q0 -20 -29 -31l-256 -80l158 -217q10 -14 10 -27q0 -14 -12 -22l-49 -37q-8 -6 -16 -6q-18 0 -31 20l-156 217 l-155 -217q-14 -20 -31 -20q-4 0 -17 6l-51 37q-12 8 -12 22q0 12 10 27l160 217l-254 80q-31 13 -31 31z" />
<glyph unicode="+" d="M154 760v82q0 33 41 32h350v353q0 41 33 41h81q33 0 33 -41v-353h352q41 0 41 -32v-82q0 -33 -41 -33h-352v-350q0 -41 -33 -41h-81q-33 0 -33 41v350h-350q-41 0 -41 33z" />
<glyph unicode="," horiz-adv-x="436" d="M41 -176q0 12 2 14l117 387q12 39 41 39h118q27 0 27 -22l-4 -17l-154 -387l-16 -31q-6 -8 -22 -8h-84q-25 0 -25 25z" />
<glyph unicode="-" horiz-adv-x="681" d="M98 559v80q0 16 10.5 26.5t28.5 10.5h408q18 0 28.5 -10.5t10.5 -26.5v-80q0 -18 -10.5 -26.5t-28.5 -8.5h-408q-39 0 -39 35z" />
<glyph unicode="." horiz-adv-x="436" d="M131 43v190q0 16 10 27q12 12 29 12h98q12 0 27 -10q12 -8 12 -29v-190q0 -16 -12 -28.5t-27 -12.5h-98q-14 0 -26.5 12.5t-12.5 28.5z" />
<glyph unicode="/" horiz-adv-x="724" d="M47 29q0 10 2 12l465 1440q12 41 35 41h104q12 0 20.5 -8.5t8.5 -20.5q0 -10 -2 -12l-463 -1440q-12 -41 -37 -41h-104q-12 0 -20.5 8.5t-8.5 20.5z" />
<glyph unicode="0" d="M117 623v276q0 332 131 483q133 154 373 154q244 0 372.5 -153.5t128.5 -483.5v-276q0 -330 -129 -483.5t-372 -153.5q-117 0 -209 37q-94 39 -158 112q-68 80 -102 199q-35 117 -35 289zM305 623q0 -168 37 -275q37 -104 109 -155q70 -49 170 -49.5t170 49.5 q72 51 108 155q37 106 37 275v276q0 166 -37 275q-37 104 -108 155q-70 49 -170.5 49t-169.5 -49q-72 -51 -109 -155q-37 -109 -37 -275v-276z" />
<glyph unicode="1" d="M268 1231v104q0 14 21 27l309 147q22 12 43 13h84q16 0 27 -11q12 -12 12 -28v-1442q0 -14 -10 -29q-8 -12 -27 -12h-113q-16 0 -26 12q-10 14 -10 29v1288l-265 -115q-14 -6 -26 -6q-19 0 -19 23z" />
<glyph unicode="2" d="M164 39v166q0 82 18 155q18 76 56 140q35 59 96 125q59 63 143 118l207 140q131 88 170 141q41 57 41 145q0 113 -72 162q-70 49 -235 49q-147 0 -363 -30h-8q-33 0 -33 36v72q0 29 39 37q164 41 365 41q250 0 368 -88q121 -90 121 -279q0 -119 -59 -206 q-59 -86 -207 -189l-197 -133q-109 -72 -174 -141q-66 -68 -88 -135q-25 -70 -24 -160v-43h690q14 0 29 -10q12 -9 12 -25v-90q0 -16 -12 -27q-14 -10 -29 -10h-813q-16 0 -28.5 12.5t-12.5 26.5z" />
<glyph unicode="3" d="M172 66v69q0 35 35 35h6q233 -29 344 -29q168 0 244 67.5t76 215.5v43q0 59 -23 117q-20 55 -76 94q-53 39 -141 39h-373q-14 0 -28 10q-10 8 -11 27v71q0 18 10.5 28.5t28.5 10.5h373q96 0 145 35q52 37 74 92q20 53 21 117v29q0 129 -74 186q-72 57 -246 57 q-20 0 -106 -4q-14 0 -119 -12q-12 -2 -53 -7t-66 -7h-6q-35 0 -35 34v72q0 12 12 25q12 10 27 14q195 41 346.5 41t271.5 -39q115 -37 177 -127q61 -89 61 -233v-29q0 -55 -12.5 -100t-36.5 -88q-18 -33 -64 -74q-43 -39 -82 -58q101 -49 148 -135q47 -88 47 -186v-43 q0 -150 -63 -246q-66 -100 -179 -145q-117 -47 -268 -47q-166 0 -346 41q-39 6 -39 39z" />
<glyph unicode="4" d="M80 485v78q0 43 24 76l607 850q20 33 59 33h121q53 0 53 -45v-916h178q14 0 29 -10q10 -8 10 -27v-82q0 -37 -39 -36h-178v-365q0 -14 -10 -29q-9 -12 -25 -12h-118q-35 0 -35 41v365h-592q-47 0 -65.5 18t-18.5 61zM252 573q0 -12 16 -12h490v701q0 12 -8 12h-2 q-6 0 -17 -12l-473 -672q-6 -9 -6 -17z" />
<glyph unicode="5" d="M160 63v76q0 31 30 31h11q168 -29 358 -29q334 0 334 322v31q0 152 -98.5 213t-329.5 61h-246q-14 0 -22 10q-10 14 -11 25v2l58 682q4 16 14 24q14 10 27 11h704q20 0 30.5 -8.5t10.5 -26.5v-90q0 -33 -41 -33h-588l-32 -442h96q205 0 336 -39q133 -39 206.5 -135.5 t73.5 -253.5v-31q0 -151 -61 -258q-61 -106 -178 -162q-121 -57 -283 -57q-211 0 -360 37q-39 7 -39 40z" />
<glyph unicode="6" d="M123 567v359q0 215 59 352q58 135 178 197q119 61 297 61q195 0 353 -35q23 -6 35 -14t12 -25v-80q0 -37 -37 -36l-2 1q-2 1 -4 1h-6q-180 33 -351 32q-150 0 -225 -55q-78 -55 -102 -151q-23 -88 -23 -248v-23q186 41 309 41q139 0 256 -41q111 -39 179 -135 q68 -95 67 -252v-12q0 -164 -55 -281q-53 -113 -168 -176q-111 -61 -277 -61q-123 0 -208 34q-94 37 -156 109q-63 74 -98 182q-33 104 -33 256zM307 567q0 -168 35 -258q35 -92 104 -133q66 -39 172 -39q96 0 170 35q72 35 109 117q37 83 37 215v12q0 102 -43 166 q-41 61 -115 90q-68 27 -160 27q-88 0 -161 -11q-96 -14 -148 -26v-195z" />
<glyph unicode="7" d="M150 1397v86q0 14 12 26.5t28 12.5h748q82 0 117 -35q37 -37 37 -94q0 -51 -27 -107l-590 -1255q-16 -31 -45 -31h-123q-31 0 -31 31q0 6 7 22l618 1286q2 2 2 9q0 14 -14 14h-699q-40 0 -40 35z" />
<glyph unicode="8" d="M113 424v39q0 98 53 188q55 94 145 144q-68 35 -108 82q-43 49 -64 108q-23 63 -22 129v19q0 139 63 227q66 90 174 133q111 43 256 43h21q145 0 256 -43q109 -43 174 -133q63 -88 63 -227v-19q0 -66 -22 -129q-20 -59 -64 -108q-41 -47 -108 -82q94 -53 145 -142 q53 -90 53 -190v-39q0 -141 -65 -242q-63 -96 -180 -147q-113 -49 -252 -49h-21q-139 0 -252 49q-117 51 -180 147q-65 101 -65 242zM297 1114q0 -106 63.5 -176t196.5 -70h127q131 0 195 70q66 72 65 176v19q0 121 -80 186q-82 66 -233 65h-21q-150 0 -231.5 -65.5 t-81.5 -185.5v-19zM299 424q0 -135 80 -209t231 -74h21q150 0 229 74q82 76 82 209v39q0 66 -27 121q-29 61 -84 98q-57 39 -147 39h-127q-66 0 -117 -23q-49 -22 -80 -61q-33 -43 -47 -84q-14 -43 -14 -90v-39z" />
<glyph unicode="9" d="M102 1006v12q0 119 31 217q31 96 94 164q68 70 158 102q98 35 217 35q115 0 209 -35q88 -33 155.5 -106.5t100.5 -182.5q33 -106 33 -258v-358q0 -170 -33 -281q-33 -113 -102 -188q-68 -74 -166 -107q-104 -35 -234 -34q-100 0 -198 10q-89 9 -154 24q-49 12 -49 39v80 q0 37 37 37h6q2 0 3 -1l3 -1q166 -33 350 -33q151 0 228 56q76 53 100 151q25 94 24 248v22q-23 -4 -59.5 -11t-44.5 -9q-35 -6 -94 -14q-49 -6 -111 -6q-102 0 -196 22q-88 20 -158 70q-68 47 -111 135q-39 80 -39 201zM287 1006q0 -152 90 -217.5t227 -65.5q55 0 154 10 q78 8 155 27l2 194q0 240 -77 336q-76 94 -234 94q-96 0 -170 -34q-72 -35 -108 -117q-39 -88 -39 -215v-12z" />
<glyph unicode=":" horiz-adv-x="448" d="M135 39v192q0 14 12.5 26.5t28.5 12.5h96q16 0 28.5 -12t12.5 -27v-192q0 -16 -12 -29q-10 -10 -29 -10h-96q-18 0 -29 10q-12 13 -12 29zM135 895v190q0 16 12.5 28.5t28.5 12.5h96q16 0 28.5 -12t12.5 -29v-190q0 -16 -12 -29q-10 -10 -29 -10h-96q-18 0 -29 10 q-12 13 -12 29z" />
<glyph unicode=";" horiz-adv-x="448" d="M18 -178q0 12 2 14l117 387q12 39 41 39h117q27 0 27 -22q0 -6 -5 -17l-153 -387q-10 -23 -17 -33q-6 -8 -22 -8h-82q-25 0 -25 27zM135 895v190q0 18 10 29q12 12 29 12h100q14 0 26.5 -12t12.5 -29v-190q0 -16 -12 -29q-10 -10 -27 -10h-100q-14 0 -26.5 12.5 t-12.5 26.5z" />
<glyph unicode="&#x3c;" d="M250 801q0 39 37 69l493 418q29 27 64 27h119q25 0 24 -21q0 -16 -20 -34l-537 -459l537 -459q20 -18 20 -35q0 -20 -24 -20h-119q-27 0 -64 26l-493 418q-37 31 -37 70z" />
<glyph unicode="=" d="M184 535v81q0 33 41 33h789q41 0 41 -33v-81q0 -33 -41 -33h-789q-41 0 -41 33zM184 987v82q0 33 41 33h789q41 0 41 -33v-82q0 -15 -13 -24q-10 -8 -28 -9h-789q-18 0 -28 9q-13 9 -13 24z" />
<glyph unicode="&#x3e;" d="M252 307q0 16 20 35l537 459l-537 459q-20 18 -20 34q0 20 24 21h119q35 0 64 -27l493 -418q37 -31 37 -69.5t-37 -69.5l-493 -418q-33 -27 -64 -26h-119q-24 0 -24 20z" />
<glyph unicode="?" horiz-adv-x="911" d="M68 1391v71q0 18 6 30.5t28 16.5q127 27 279 27q193 0 301.5 -71.5t108.5 -237.5v-25q0 -53 -15 -96q-16 -49 -55 -107q-40 -58 -117 -147l-92 -104q-70 -80 -88 -111q-20 -35 -21 -100v-101q0 -16 -12 -28q-10 -10 -29 -11h-90q-18 0 -28.5 10.5t-10.5 28.5v101 q0 102 27 161.5t109 147.5l94 104q80 90 102 137q25 51 25 115v25q0 80 -51 114q-47 33 -158 33t-277 -18h-6q-30 0 -30 35zM227 39v190q0 16 12.5 28.5t28.5 12.5h99q16 0 28 -12q10 -10 11 -29v-190q0 -18 -10.5 -28.5t-28.5 -10.5h-99q-18 0 -28 10q-13 13 -13 29z" />
<glyph unicode="@" horiz-adv-x="1570" d="M84 330q0 49 2 63l31 320q18 188 110 329.5t256 221.5q163 80 375 79q150 0 272 -47q113 -43 199 -133q82 -86 121 -188q41 -111 41 -225q0 -133 -21 -224q-20 -92 -65 -166q-43 -70 -107 -118q-96 -72 -229 -101q-139 -31 -324 -30q-150 0 -241 75q-88 74 -88 209 q0 29 2 37l22 240q18 160 113 241q96 84 260 84q115 0 262 -30q16 -2 33 -15q10 -8 10 -28v-9l-61 -641q123 18 186 80q70 68 90 158q23 102 23 238q0 100 -31 186t-96 151q-63 63 -158 101q-96 37 -219 37q-268 0 -422 -140q-156 -141 -180 -380l-31 -312q-4 -57 -4 -65 q0 -84 33 -170q31 -78 96 -142q59 -57 162 -92q96 -33 225 -33q123 0 295 15h2q12 0 14 -6l5 -9v-65q0 -27 -33 -29q-152 -16 -285 -16q-147 0 -264 39q-123 41 -207 112q-86 74 -129 177q-45 106 -45 221zM586 399q0 -72 41 -106.5t127 -34.5h43q51 0 88 4l51 576 q-86 12 -139 12q-90 0 -133 -43q-41 -41 -54 -139l-22 -234q-2 -8 -2 -35z" />
<glyph unicode="A" horiz-adv-x="1294" d="M59 32.5q0 12.5 2 14.5l379 1333q25 88 82 121q59 35 127 35q37 0 84 -14q39 -12 74 -47q29 -29 49 -93l379 -1335q2 -2 2 -14q0 -33 -35 -33h-121q-29 0 -34 31l-134 471h-530l-131 -471q-4 -14 -14.5 -22.5t-22.5 -8.5h-121q-14 0 -24.5 10t-10.5 22.5zM422 664h452 l-186 673q-8 37 -39 37t-41 -37z" />
<glyph unicode="B" horiz-adv-x="1261" d="M160 80v1364q0 70 65 76q143 16 326 16q178 0 311 -37q131 -37 211 -123q78 -84 78 -235v-33q0 -113 -57 -197q-57 -86 -162 -125q102 -33 166 -124q61 -88 61 -207v-35q0 -434 -598 -434q-217 0 -334 18q-37 6 -51 21q-16 16 -16 55zM348 152q6 0 104.5 -4.5t108.5 -4.5 q135 0 225.5 25t137.5 84q49 61 49 168v35q0 119 -70 188q-72 72 -239 72h-316v-563zM348 864h316q301 0 301 244v33q0 137 -103 186q-109 51 -311 51h-62q-16 0 -59 -2q-33 0 -82 -4v-508z" />
<glyph unicode="C" horiz-adv-x="1114" d="M123 618v285q0 240 78 377q78 139 200 199q117 57 263 57q154 0 344 -33q33 -4 32 -26v-105q0 -23 -24 -22h-6q-221 18 -344 18q-166 0 -260 -108q-96 -113 -97 -357v-285q0 -242 97 -354q94 -111 260 -110q129 0 338 16h8q33 0 32 -33v-84q0 -35 -40 -41 q-154 -27 -340 -26q-94 0 -197 32q-94 31 -172 103q-80 74 -125 196q-47 129 -47 301z" />
<glyph unicode="D" horiz-adv-x="1312" d="M160 57v1407q0 43 43 52q57 8 86 10q45 4 125 6q111 4 161 4q194 0 332 -68q141 -68 213 -211q76 -147 76 -358v-276q0 -322 -164 -479.5t-457 -157.5q-51 0 -161 4q-80 2 -125 6q-29 2 -86 10q-43 6 -43 51zM348 150q43 -4 227 -5q201 0 320 109q115 106 115 369v276 q0 174 -56 283q-55 106 -151 149q-100 45 -228 45q-126 0 -227 -6v-1220z" />
<glyph unicode="E" horiz-adv-x="1126" d="M160 367v788q0 201 108.5 291t327.5 90h145q23 0 71 -3t69 -3q80 -2 114 -6q8 0 14.5 -8.5t6.5 -20.5v-102q0 -25 -23 -25h-395q-109 0 -162 -20.5t-71 -65.5q-18 -43 -19 -127v-285h629q16 0 28.5 -12t12.5 -29v-77q0 -16 -12.5 -28.5t-28.5 -12.5h-629v-344 q0 -84 19 -127q18 -45 71 -65.5t162 -20.5h395q23 0 23 -25v-104q0 -27 -21 -29q-106 -10 -399 -10q-219 0 -327.5 90t-108.5 291z" />
<glyph unicode="F" horiz-adv-x="1126" d="M160 41v1114q0 201 108.5 291t327.5 90h145q23 0 71 -3t69 -3q80 -2 114 -6q8 0 14.5 -8.5t6.5 -20.5v-102q0 -25 -23 -25h-395q-109 0 -162 -20.5t-71 -65.5q-18 -43 -19 -127v-285h629q16 0 28.5 -12t12.5 -29v-77q0 -16 -12.5 -28.5t-28.5 -12.5h-629v-670 q0 -16 -12 -28.5t-29 -12.5h-104q-16 0 -28.5 12.5t-12.5 28.5z" />
<glyph unicode="G" horiz-adv-x="1251" d="M119 623v274q0 176 47 305q45 125 125 199t176 104q94 31 201 31q207 0 389 -29q35 -4 35 -30v-103q0 -20 -27 -20h-8q-158 14 -389 14q-104 0 -184.5 -43t-129.5 -147.5t-49 -280.5v-274q0 -164 45 -267q47 -106 123 -155t176 -49q111 0 258 12v586q0 18 11 28 q12 12 26 13h111q14 0 26.5 -12.5t12.5 -28.5v-689q0 -18 -11 -28q-14 -14 -26 -17q-98 -14 -183 -22q-92 -8 -225 -8q-137 0 -258 65.5t-196 206.5q-76 144 -76 365z" />
<glyph unicode="H" horiz-adv-x="1392" d="M160 41v1440q0 16 12 28.5t29 12.5h104q16 0 28.5 -12.5t12.5 -28.5v-594h701v594q0 16 12 28.5t28 12.5h105q16 0 28.5 -12.5t12.5 -28.5v-1440q0 -16 -12.5 -28.5t-28.5 -12.5h-105q-16 0 -28 12.5t-12 28.5v680h-701v-680q0 -16 -12 -28.5t-29 -12.5h-104 q-16 0 -28.5 12.5t-12.5 28.5z" />
<glyph unicode="I" horiz-adv-x="546" d="M180 41v1442q0 16 10 26q12 12 27 13h113q16 0 26.5 -10.5t10.5 -28.5v-1442q0 -14 -11 -29q-8 -12 -26 -12h-113q-12 0 -24.5 12.5t-12.5 28.5z" />
<glyph unicode="J" horiz-adv-x="524" d="M-72 -254q0 15 13 25q14 10 28 10h80q77 0 105 31q27 29 26 112v1559q0 14 12.5 26.5t26.5 12.5h109q14 0 26.5 -12.5t12.5 -26.5v-1559q0 -74 -19 -129q-18 -57 -55 -90q-39 -37 -100 -55q-57 -18 -144 -19q-27 0 -63 7q-29 4 -45 10q-12 6 -13 22v76z" />
<glyph unicode="K" horiz-adv-x="1241" d="M160 41v1442q0 16 12 28q10 10 27 11h108q12 0 27 -11q12 -8 12 -28v-662l590 682q18 18 41 19h147q29 0 29 -23q0 -12 -8 -20l-617 -697l617 -737q10 -10 10 -25q0 -20 -27 -20h-159q-27 0 -45 20l-578 703v-682q0 -14 -10 -29q-8 -12 -27 -12h-112q-16 0 -27 12 q-10 15 -10 29z" />
<glyph unicode="L" horiz-adv-x="1052" d="M160 367v1114q0 16 12 28.5t29 12.5h104q16 0 28.5 -12.5t12.5 -28.5v-1114q0 -84 19 -127q18 -45 71 -65.5t162 -20.5h395q23 0 23 -25v-96q0 -27 -21 -29q-37 -6 -161.5 -12t-237.5 -6q-129 0 -221 26q-98 29 -156 113q-59 88 -59 242z" />
<glyph unicode="M" horiz-adv-x="1558" d="M160 41v1421q0 25 18 43q16 16 41 17h133q49 0 66 -35l338 -703q10 -23 24.5 -22.5t24.5 22.5l338 703q16 35 65 35h133q14 0 29 -9q16 -10 23 -20q8 -14 8 -31v-1421q0 -16 -12.5 -28.5t-28.5 -12.5h-100q-16 0 -28.5 12.5t-12.5 28.5v1214q0 6 -2.5 6.5t-4.5 -4.5 l-292 -606q-14 -29 -37 -45q-20 -14 -56 -14h-94q-37 0 -55.5 12t-36.5 47l-293 606q-2 4 -4 4.5t-2 -6.5v-1214q0 -16 -12.5 -28.5t-28.5 -12.5h-100q-16 0 -28.5 12.5t-12.5 28.5z" />
<glyph unicode="N" horiz-adv-x="1392" d="M160 25v1439q0 25 16.5 41.5t42.5 16.5h113q41 0 55 -9q18 -10 29 -32l628 -1196l5 -6q2 0 2 6v1198q0 14 10 28q8 10 26 11h109q18 0 27 -11q10 -14 10 -28v-1424q0 -25 -16 -41q-18 -18 -43 -18h-127q-51 0 -66 33l-633 1202q-3 6 -6 6q-2 0 -2 -6v-1196q0 -12 -10 -27 q-10 -12 -27 -12h-106q-37 0 -37 25z" />
<glyph unicode="O" horiz-adv-x="1353" d="M123 629v264q0 160 41 287q39 121 115 202q74 80 176 117t223 37t223.5 -37t173.5 -115q76 -82 115 -200q41 -127 41 -291v-264q0 -170 -39 -289t-115 -201q-74 -80 -176 -116.5t-223 -36.5t-223 37q-106 39 -178 116.5t-113 202.5q-41 127 -41 287zM311 629 q0 -166 43 -273q41 -102 127 -153q84 -49 197 -49q365 0 364 475v264q0 117 -26 217q-25 94 -72 150q-45 55 -113 81q-66 27 -153 27q-367 0 -367 -475v-264z" />
<glyph unicode="P" horiz-adv-x="1212" d="M160 41v1427q0 45 49 52q152 16 340 16q573 0 573 -444v-27q0 -459 -573 -459q-57 0 -205 10v-575q0 -14 -10 -29q-10 -12 -27 -12h-110q-16 0 -27 12q-10 15 -10 29zM344 770q4 0 16.5 -1t20.5 -1t26.5 -1t28.5 -1t29.5 -1t32 -1t30 -1t21.5 -1q207 0 297 71.5t90 231.5 v27q0 152 -92 219t-295 67q-117 0 -205 -8v-600z" />
<glyph unicode="Q" horiz-adv-x="1353" d="M123 629v264q0 160 41 287q39 121 115 202q74 80 176 117t223 37t223.5 -37t173.5 -115q76 -82 115 -200q41 -127 41 -291v-264q0 -203 -57.5 -338t-163.5 -211q-100 -72 -244 -90v-88q0 -76 22 -97q27 -23 105 -22h121q45 0 45 -33v-69q0 -49 -166 -50q-111 0 -172 23 q-66 25 -100.5 84t-34.5 162v92q-139 18 -244 92q-102 72 -162 211q-57 133 -57 334zM311 629q0 -166 43 -273q41 -102 127 -153q84 -49 197 -49q365 0 364 475v264q0 117 -26 217q-25 94 -72 150q-45 55 -113 81q-66 27 -153 27q-367 0 -367 -475v-264z" />
<glyph unicode="R" horiz-adv-x="1280" d="M160 41v1434q0 39 49 45q106 10 158 12q127 4 202 4q170 0 299 -43q127 -43 201 -141.5t74 -255.5v-15q0 -164 -88 -270q-84 -102 -234 -143l373 -623q6 -9 6 -18q0 -27 -26 -27h-132q-18 0 -30 4q-10 4 -23 23l-366 610h-19h-35q-61 0 -225 6v-602q0 -14 -10 -29 q-10 -12 -27 -12h-110q-16 0 -27 12q-10 15 -10 29zM344 801q49 0 102.5 -1t82 -2t40.5 -1q123 0 217 26q82 23 127 88q45 63 45 170v15q0 98 -43 159.5t-129 85.5q-94 27 -217 27q-176 0 -225 -6v-561z" />
<glyph unicode="S" horiz-adv-x="1124" d="M102 1174q0 182 127 272t363 90q49 0 135 -4l64.5 -5t50.5 -3q53 -4 106 -13q35 -6 35 -34v-88q0 -33 -35 -33h-4q-182 12 -352 12q-164 0 -232 -43q-70 -45 -69 -151q0 -68 49 -121q53 -55 174 -127l188 -113q119 -72 189 -135q74 -68 102 -131q31 -68 31 -152 q0 -172 -114.5 -290.5t-391.5 -118.5q-152 0 -340 28q-23 2 -31 10.5t-8 26.5v82q0 33 35 33h6q141 -12 338 -12q174 0 242 61q70 63 69 180q0 78 -51 131q-59 63 -194 144l-199 121q-143 86 -215 178q-68 86 -68 205z" />
<glyph unicode="T" horiz-adv-x="1206" d="M72 1395v90q0 14 12 26q10 10 29 11h985q14 0 28 -11q10 -8 11 -26v-90q0 -33 -39 -33h-400v-1321q0 -14 -10 -29q-8 -12 -26 -12h-113q-16 0 -27 12q-10 14 -10 29v1321h-399q-41 0 -41 33z" />
<glyph unicode="U" horiz-adv-x="1355" d="M154 553v930q0 16 12 28q10 10 27 11h110q12 0 27 -11q12 -8 12 -28v-930q0 -207 76 -307.5t260 -100.5q127 0 199 45q76 47 106 136q31 89 31 227v930q0 16 12 28q10 10 27 11h110q12 0 27 -11q12 -8 12 -28v-930q0 -141 -35 -252q-33 -106 -102 -178q-63 -66 -166 -103 q-98 -35 -221 -34.5t-221 34.5q-100 35 -164 102.5t-103 178.5q-36 108 -36 252z" />
<glyph unicode="V" horiz-adv-x="1316" d="M70 1487q0 16 10 26q8 8 26 9h119q14 0 23 -9q12 -12 14 -22l356 -1305q16 -43 41 -43q27 0 39 43l359 1305q8 31 35 31h120q35 0 35 -35q0 -10 -2 -12l-377 -1334q-25 -88 -82 -121q-59 -35 -127 -34q-166 0 -208 155l-379 1334q-2 2 -2 12z" />
<glyph unicode="W" horiz-adv-x="1689" d="M72 1481v6q0 35 34 35h119q29 0 35 -35l199 -1305q0 -4 1 -10t3 -10q4 -10 6 -10q8 0 14 30l201 758q20 82 96 82h131q76 0 97 -82l200 -758q6 -31 15 -30q4 0 8 10q2 6 2 20l199 1305q6 35 34 35h119q35 0 35 -35v-6l-227 -1385q-10 -59 -41 -82q-33 -23 -86 -22h-88 q-41 0 -74 28q-31 28 -43 74l-201 758q-3 18 -12 18h-2h-2q-6 0 -13 -18l-202 -758q-12 -46 -43 -74q-33 -29 -74 -28h-86q-53 0 -86 22.5t-41 81.5z" />
<glyph unicode="X" horiz-adv-x="1320" d="M94 31q0 10 6 20l455 723l-451 699q-6 10 -6 20q0 29 31 29h133q25 0 37 -21l369 -583l356 583q12 20 39 21h121q16 0 24.5 -8.5t8.5 -22.5q0 -6 -7 -18l-440 -703l461 -719q6 -10 6 -22q0 -29 -33 -29h-129q-16 0 -22 6q-10 10 -21 25l-375 596l-366 -596 q-22 -31 -43 -31h-121q-33 0 -33 31z" />
<glyph unicode="Y" horiz-adv-x="1193" d="M72 1493q0 10 10 20q8 8 24 9h125q10 0 20.5 -8.5t16.5 -20.5l283 -664q23 -53 47.5 -53t46.5 53l285 664q12 29 35 29h125q16 0 24 -9q10 -10 10 -20q0 -6 -6 -23l-317 -712q-49 -108 -111 -135v-582q0 -14 -10 -29q-8 -12 -27 -12h-112q-16 0 -27 12q-10 14 -10 29v582 q-55 20 -111 135l-315 712q-6 17 -6 23z" />
<glyph unicode="Z" horiz-adv-x="1222" d="M115 139q0 74 30 119l734 1067q6 10 6 16q0 14 -21 15h-680q-14 0 -28 10q-12 9 -13 25v96q0 15 13 24q14 10 28 11h729q94 0 134 -27q41 -29 40 -109q0 -23 -10 -63q-10 -39 -22 -57l-731 -1067q-6 -10 -7 -19q0 -12 21 -12h735q41 0 41 -35v-96q0 -16 -12 -27 q-14 -10 -29 -10h-788q-94 0 -133 29q-37 28 -37 110z" />
<glyph unicode="[" horiz-adv-x="669" d="M164 -358v1841q0 12 10 26q9 12 25 13h381q16 0 28.5 -12.5t12.5 -28.5v-68q0 -16 -12.5 -28.5t-28.5 -12.5h-234v-1620h234q16 0 28.5 -12t12.5 -29v-67q0 -16 -12.5 -28.5t-28.5 -12.5h-381q-15 0 -25 12q-10 15 -10 27z" />
<glyph unicode="\" horiz-adv-x="724" d="M47 1493q0 12 8 20.5t21 8.5h104q23 0 35 -41l465 -1440q2 -2 2 -12q0 -12 -8 -20.5t-21 -8.5h-104q-25 0 -37 41l-463 1440q-2 2 -2 12z" />
<glyph unicode="]" horiz-adv-x="669" d="M49 -289q0 16 12.5 28.5t28.5 12.5h234v1620h-234q-16 0 -28.5 12.5t-12.5 28.5v68q0 16 12.5 28.5t28.5 12.5h381q16 0 25 -11q10 -14 10 -28v-1841q0 -12 -10 -27q-9 -12 -25 -12h-381q-16 0 -28.5 12t-12.5 29v67z" />
<glyph unicode="^" d="M207 1171q0 12 8 23l236 305q25 29 28 31q12 6 33 6h217q16 0 33 -8q12 -6 29 -29l235 -305q8 -10 8 -23q0 -18 -22 -18h-123q-23 0 -27 4q-14 14 -31 33l-210 246l-211 -246q-23 -27 -29 -31q-8 -6 -29 -6h-123q-22 0 -22 18z" />
<glyph unicode="_" horiz-adv-x="1011" d="M-61 -133q0 15 12 24q10 8 29 9h1054q18 0 29 -9q12 -9 12 -24v-51q0 -33 -41 -33h-1054q-41 0 -41 33v51z" />
<glyph unicode="`" horiz-adv-x="761" d="M82 1581q0 14 22 14h136q18 0 26 -6q9 -6 25 -24l198 -254q8 -8 9 -21q0 -14 -19 -14h-110q-16 0 -23 6l-4 4l-9 9t-11 12l-232 258q-8 8 -8 16z" />
<glyph unicode="a" horiz-adv-x="1062" d="M98 317v25q0 88 27 147q29 61 84 103q55 39 151 61q90 20 232 21h151v82q0 129 -49 180t-170 51q-139 0 -313 -16h-10q-37 0 -37 33v71q0 33 43 39q158 27 317 27q399 0 400 -385v-715q0 -16 -12.5 -28.5t-28.5 -12.5h-95q-16 0 -28 12.5t-12 28.5v45q-76 -41 -103 -51 q-70 -29 -106 -37q-55 -12 -107 -12q-143 0 -239 77q-95 76 -95 254zM279 319q0 -72 22 -112q23 -43 61 -57q43 -16 105 -17q72 0 133 19q57 16 143 63v330h-151q-180 0 -248 -45q-66 -43 -65 -156v-25z" />
<glyph unicode="b" horiz-adv-x="1107" d="M139 68v1433q0 12 11 27q10 12 26 12h105q16 0 26 -10q12 -12 12 -29v-381q102 20 240 21q117 0 197 -33q88 -35 139 -96q57 -66 84 -158q27 -88 27 -215v-147q0 -162 -48 -271q-49 -113 -149 -174t-250 -61q-190 0 -377 34q-29 6 -35 15q-8 13 -8 33zM319 156 q151 -12 240 -13q98 0 156 39q61 43 86 117q25 78 24 193v147q0 172 -61.5 258t-204.5 86q-94 0 -133 -2q-57 -2 -107 -12v-813z" />
<glyph unicode="c" horiz-adv-x="925" d="M102 483v160q0 147 50 262q47 111 149 174q98 61 238 62q121 0 256 -23q20 -2 32 -14q8 -8 9 -31v-74q0 -31 -35 -30h-8q-117 14 -254 14q-256 0 -256 -340v-160q0 -166 65 -254q65 -86 191 -86q139 0 254 15h8q35 0 35 -31v-74q0 -35 -41 -45q-131 -23 -256 -22 q-133 0 -236 61q-96 57 -149 172q-52 108 -52 264z" />
<glyph unicode="d" horiz-adv-x="1107" d="M102 492v147q0 127 27 215q27 92 84 158q51 59 141 96q80 33 195 33q84 0 125 -4q78 -8 114 -17v381q0 16 11 27q12 12 28 12h105q16 0 26.5 -10t10.5 -29v-1433q0 -25 -8.5 -33t-34.5 -15q-186 -35 -377 -34q-147 0 -250 61q-100 59 -149 176q-48 109 -48 269zM283 492 q0 -178 59 -263q61 -86 207 -86q89 0 239 13v813q-45 8 -106 12q-39 2 -133 2q-96 0 -156 -39q-61 -41 -86 -115q-25 -77 -24 -190v-147z" />
<glyph unicode="e" horiz-adv-x="1112" d="M102 477v185q0 223 119 350q119 129 336 129q145 0 248 -60q106 -61 153 -166q49 -109 50 -253v-111q0 -45 -39 -45h-686v-29q0 -180 69 -256q72 -78 215 -78q94 0 193 7q119 8 172 16h10q33 0 33 -29v-69q0 -23 -8 -31q-10 -10 -33 -17q-80 -14 -174 -24 q-98 -10 -193 -10q-127 0 -233 47q-102 45 -168 153q-64 107 -64 291zM283 643h542v19q0 117 -30 186q-31 72 -88 102q-61 33 -150 33q-274 0 -274 -321v-19z" />
<glyph unicode="f" horiz-adv-x="778" d="M51 1034v56q0 16 12 26q14 10 27 10h199v148q0 106 33 170q31 59 96 88q61 27 157 27q59 0 115 -13q39 -8 39 -33v-67q0 -31 -37 -31h-98q-51 0 -76 -12q-27 -12 -37 -41q-12 -31 -12 -88v-148h215q12 0 27 -10q12 -10 12 -26v-80q0 -35 -39 -35h-215v-934 q0 -16 -12.5 -28.5t-26.5 -12.5h-100q-16 0 -28.5 12.5t-12.5 28.5v934l-199 22q-23 4 -29 11q-10 10 -10 26z" />
<glyph unicode="g" horiz-adv-x="1144" d="M111 -66q0 82 36.5 150t92.5 111l-15 6q-49 23 -71 63q-23 39 -23 96v2q0 43 23 84q23 43 61 64q-94 88 -94 238v16q0 158 106.5 260t347.5 102h449q16 0 33 -12q14 -12 14 -33v-53q0 -33 -37 -39l-73 -14q70 -76 69 -211v-16q0 -350 -455 -351q-133 0 -237 41 q-51 -20 -51 -69q0 -27 14 -41q15 -15 49 -25l305 -78q102 -27 205 -63q82 -31 135.5 -90.5t53.5 -147.5v-16q0 -154 -111 -236q-109 -82 -356 -82q-238 0 -354.5 86t-116.5 240v18zM287 -66v-18q0 -63 26.5 -102t94 -61.5t174.5 -22.5q166 0 227 43q59 41 59 135v16 q0 57 -53 92q-52 34 -197 68l-231 59q-51 -43 -74 -88q-26 -49 -26 -121zM299 748q0 -88 59 -148q61 -61 217 -61q154 0 215.5 55t61.5 154v16q0 101 -61 160q-63 59 -216 59q-154 0 -217 -59q-59 -57 -59 -160v-16z" />
<glyph unicode="h" horiz-adv-x="1140" d="M139 41v1458q0 18 11 29q12 12 28 12h103q18 0 28 -12q10 -14 10 -29v-422q80 33 156 47q88 16 158 17q113 0 194 -43q80 -41 127 -141.5t47 -241.5v-674q0 -16 -12 -28.5t-28 -12.5h-99q-16 0 -28.5 12.5t-12.5 28.5v674q0 145 -57 209q-53 59 -162 59q-61 0 -139 -14 q-82 -14 -144 -43v-885q0 -16 -12 -28.5t-28 -12.5h-101q-14 0 -26.5 12.5t-12.5 28.5z" />
<glyph unicode="i" horiz-adv-x="505" d="M160 1348v163q0 16 12 28.5t29 12.5h104q18 0 31 -12q10 -10 10 -29v-163q0 -16 -12 -28.5t-29 -12.5h-104q-16 0 -28.5 12.5t-12.5 28.5zM162 41v1044q0 16 12 28.5t29 12.5h98q18 0 31 -12q10 -10 10 -29v-1044q0 -16 -12.5 -28.5t-28.5 -12.5h-98q-16 0 -28.5 12.5 t-12.5 28.5z" />
<glyph unicode="j" horiz-adv-x="505" d="M-61 -287q0 29 43 29h84q59 0 77.5 24.5t18.5 102.5v1216q0 14 10 29q8 12 27 12h106q18 0 27 -12q10 -14 10 -29v-1216q0 -150 -63 -211q-66 -61 -193 -61q-61 0 -111 8q-37 6 -36 33v75zM160 1346v165q0 16 12 28.5t29 12.5h104q16 0 28.5 -12t12.5 -29v-165 q0 -14 -12 -26.5t-29 -12.5h-104q-16 0 -28.5 12.5t-12.5 26.5z" />
<glyph unicode="k" horiz-adv-x="1015" d="M139 41v1458q0 16 12.5 28.5t28.5 12.5h99q18 0 28 -10q12 -12 12 -31v-852l410 461q16 18 41 18h143q31 0 31 -22q0 -12 -10 -23l-451 -487l455 -549q6 -6 6 -18q0 -27 -22 -27h-148q-18 0 -24 4q-14 8 -23 23l-408 503v-489q0 -16 -12 -28.5t-28 -12.5h-99 q-16 0 -28.5 12.5t-12.5 28.5z" />
<glyph unicode="l" horiz-adv-x="499" d="M160 41v1460q0 12 10 27q10 12 27 12h106q18 0 27 -10q10 -14 10 -29v-1460q0 -14 -10 -29q-10 -12 -27 -12h-106q-16 0 -27 12q-10 15 -10 29z" />
<glyph unicode="m" horiz-adv-x="1632" d="M139 41v1044q0 18 11 29q12 12 28 12h103q18 0 28 -12q10 -14 10 -29v-38q156 96 299 96q131 0 205 -84q180 84 340 84q102 0 172 -35q74 -37 117 -121q43 -83 43 -221v-725q0 -16 -12.5 -28.5t-28.5 -12.5h-98q-16 0 -28.5 12.5t-12.5 28.5v725q0 121 -49 170t-138 49 q-98 0 -239 -55q18 -68 18 -160v-729q0 -14 -10 -29q-8 -12 -27 -12h-108q-15 0 -25 12q-10 14 -10 29v729q0 92 -16 133q-18 45 -51 63.5t-91 18.5q-86 0 -250 -80v-864q0 -14 -10 -29q-10 -12 -26 -12h-109q-15 0 -24 12q-11 15 -11 29z" />
<glyph unicode="n" horiz-adv-x="1140" d="M139 41v1044q0 18 11 29q12 12 28 12h103q18 0 28 -12q10 -14 10 -29v-38q90 51 162 71q80 23 164 23q182 0 268 -109q88 -111 88 -317v-674q0 -16 -12 -28.5t-28 -12.5h-99q-16 0 -28.5 12.5t-12.5 28.5v674q0 98 -22 159q-23 59 -74 87q-49 25 -129 24q-114 0 -277 -80 v-864q0 -16 -12 -28.5t-28 -12.5h-101q-14 0 -26.5 12.5t-12.5 28.5z" />
<glyph unicode="o" horiz-adv-x="1114" d="M102 485v156q0 229 117 364.5t338 135.5q111 0 199 -35q78 -31 141 -100q61 -68 88 -158q29 -96 29 -207v-156q0 -156 -51 -264q-53 -115 -156 -174q-104 -61 -250 -61q-221 0 -338 135t-117 364zM283 485q0 -342 274 -342q141 0 209 88t68 254v156q0 163 -68 252 q-68 90 -209 90q-139 0 -207 -90q-68 -89 -67 -252v-156z" />
<glyph unicode="p" horiz-adv-x="1107" d="M139 -362v1409q0 23 8 30q10 10 35 17q55 12 119 24q45 8 131 17q63 6 127 6q150 0 250 -62q96 -59 147 -176q49 -113 50 -268v-148q0 -246 -113 -372q-115 -129 -334 -129q-109 0 -240 22v-370q0 -12 -10 -27q-10 -12 -28 -12h-105q-14 0 -26 12q-11 11 -11 27zM319 158 q104 -20 240 -21q143 0 205 88q61 90 61 262v148q0 170 -61.5 262t-204.5 92q-129 0 -240 -20v-811z" />
<glyph unicode="q" horiz-adv-x="1107" d="M102 487v148q0 121 27 209q29 94 82 160q55 68 139 102q86 35 199 35q61 0 127 -6q86 -8 131 -17q63 -12 119 -24q27 -6 35 -14.5t8 -32.5v-1409q0 -16 -11 -27q-12 -12 -26 -12h-105q-16 0 -28 12q-10 10 -11 27v370q-125 -23 -239 -22q-221 0 -334 129 q-113 126 -113 372zM283 487q0 -90 14 -149q16 -68 45 -109t82 -67q49 -25 125 -25q74 0 117 4q82 8 122 17v811q-12 2 -36.5 5t-32.5 5q-25 4 -76 6q-70 4 -94 4q-145 0 -207 -90q-59 -86 -59 -264v-148z" />
<glyph unicode="r" horiz-adv-x="698" d="M139 41v1044q0 18 11 29q12 12 28 12h96q20 0 29 -12q10 -14 10 -29v-43q141 98 289 99q43 0 43 -37v-84q0 -35 -43 -35q-139 0 -283 -86v-858q0 -16 -12 -28.5t-28 -12.5h-101q-14 0 -26.5 12.5t-12.5 28.5z" />
<glyph unicode="s" horiz-adv-x="952" d="M102 57v72q0 14 10.5 22.5t26.5 8.5h8q184 -23 322 -23q106 0 154 33q49 35 49 113q0 47 -33 82q-35 37 -121 88l-207 122q-104 63 -155 132q-53 70 -54 161q0 150 98.5 211.5t272.5 61.5q162 0 320 -27q39 -6 38 -41v-67q0 -35 -34 -35h-6q-203 16 -318 16 q-100 0 -145 -24.5t-45 -94.5q0 -39 32 -75q29 -33 109 -80l203 -121q125 -76 174 -146q51 -74 51 -163q0 -150 -102.5 -223.5t-280.5 -73.5q-199 0 -324 30q-43 12 -43 41z" />
<glyph unicode="t" horiz-adv-x="786" d="M51 1034v56q0 16 10.5 26t28.5 10h199v201q0 35 37 41l106 16h6q12 0 23 -10q8 -8 8 -24v-224h221q18 0 31 -12q10 -10 10 -29v-69q0 -16 -12 -28.5t-29 -12.5h-221v-715q0 -80 23 -106q20 -23 88 -23h114q43 0 43 -29v-71q0 -29 -37 -35q-76 -10 -133 -10 q-147 0 -215 57q-63 55 -63 217v715l-199 22q-39 2 -39 37z" />
<glyph unicode="u" horiz-adv-x="1140" d="M139 412v673q0 16 12.5 28.5t28.5 12.5h99q16 0 28 -12t12 -29v-673q0 -104 23 -162q23 -59 74 -84q49 -25 129 -25q117 0 276 80v864q0 16 12.5 28.5t28.5 12.5h101q20 0 28 -12q10 -14 10 -29v-1044q0 -14 -10 -29q-8 -12 -28 -12h-103q-16 0 -29 12q-10 10 -10 29v39 q-84 -49 -162 -72q-80 -23 -163 -22q-357 0 -357 426z" />
<glyph unicode="v" horiz-adv-x="1083" d="M80 1092q0 16 8 24q10 10 25 10h112q27 0 39 -39l236 -892q10 -35 18 -48q9 -12 25 -12q15 0 24 12q8 12 19 48l235 892q12 39 39 39h113q14 0 24 -10q8 -8 9 -24q0 -10 -2 -15l-277 -975q-18 -66 -65 -90q-49 -27 -119 -26.5t-119 26.5q-43 23 -66 90l-276 975 q-2 5 -2 15z" />
<glyph unicode="w" horiz-adv-x="1609" d="M78 1077v8q0 18 10 29q12 12 29 12h110q12 0 23 -10q8 -8 12 -22l170 -934q2 -25 17 -25q10 0 16 25l201 786q18 61 82 62h114q63 0 82 -62l201 -786q6 -25 16 -25q14 0 17 25l170 934q4 14 12 22q10 10 22 10h111q16 0 29 -12q10 -10 10 -29v-8l-199 -950 q-16 -70 -30.5 -96.5t-42.5 -34.5q-35 -10 -99 -10q-55 0 -86 10q-29 10 -47 41q-16 27 -35 96l-178 696q-2 14 -10 15q-6 0 -6 -2l-4 -13l-179 -696q-23 -92 -55 -119q-35 -29 -112 -28q-59 0 -94.5 10t-49.5 35q-12 20 -29 96z" />
<glyph unicode="x" horiz-adv-x="1118" d="M82 20q0 12 10 27l369 526l-348 502q-10 12 -11 27q0 25 31 24h133q23 0 41 -28l260 -385l262 385q4 4 7.5 9t5.5 7t4 5t4 3q8 4 22 4h119q27 0 27 -24q0 -6 -10 -27l-344 -489l374 -539q8 -10 9 -24q0 -23 -27 -23h-141q-16 0 -29 16l-293 428l-293 -424 q-10 -12 -16 -16q-8 -4 -19 -4h-123q-24 0 -24 20z" />
<glyph unicode="y" horiz-adv-x="1093" d="M80 1092q0 35 37 34h112q25 0 35 -32l242 -889q12 -45 39 -45h33l249 936q4 14 14.5 22t24.5 8h115q14 0 25 -10q8 -8 8 -24q0 -12 -2 -15l-338 -1179q-31 -113 -76 -180.5t-113 -94.5q-74 -29 -186 -29q-89 0 -172 19q-43 10 -43 33v75q0 33 39 33h6q135 -12 182 -12 q94 0 135 35q43 37 68 139l21 84h-29q-53 0 -90 27q-33 25 -62 114l-272 936q-2 3 -2 15z" />
<glyph unicode="z" horiz-adv-x="985" d="M100 113v39q0 41 11 71q9 28 36 62l529 657q8 10 8 19q0 14 -20 14h-498q-16 0 -28.5 12t-12.5 29v69q0 16 12.5 28.5t28.5 12.5h602q115 0 115 -100v-49q0 -53 -47 -113l-539 -674q-10 -10 -10 -22q0 -16 16 -16h541q16 0 28.5 -12.5t12.5 -28.5v-70q0 -16 -12.5 -28.5 t-28.5 -12.5h-619q-63 0 -94 33t-31 80z" />
<glyph unicode="{" horiz-adv-x="677" d="M41 502v119q72 51 98 106q25 52 25 147v365q0 113 26 172q29 63 93 86q68 25 194 25h103q16 0 28.5 -12.5t12.5 -28.5v-68q0 -16 -12.5 -28.5t-28.5 -12.5h-93q-55 0 -90 -10q-31 -10 -41 -39q-10 -31 -10 -84v-365q0 -115 -33 -186q-35 -76 -112 -129q78 -53 112 -129 q33 -72 33 -184v-361q0 -45 6 -69.5t19 -36.5q14 -14 42.5 -20.5t73.5 -6.5h95q16 0 28.5 -12t12.5 -29v-67q0 -16 -12.5 -28.5t-28.5 -12.5h-105q-121 0 -194 26q-68 25 -93 84q-27 66 -26 172v361q0 96 -25 151q-20 48 -98 105z" />
<glyph unicode="|" horiz-adv-x="509" d="M164 -358v1841q0 14 12 26.5t27 12.5h106q18 0 27 -11q10 -14 10 -28v-1841q0 -12 -10 -27q-8 -12 -27 -12h-106q-14 0 -26.5 12.5t-12.5 26.5z" />
<glyph unicode="}" horiz-adv-x="677" d="M55 -289q0 16 12.5 28.5t28.5 12.5h94q90 0 115 25q27 27 27 108v361q0 113 33 184q35 76 112 129q-78 53 -112 129q-33 72 -33 186v365q0 82 -27 109q-25 25 -115 24h-92q-16 0 -28.5 12.5t-12.5 28.5v68q0 16 12.5 28.5t28.5 12.5h103q127 0 194 -25q63 -23 92 -86 q27 -59 27 -172v-365q0 -92 25 -147q23 -51 98 -106v-119q-78 -57 -98 -105q-25 -55 -25 -151v-361q0 -106 -27 -172q-25 -59 -92 -84q-74 -27 -194 -26h-105q-16 0 -28.5 12t-12.5 29v67z" />
<glyph unicode="~" d="M188 760v53q0 86 27 145.5t78 90t123 30.5q84 0 153 -57l174 -139q10 -8 48 -29q20 -12 38 -12q37 0 56 12q20 14 22 31q4 29 4 71v58q0 16 12.5 28.5t28.5 12.5h60q16 0 28.5 -12.5t12.5 -28.5v-58q0 -133 -52 -196q-53 -66 -172 -66q-84 0 -155 58l-150 118l-67 52 q-23 12 -41 12q-53 0 -69.5 -28.5t-16.5 -92.5v-53q0 -16 -12.5 -28.5t-28.5 -12.5h-60q-16 0 -28.5 12.5t-12.5 28.5z" />
<glyph unicode="&#xa0;" />
<glyph unicode="&#xa1;" horiz-adv-x="442" d="M133 -377l14 1065q0 14 12.5 26.5t28.5 12.5h72q16 0 28.5 -12.5t12.5 -26.5l16 -1065q0 -16 -12 -29q-10 -10 -29 -10h-104q-16 0 -27 10q-12 13 -12 29zM137 895v192q0 16 10 27q12 12 29 12h98q12 0 27 -10q12 -10 12 -29v-192q0 -14 -12 -26.5t-27 -12.5h-98 q-14 0 -26.5 12.5t-12.5 26.5z" />
<glyph unicode="&#xa2;" d="M254 483v160q0 193 88 326q88 131 246 161v191q0 16 12 28.5t29 12.5h84q16 0 28.5 -12.5t12.5 -28.5v-182q102 -6 192 -21q20 -2 33 -14q8 -8 8 -31v-74q0 -31 -35 -30h-8q-154 16 -254 16q-125 0 -190 -86q-66 -88 -66 -256v-160q0 -168 66 -256q65 -86 190 -86 q131 0 254 17h8q35 0 35 -31v-74q0 -23 -8 -30q-12 -12 -33 -15q-84 -14 -192 -20v-185q0 -16 -12.5 -28.5t-28.5 -12.5h-84q-16 0 -28.5 12.5t-12.5 28.5v193q-102 20 -180 86q-72 61 -115 168q-39 98 -39 233z" />
<glyph unicode="&#xa3;" d="M143 748v86q0 12 12.5 24t28.5 12h103v134q0 186 41 290q43 111 141 168q100 57 270 58q80 0 160 -9q131 -14 158 -18q23 -2 31 -10t8 -25v-84q0 -35 -31 -35h-10q-197 23 -316 23q-104 0 -163.5 -33t-79.5 -108q-23 -80 -23 -217v-134h440q12 0 27 -10q12 -8 12 -26v-86 q0 -18 -12 -27q-14 -10 -29 -10h-438v-312q0 -113 -72 -243h654q41 0 41 -31v-90q0 -15 -13 -25q-14 -10 -28 -10h-817q-35 0 -35 31v80q0 6 4 18t6 14t10 15q31 53 49 112q14 49 15 129v312h-107q-16 0 -26.5 10.5t-10.5 26.5z" />
<glyph unicode="&#xa4;" d="M117 1171q0 18 10 25l57 55q10 10 23 11q14 0 31 -17l163 -164q96 70 217 70q117 0 218 -70l168 168q14 14 30 15q14 0 23 -11l55 -55q10 -10 10 -22q0 -16 -14 -31l-168 -168q68 -98 68 -213q0 -121 -70 -217l168 -168q14 -14 14 -31q0 -14 -10 -24l-55 -56 q-10 -10 -23 -10q-16 0 -31 14l-172 172q-95 -68 -208 -67q-117 0 -213 67l-168 -168q-20 -16 -33 -16q-6 0 -21 10l-55 58q-10 14 -10 22q0 16 14 31l166 166q-70 94 -70 217q0 115 66 211l-166 166q-14 14 -14 30zM371 764q0 -63 35 -123q33 -55 88 -90q53 -33 122.5 -33 t122.5 33q59 37 90 90q33 57 33 123q0 70 -33 123q-35 55 -90 88q-57 33 -123 33q-102 0 -173.5 -72t-71.5 -172z" />
<glyph unicode="&#xa5;" d="M74 473v62q0 16 12 28t29 12h411v43l-112 226h-299q-16 0 -28.5 12t-12.5 29v61q0 16 12 28.5t29 12.5h227l-244 483q-6 18 -6 25q0 27 33 27h129q23 0 35 -29l332 -694l331 694q12 29 35 29h127q35 0 35 -29q0 -6 -6 -23l-244 -483h225q18 0 29 -10q12 -12 12 -31v-61 q0 -16 -12 -28.5t-29 -12.5h-297l-112 -226v-43h409q16 0 28.5 -12t12.5 -28v-62q0 -16 -12 -28.5t-29 -12.5h-409v-391q0 -14 -10 -29q-8 -12 -27 -12h-117q-15 0 -24 12q-10 14 -11 29v391h-411q-16 0 -28.5 12.5t-12.5 28.5z" />
<glyph unicode="&#xa6;" horiz-adv-x="509" d="M164 319q0 12 10 27q10 12 27 12h108q18 0 27 -12q10 -14 10 -27v-710q0 -14 -10 -29q-8 -12 -27 -12h-108q-16 0 -27 12q-10 14 -10 29v710zM164 741v711q0 12 10 27q10 12 27 12h108q18 0 27 -12q10 -14 10 -27v-711q0 -14 -10 -28q-8 -12 -27 -13h-108q-16 0 -27 13 q-10 14 -10 28z" />
<glyph unicode="&#xa7;" horiz-adv-x="1118" d="M98 754q0 66 17 108q18 49 53 107q-33 35 -51 92q-18 55 -19 115q0 117 49 196q49 78 158 121q111 43 283 43q63 0 200 -10q115 -8 158 -17q37 -6 37 -39v-88q0 -14 -10 -24t-27 -10h-2q-16 0 -156 10q-113 8 -200 8q-172 0 -233.5 -43t-61.5 -147q0 -47 18.5 -84 t59.5 -70q43 -34 129 -86l223 -131q90 -51 147 -100q66 -55 95 -99q33 -49 45 -98t12 -113q0 -129 -59 -223q59 -88 59 -207q0 -178 -114.5 -292.5t-391.5 -114.5q-156 0 -344 28q-14 2 -27 13q-12 8 -12 26v86q0 15 12 25q14 10 29 10h4q211 -20 332 -20h6q172 0 239.5 61 t67.5 178q0 55 -18.5 94t-63.5 78q-41 35 -139 94l-229 138q-80 49 -133 92q-55 46 -86 92q-33 47 -43 92q-13 50 -13 109zM274 754q0 -66 45 -123q43 -57 138 -111l225 -131q94 -57 137 -88q9 28 12 43q2 10 3 51q0 57 -19 94q-20 41 -63 76q-53 43 -127 88l-185 113 q-4 4 -61 39q-33 20 -86 57q-14 -43 -16.5 -53t-2.5 -55z" />
<glyph unicode="&#xa8;" horiz-adv-x="763" d="M123 1352v166q0 16 12 28.5t29 12.5h80q16 0 28.5 -12.5t12.5 -28.5v-166q0 -16 -13 -29q-10 -10 -28 -10h-80q-18 0 -29 10q-12 13 -12 29zM481 1352v166q0 16 12.5 28.5t28.5 12.5h80q16 0 28.5 -12.5t12.5 -28.5v-166q0 -16 -12 -29q-10 -10 -29 -10h-80q-18 0 -28 10 q-13 13 -13 29z" />
<glyph unicode="&#xa9;" horiz-adv-x="1536" d="M102 766q0 182 88 334q92 160 242 246q156 90 334 90q137 0 258 -51.5t215 -145.5q90 -90 143 -215q51 -121 52 -258q0 -178 -91 -334q-88 -152 -243 -242q-152 -88 -334 -88q-180 0 -332 88q-154 90 -244 244q-88 152 -88 332zM190 766q0 -158 76 -289t211 -209 q131 -76 289 -75q119 0 223.5 43t184.5 122q84 84 124 185q45 109 45 223q0 158 -77 291q-76 129 -211 211q-129 78 -289 78q-156 0 -289 -78t-211 -211q-76 -131 -76 -291zM444 705v135q0 195 86 286q84 90 228 91q106 0 186 -17q31 -4 31 -29v-57q0 -25 -27 -24h-6 q-119 10 -184 10q-82 0 -135 -62q-51 -59 -52 -198v-135q0 -258 187 -259q86 0 184 11h4q29 0 29 -27v-55q0 -28 -31 -31q-66 -14 -186 -14q-88 0 -162 39q-70 37 -111 120q-41 87 -41 216z" />
<glyph unicode="&#xaa;" horiz-adv-x="616" d="M61 1063v14q0 98 70 143.5t221 45.5h66v26q0 72 -24.5 100.5t-86.5 28.5q-43 0 -172 -10h-4q-29 0 -29 27v43q0 27 31 28q96 18 174 19q123 0 178.5 -59.5t55.5 -176.5v-370q0 -27 -21 -33q-86 -27 -201 -27q-135 0 -196.5 49.5t-61.5 151.5zM180 1063q0 -57 29 -80 q31 -25 110 -25q47 0 101 11v211h-47h-19q-57 0 -102 -11q-39 -8 -55 -32q-16 -23 -17 -60v-14z" />
<glyph unicode="&#xab;" horiz-adv-x="1255" d="M61 567q0 31 23 58l346 346q20 20 43 20h119q8 0 16 -4q6 -4 6 -14q0 -14 -12 -27l-364 -379l364 -379q12 -12 12 -26q0 -18 -22 -19h-119q-23 0 -43 21l-346 346q-23 22 -23 57zM594 567q0 31 22 58l347 346q20 20 43 20h118q23 0 23 -18q0 -14 -12 -27l-365 -379 l365 -379q12 -12 12 -26q0 -18 -23 -19h-118q-23 0 -43 21l-347 346q-22 22 -22 57z" />
<glyph unicode="&#xac;" d="M184 987v82q0 33 41 33h795q6 0 18 -4q9 -3 13 -13q4 -12 4 -18v-561q0 -16 -12.5 -28.5t-28.5 -12.5h-66q-16 0 -28.5 12t-12.5 29v448h-682q-18 0 -28 9q-13 9 -13 24z" />
<glyph unicode="&#xad;" horiz-adv-x="681" d="M584 559q0 -18 -10.5 -26.5t-28.5 -8.5h-408q-39 0 -39 35v80q0 16 10.5 26.5t28.5 10.5h408q18 0 28.5 -10.5t10.5 -26.5v-80z" />
<glyph unicode="&#xae;" horiz-adv-x="1224" d="M61 991q0 151 74 277q74 127 201 200q126 74 276.5 74t276.5 -74q127 -74 201 -200q76 -129 75.5 -276.5t-75.5 -276.5q-72 -123 -201 -199q-126 -74 -276.5 -74t-276.5 74q-129 76 -201 199q-74 125 -74 276zM147 991q0 -126 62 -233q61 -109 170 -170 q108 -61 233.5 -61.5t233.5 61.5q106 61 172 170q63 106 63 233q0 129 -63.5 235.5t-170 170t-235.5 63.5q-127 0 -233 -63q-109 -66 -170 -172q-62 -108 -62 -234zM385 682v618q0 43 37 46q45 6 156 6q131 0 200 -47q68 -47 68 -160v-8q0 -145 -137 -185l157 -256 q4 -12 4 -18q0 -27 -24 -27h-58q-16 0 -24 17l-166 262l-25 6h-81v-254q0 -12 -9 -20q-10 -10 -20 -11h-51q-12 0 -19 11q-8 12 -8 20zM489 1026h52q8 0 22.5 -1t20.5 -1q84 0 123 27q37 25 36 86v8q0 61 -36.5 85.5t-122.5 24.5h-66h-29v-229z" />
<glyph unicode="&#xaf;" horiz-adv-x="1011" d="M-61 1706q0 15 12 24q10 8 29 9h1054q18 0 29 -9q12 -9 12 -24v-51q0 -33 -41 -33h-1054q-41 0 -41 33v51z" />
<glyph unicode="&#xb0;" horiz-adv-x="698" d="M59 1245q0 78 39 144q41 70 106.5 108.5t147.5 38.5q80 0 146 -39q68 -39 106 -106q39 -66 39 -146q0 -82 -39 -147q-37 -63 -106 -105q-66 -39 -146 -39q-82 0 -147 39q-68 39 -107 107q-39 65 -39 145zM172 1245q0 -47 25 -90q25 -41 65 -65q43 -25 90 -25q49 0 90 25 q43 27 66 65q25 43 24 90q0 45 -24.5 88t-65.5 67.5t-90 24.5q-47 0 -90 -24q-41 -25 -65 -66q-25 -43 -25 -90z" />
<glyph unicode="&#xb1;" d="M154 18v68q0 33 41 33h849q41 0 41 -33v-68q0 -33 -41 -32h-849q-41 -1 -41 32zM154 760v82q0 33 41 32h350v353q0 41 33 41h81q33 0 33 -41v-353h352q41 0 41 -32v-82q0 -33 -41 -33h-352v-350q0 -41 -33 -41h-81q-33 0 -33 41v350h-350q-41 0 -41 33z" />
<glyph unicode="&#xb2;" horiz-adv-x="696" d="M90 709v79q0 109 39 181q41 76 143 145l113 78q35 23 59 47q18 18 24.5 36.5t6.5 49.5q0 55 -32.5 75.5t-131.5 20.5q-80 0 -182 -16h-6q-20 0 -21 20v64q0 14 25 22q98 25 197 25q143 0 213 -49q72 -49 71 -162q0 -63 -35 -117q-33 -51 -118 -108l-107 -72 q-82 -55 -108 -104q-25 -47 -25 -115v-8h360q27 0 27 -21v-75q0 -20 -27 -21h-460q-25 0 -25 25z" />
<glyph unicode="&#xb3;" horiz-adv-x="690" d="M90 731v60q0 23 21 22h4q86 -12 151 -12q111 0 160 26q45 25 45 99v22q0 53 -27 88q-27 37 -96 37h-205q-25 0 -24 23v63q0 23 24 23h201q127 0 127 118v13q0 66 -47 86t-148 20h-12q-53 0 -147 -14h-4q-20 0 -21 22v62q0 18 23 22q86 25 186 25q141 0 221 -49t80 -162 v-14q0 -123 -100 -185q51 -29 76 -79q23 -49 22 -99v-22q0 -123 -80 -183q-82 -59 -219 -59q-108 0 -190 25q-21 8 -21 22z" />
<glyph unicode="&#xb4;" horiz-adv-x="763" d="M266 1290q0 12 8 21l201 254q20 23 27 26q8 4 22 4h135q23 0 23 -14q0 -8 -8 -16l-232 -258l-24 -25q-6 -6 -23 -6h-110q-19 0 -19 14z" />
<glyph unicode="&#xb5;" horiz-adv-x="1140" d="M139 -360v1445q0 18 11 29q12 12 28 12h103q18 0 28 -12q10 -14 10 -29v-673q0 -143 64 -207q66 -66 201 -66q68 0 127 8q74 10 110 21v917q0 16 12.5 28.5t28.5 12.5h101q20 0 28 -12q10 -14 10 -29v-995q0 -35 -38 -47q-74 -28 -179 -43q-98 -14 -200 -14 q-158 0 -265 59v-405q0 -16 -12 -28.5t-28 -12.5h-99q-16 0 -28.5 12.5t-12.5 28.5z" />
<glyph unicode="&#xb6;" horiz-adv-x="1273" d="M92 995v70q0 143 61.5 247.5t170.5 155.5q113 53 251 54h533q33 0 33 -39v-1843q0 -12 -11 -27q-9 -12 -24 -12h-47q-15 0 -25 12q-10 14 -10 27v1771h-119v-1771q0 -12 -10 -27q-9 -12 -25 -12h-47q-15 0 -24 12q-10 14 -11 27v899h-213q-139 0 -251 53 q-106 49 -170 156q-62 100 -62 247z" />
<glyph unicode="&#xb7;" horiz-adv-x="436" d="M307 707q0 -16 -12 -28.5t-27 -12.5h-98q-14 0 -26.5 12t-12.5 29v190q0 16 10 27q12 12 29 12h98q12 0 27 -10q12 -8 12 -29v-190z" />
<glyph unicode="&#xb8;" horiz-adv-x="749" d="M104 -371q0 12 9 21l198 254q14 16 27 24q10 6 24 6h136q23 0 22 -14q0 -8 -8 -16l-231 -258l-8.5 -8.5t-6.5 -7.5t-5 -5t-5 -4q-10 -6 -23 -6h-110q-19 0 -19 14z" />
<glyph unicode="&#xb9;" horiz-adv-x="577" d="M90 1335v86q0 12 14 19l150 67q27 14 51 15h66q10 0 16 -6.5t6 -14.5v-794q0 -23 -20 -23h-92q-18 0 -19 23v684l-147 -64q-4 -1 -10 -3q-4 -1 -5 -1q-10 0 -10 12z" />
<glyph unicode="&#xba;" horiz-adv-x="657" d="M66 1159v72q0 139 69 219q68 78 197 78t196 -76q68 -77 68 -221v-72q0 -94 -30.5 -161.5t-88.5 -100.5q-59 -35 -145 -35q-129 0 -197 76q-69 80 -69 221zM188 1159q0 -96 35 -143t109 -47q72 0 106 47q33 45 33 143v72q0 96 -33 141q-35 47 -106 47q-74 0 -109 -47 t-35 -141v-72z" />
<glyph unicode="&#xbb;" horiz-adv-x="1255" d="M111 162q0 14 12 26l364 379l-364 379q-12 12 -12 27q0 18 22 18h119q23 0 43 -20l346 -346q23 -27 23 -58q0 -35 -23 -57l-346 -346q-20 -20 -43 -21h-119q-22 1 -22 19zM643 162q0 14 12 26l365 379l-365 379q-12 12 -12 27q0 18 23 18h118q23 0 43 -20l347 -346 q23 -27 22 -58q0 -20 -4 -30q-6 -14 -18 -27l-347 -346q-20 -20 -43 -21h-118q-23 1 -23 19z" />
<glyph unicode="&#xbc;" horiz-adv-x="1527" d="M90 1335v86q0 12 14 19l150 67q27 14 51 15h66q10 0 16 -6.5t6 -14.5v-794q0 -23 -20 -23h-92q-18 0 -19 23v684l-147 -64q-4 -1 -10 -3q-4 -1 -5 -1q-10 0 -10 12zM170 8q0 14 8 25l856 1450q4 6 10.5 14t9.5 12t5 7q6 6 22 6h105q16 0 16 -13q0 -2 -10 -26l-856 -1450 q-14 -25 -22.5 -33t-22.5 -8h-101q-20 0 -20 16zM858 233v89q0 33 12 51l322 452q8 12 16 13h99q25 0 24 -23v-496h82q10 0 17 -6q8 -8 8 -16v-64q0 -23 -25 -22h-82v-184q0 -9 -6 -19q-6 -8 -16 -8h-86q-23 0 -23 27v184h-317q-25 -1 -25 22zM969 328q0 -8 16 -9h215v316 q0 12 -4 12q-2 0 -12 -10l-211 -299q-2 -2 -3 -7z" />
<glyph unicode="&#xbd;" horiz-adv-x="1540" d="M90 1335v86q0 12 14 19l150 67q27 14 51 15h66q10 0 16 -6.5t6 -14.5v-794q0 -23 -20 -23h-92q-18 0 -19 23v684l-147 -64q-4 -1 -10 -3q-4 -1 -5 -1q-10 0 -10 12zM170 8q0 14 8 25l856 1450q4 6 10.5 14t9.5 12t5 7q6 6 22 6h105q16 0 16 -13q0 -2 -10 -26l-856 -1450 q-14 -25 -22.5 -33t-22.5 -8h-101q-20 0 -20 16zM934 25v81q0 66 16 125q14 53 56 101q40 46 110 92l113 76q57 39 73.5 65.5t16.5 69.5q0 57 -35 76q-34 18 -129 18q-104 0 -182 -14h-6q-20 0 -21 20v64q0 12 25 20q108 25 196 25q98 0 157.5 -20.5t94.5 -67.5 q33 -45 33 -121q0 -68 -35 -117q-39 -55 -119 -108l-106 -74q-49 -33 -86 -70q-29 -29 -39 -63q-8 -27 -8 -76v-10h360q27 0 27 -21v-76q0 -20 -27 -20h-461q-24 0 -24 25z" />
<glyph unicode="&#xbe;" horiz-adv-x="1689" d="M90 731v60q0 23 21 22h4q86 -12 151 -12q111 0 160 26q45 25 45 99v22q0 53 -27 88q-27 37 -96 37h-205q-25 0 -24 23v63q0 23 24 23h201q127 0 127 118v13q0 66 -47 86t-148 20h-12q-53 0 -147 -14h-4q-20 0 -21 22v62q0 18 23 22q86 25 186 25q141 0 221 -49t80 -162 v-14q0 -123 -100 -185q51 -29 76 -79q23 -49 22 -99v-22q0 -123 -80 -183q-82 -59 -219 -59q-108 0 -190 25q-21 8 -21 22zM332 8q0 14 8 25l856 1450q20 29 23 30q8 8 24 9h105q16 0 16 -13q0 -2 -10 -26l-856 -1450q-14 -25 -22.5 -33t-22.5 -8h-101q-20 0 -20 16z M1020 233v89q0 33 12 51l322 452q10 12 16 13h98q25 0 25 -23v-496h82q10 0 16 -6q8 -8 8 -16v-64q0 -23 -24 -22h-82v-184q0 -10 -6 -18.5t-17 -8.5h-86q-23 0 -22 27v184h-318q-24 -1 -24 22zM1130 328q0 -8 17 -9h215v316q0 12 -4 12q-2 0 -12 -10l-211 -299z" />
<glyph unicode="&#xbf;" horiz-adv-x="911" d="M109 -78q0 45 16 98q12 39 53 105q37 58 117 147l92 105q68 76 88 112q20 35 21 99v100q0 14 12 26.5t29 12.5h90q16 0 28 -12q10 -10 11 -27v-100q0 -100 -27 -160q-29 -63 -109 -149l-94 -105q-78 -88 -100 -135q-27 -57 -27 -117v-24q0 -78 51.5 -113t157.5 -35 q45 0 123 4q12 0 154 15h6q31 0 30 -35v-72q0 -23 -6 -33q-8 -12 -28 -14q-135 -27 -279 -27q-410 0 -409 310v24zM494 897v190q0 39 38 39h99q16 0 28.5 -12t12.5 -27v-190q0 -14 -13 -27q-14 -14 -28 -14h-99q-14 0 -26 12.5t-12 28.5z" />
<glyph unicode="&#xc0;" horiz-adv-x="1294" d="M59 32.5q0 12.5 2 14.5l379 1333q25 88 82 121q59 35 127 35q37 0 84 -14q39 -12 74 -47q29 -29 49 -93l379 -1335q2 -2 2 -14q0 -33 -35 -33h-121q-29 0 -34 31l-134 471h-530l-131 -471q-4 -14 -14.5 -22.5t-22.5 -8.5h-121q-14 0 -24.5 10t-10.5 22.5zM422 664h452 l-186 673q-8 37 -39 37t-41 -37zM373 1931q0 14 22 14h136q18 0 26 -6q9 -6 25 -24l198 -254q8 -8 9 -21q0 -14 -19 -14h-110q-16 0 -23 6l-4 4l-9 9t-11 12l-232 258q-8 8 -8 16z" />
<glyph unicode="&#xc1;" horiz-adv-x="1294" d="M59 32.5q0 12.5 2 14.5l379 1333q25 88 82 121q59 35 127 35q37 0 84 -14q39 -12 74 -47q29 -29 49 -93l379 -1335q2 -2 2 -14q0 -33 -35 -33h-121q-29 0 -34 31l-134 471h-530l-131 -471q-4 -14 -14.5 -22.5t-22.5 -8.5h-121q-14 0 -24.5 10t-10.5 22.5zM422 664h452 l-186 673q-8 37 -39 37t-41 -37zM545 1640q0 12 8 21l201 254q20 23 27 26q8 4 22 4h135q23 0 23 -14q0 -8 -8 -16l-232 -258l-24 -25q-6 -6 -23 -6h-110q-19 0 -19 14z" />
<glyph unicode="&#xc2;" horiz-adv-x="1294" d="M59 32.5q0 12.5 2 14.5l379 1333q25 88 82 121q59 35 127 35q37 0 84 -14q39 -12 74 -47q29 -29 49 -93l379 -1335q2 -2 2 -14q0 -33 -35 -33h-121q-29 0 -34 31l-134 471h-530l-131 -471q-4 -14 -14.5 -22.5t-22.5 -8.5h-121q-14 0 -24.5 10t-10.5 22.5zM422 664h452 l-186 673q-8 37 -39 37t-41 -37zM317 1640q0 12 8 21l197 254q10 16 24 24q8 6 25 6h174q27 0 51 -30l195 -254q8 -8 8 -21q0 -14 -18 -14h-107q-16 0 -23 6l-4 4l-9 9t-11 12l-168 198l-170 -198l-25 -25q-6 -6 -22 -6h-107q-18 0 -18 14z" />
<glyph unicode="&#xc3;" horiz-adv-x="1294" d="M59 32.5q0 12.5 2 14.5l379 1333q25 88 82 121q59 35 127 35q37 0 84 -14q39 -12 74 -47q29 -29 49 -93l379 -1335q2 -2 2 -14q0 -33 -35 -33h-121q-29 0 -34 31l-134 471h-530l-131 -471q-4 -14 -14.5 -22.5t-22.5 -8.5h-121q-14 0 -24.5 10t-10.5 22.5zM422 664h452 l-186 673q-8 37 -39 37t-41 -37zM291 1667v43q0 109 51 166t144 57q59 0 123 -49l145 -114q18 -14 37 -21q29 -8 35 -8q33 0 47 20.5t14 69.5v47q0 14 10.5 24.5t24.5 10.5h63q12 0 22.5 -10t10.5 -25v-47q0 -111 -45 -162q-47 -53 -147 -53q-80 0 -131 43l-125 100 q-41 31 -52 37q-14 8 -32 8q-33 0 -50 -22q-14 -20 -14 -72v-43q0 -14 -10 -24.5t-25 -10.5h-63q-16 0 -24.5 10.5t-8.5 24.5z" />
<glyph unicode="&#xc4;" horiz-adv-x="1294" d="M59 32.5q0 12.5 2 14.5l379 1333q25 88 82 121q59 35 127 35q37 0 84 -14q39 -12 74 -47q29 -29 49 -93l379 -1335q2 -2 2 -14q0 -33 -35 -33h-121q-29 0 -34 31l-134 471h-530l-131 -471q-4 -14 -14.5 -22.5t-22.5 -8.5h-121q-14 0 -24.5 10t-10.5 22.5zM422 664h452 l-186 673q-8 37 -39 37t-41 -37zM402 1694v166q0 16 12 28.5t29 12.5h80q16 0 28.5 -12.5t12.5 -28.5v-166q0 -16 -13 -29q-10 -10 -28 -10h-80q-18 0 -29 10q-12 13 -12 29zM760 1694v166q0 16 12.5 28.5t28.5 12.5h80q16 0 28.5 -12.5t12.5 -28.5v-166q0 -16 -12 -29 q-10 -10 -29 -10h-80q-18 0 -28 10q-13 13 -13 29z" />
<glyph unicode="&#xc5;" horiz-adv-x="1294" d="M59 32.5q0 12.5 2 14.5l379 1333q25 88 82 121q59 35 127 35q37 0 84 -14q39 -12 74 -47q29 -29 49 -93l379 -1335q2 -2 2 -14q0 -33 -35 -33h-121q-29 0 -34 31l-134 471h-530l-131 -471q-4 -14 -14.5 -22.5t-22.5 -8.5h-121q-14 0 -24.5 10t-10.5 22.5zM422 664h452 l-186 673q-8 37 -39 37t-41 -37zM854 1798q0 -84 -61.5 -145.5t-145.5 -61.5q-53 0 -104 29q-47 27 -76 73.5t-29 104t29 104.5q29 49 73 76q47 29 106.5 29t104.5 -27t74 -78t29 -104zM756 1800q0 45 -33 75.5t-76 30.5q-45 0 -76 -30.5t-31 -75.5q0 -41 31 -76 q31 -33 76 -33t78 33q31 31 31 76z" />
<glyph unicode="&#xc6;" horiz-adv-x="1757" d="M39 32.5q0 12.5 2 14.5l379 1321q46 154 209 154h997q8 0 14 -9q6 -10 7 -20v-109q0 -25 -23 -24h-586v-490h568q16 0 28.5 -12t12.5 -29v-77q0 -16 -12.5 -28.5t-28.5 -12.5h-568v-344q0 -84 19 -127q18 -45 71.5 -65.5t161.5 -20.5h334q23 0 23 -25v-100q0 -9 -7 -19 q-6 -10 -14 -10q-123 -14 -338 -14q-219 0 -327.5 90t-108.5 291v135h-490l-131 -471q-2 -12 -14 -21q-14 -10 -22 -10h-121q-14 0 -24.5 10t-10.5 22.5zM401 664h451v696h-223q-31 0 -41 -35z" />
<glyph unicode="&#xc7;" horiz-adv-x="1114" d="M123 618v285q0 240 78 377q78 139 200 199q117 57 263 57q154 0 344 -33q33 -4 32 -26v-105q0 -23 -24 -22h-6q-221 18 -344 18q-166 0 -260 -108q-96 -113 -97 -357v-285q0 -242 97 -354q94 -111 260 -110q129 0 338 16h8q33 0 32 -33v-84q0 -35 -40 -41 q-154 -27 -340 -26q-94 0 -197 32q-94 31 -172 103q-80 74 -125 196q-47 129 -47 301zM365 -371q0 10 8 21l198 254q25 31 52 30h135q23 0 22 -14q0 -8 -8 -16l-231 -258l-8.5 -8.5t-6.5 -7.5t-5 -5t-5 -4q-8 -6 -22 -6h-111q-18 0 -18 14z" />
<glyph unicode="&#xc8;" horiz-adv-x="1126" d="M160 367v788q0 201 108.5 291t327.5 90h145q23 0 71 -3t69 -3q80 -2 114 -6q8 0 14.5 -8.5t6.5 -20.5v-102q0 -25 -23 -25h-395q-109 0 -162 -20.5t-71 -65.5q-18 -43 -19 -127v-285h629q16 0 28.5 -12t12.5 -29v-77q0 -16 -12.5 -28.5t-28.5 -12.5h-629v-344 q0 -84 19 -127q18 -45 71 -65.5t162 -20.5h395q23 0 23 -25v-104q0 -27 -21 -29q-106 -10 -399 -10q-219 0 -327.5 90t-108.5 291zM320 1929q0 14 22 14h136q18 0 26 -6q9 -6 25 -24l198 -254q8 -8 9 -21q0 -14 -19 -14h-110q-16 0 -23 6l-4 4l-9 9t-11 12l-232 258 q-8 8 -8 16z" />
<glyph unicode="&#xc9;" horiz-adv-x="1126" d="M160 367v788q0 201 108.5 291t327.5 90h145q23 0 71 -3t69 -3q80 -2 114 -6q8 0 14.5 -8.5t6.5 -20.5v-102q0 -25 -23 -25h-395q-109 0 -162 -20.5t-71 -65.5q-18 -43 -19 -127v-285h629q16 0 28.5 -12t12.5 -29v-77q0 -16 -12.5 -28.5t-28.5 -12.5h-629v-344 q0 -84 19 -127q18 -45 71 -65.5t162 -20.5h395q23 0 23 -25v-104q0 -27 -21 -29q-106 -10 -399 -10q-219 0 -327.5 90t-108.5 291zM477 1640q0 12 8 21l201 254q20 23 27 26q8 4 22 4h135q23 0 23 -14q0 -8 -8 -16l-232 -258l-24 -25q-6 -6 -23 -6h-110q-19 0 -19 14z" />
<glyph unicode="&#xca;" horiz-adv-x="1126" d="M160 367v788q0 201 108.5 291t327.5 90h145q23 0 71 -3t69 -3q80 -2 114 -6q8 0 14.5 -8.5t6.5 -20.5v-102q0 -25 -23 -25h-395q-109 0 -162 -20.5t-71 -65.5q-18 -43 -19 -127v-285h629q16 0 28.5 -12t12.5 -29v-77q0 -16 -12.5 -28.5t-28.5 -12.5h-629v-344 q0 -84 19 -127q18 -45 71 -65.5t162 -20.5h395q23 0 23 -25v-104q0 -27 -21 -29q-106 -10 -399 -10q-219 0 -327.5 90t-108.5 291zM252 1640q0 12 8 21l197 254q10 16 24 24q8 6 25 6h174q27 0 51 -30l195 -254q8 -8 8 -21q0 -14 -18 -14h-107q-16 0 -23 6l-4 4l-9 9t-11 12 l-168 198l-170 -198l-25 -25q-6 -6 -22 -6h-107q-18 0 -18 14z" />
<glyph unicode="&#xcb;" horiz-adv-x="1126" d="M160 367v788q0 201 108.5 291t327.5 90h145q23 0 71 -3t69 -3q80 -2 114 -6q8 0 14.5 -8.5t6.5 -20.5v-102q0 -25 -23 -25h-395q-109 0 -162 -20.5t-71 -65.5q-18 -43 -19 -127v-285h629q16 0 28.5 -12t12.5 -29v-77q0 -16 -12.5 -28.5t-28.5 -12.5h-629v-344 q0 -84 19 -127q18 -45 71 -65.5t162 -20.5h395q23 0 23 -25v-104q0 -27 -21 -29q-106 -10 -399 -10q-219 0 -327.5 90t-108.5 291zM348 1698v166q0 16 12 28.5t29 12.5h80q16 0 28.5 -12.5t12.5 -28.5v-166q0 -16 -13 -29q-10 -10 -28 -10h-80q-18 0 -29 10q-12 13 -12 29z M706 1698v166q0 16 12.5 28.5t28.5 12.5h80q16 0 28.5 -12.5t12.5 -28.5v-166q0 -16 -12 -29q-10 -10 -29 -10h-80q-18 0 -28 10q-13 13 -13 29z" />
<glyph unicode="&#xcc;" horiz-adv-x="546" d="M180 41v1442q0 16 10 26q12 12 27 13h113q16 0 26.5 -10.5t10.5 -28.5v-1442q0 -14 -11 -29q-8 -12 -26 -12h-113q-12 0 -24.5 12.5t-12.5 28.5zM-10 1931q0 14 22 14h136q18 0 26 -6q9 -6 25 -24l198 -254q8 -8 9 -21q0 -14 -19 -14h-110q-16 0 -23 6l-4 4l-9 9t-11 12 l-232 258q-8 8 -8 16z" />
<glyph unicode="&#xcd;" horiz-adv-x="546" d="M180 41v1442q0 16 10 26q12 12 27 13h113q16 0 26.5 -10.5t10.5 -28.5v-1442q0 -14 -11 -29q-8 -12 -26 -12h-113q-12 0 -24.5 12.5t-12.5 28.5zM141 1640q0 12 8 21l201 254q20 23 27 26q8 4 22 4h135q23 0 23 -14q0 -8 -8 -16l-232 -258l-24 -25q-6 -6 -23 -6h-110 q-19 0 -19 14z" />
<glyph unicode="&#xce;" horiz-adv-x="546" d="M180 41v1442q0 16 10 26q12 12 27 13h113q16 0 26.5 -10.5t10.5 -28.5v-1442q0 -14 -11 -29q-8 -12 -26 -12h-113q-12 0 -24.5 12.5t-12.5 28.5zM-76 1640q0 12 8 21l197 254q10 16 24 24q8 6 25 6h174q27 0 51 -30l195 -254q8 -8 8 -21q0 -14 -18 -14h-107q-16 0 -23 6 l-4 4l-9 9t-11 12l-168 198l-170 -198l-25 -25q-6 -6 -22 -6h-107q-18 0 -18 14z" />
<glyph unicode="&#xcf;" horiz-adv-x="546" d="M180 41v1442q0 16 10 26q12 12 27 13h113q16 0 26.5 -10.5t10.5 -28.5v-1442q0 -14 -11 -29q-8 -12 -26 -12h-113q-12 0 -24.5 12.5t-12.5 28.5zM14 1696v166q0 16 12 28.5t29 12.5h80q16 0 28.5 -12.5t12.5 -28.5v-166q0 -16 -13 -29q-10 -10 -28 -10h-80q-18 0 -29 10 q-12 13 -12 29zM372 1696v166q0 16 12.5 28.5t28.5 12.5h80q16 0 28.5 -12.5t12.5 -28.5v-166q0 -16 -12 -29q-10 -10 -29 -10h-80q-18 0 -28 10q-13 13 -13 29z" />
<glyph unicode="&#xd0;" horiz-adv-x="1312" d="M41 752v77q0 16 12.5 28.5t28.5 12.5h78v594q0 43 43 52q57 8 86 10q45 4 125 6q111 4 161 4q194 0 332 -68q141 -68 213 -211q76 -147 76 -358v-276q0 -322 -164 -479.5t-457 -157.5q-51 0 -161 4q-80 2 -125 6q-29 2 -86 10q-43 6 -43 51v654h-78q-16 0 -28.5 12.5 t-12.5 28.5zM348 150q43 -4 227 -5q201 0 320 109q115 106 115 369v276q0 174 -56 283q-55 106 -151 149q-100 45 -228 45q-126 0 -227 -6v-500h211q18 0 31 -12q10 -10 10 -29v-77q0 -16 -12.5 -28.5t-28.5 -12.5h-211v-561z" />
<glyph unicode="&#xd1;" horiz-adv-x="1392" d="M160 25v1439q0 25 16.5 41.5t42.5 16.5h113q41 0 55 -9q18 -10 29 -32l628 -1196l5 -6q2 0 2 6v1198q0 14 10 28q8 10 26 11h109q18 0 27 -11q10 -14 10 -28v-1424q0 -25 -16 -41q-18 -18 -43 -18h-127q-51 0 -66 33l-633 1202q-3 6 -6 6q-2 0 -2 -6v-1196q0 -12 -10 -27 q-10 -12 -27 -12h-106q-37 0 -37 25zM313 1663v43q0 109 51 166t144 57q59 0 123 -49l145 -114q18 -14 37 -21q29 -8 35 -8q33 0 47 20.5t14 69.5v47q0 14 10.5 24.5t24.5 10.5h63q12 0 22.5 -10t10.5 -25v-47q0 -111 -45 -162q-47 -53 -147 -53q-80 0 -131 43l-125 100 q-41 31 -52 37q-14 8 -32 8q-33 0 -50 -22q-14 -20 -14 -72v-43q0 -14 -10 -24.5t-25 -10.5h-63q-16 0 -24.5 10.5t-8.5 24.5z" />
<glyph unicode="&#xd2;" horiz-adv-x="1353" d="M123 629v264q0 160 41 287q39 121 115 202q74 80 176 117t223 37t223.5 -37t173.5 -115q76 -82 115 -200q41 -127 41 -291v-264q0 -170 -39 -289t-115 -201q-74 -80 -176 -116.5t-223 -36.5t-223 37q-106 39 -178 116.5t-113 202.5q-41 127 -41 287zM311 629 q0 -166 43 -273q41 -102 127 -153q84 -49 197 -49q365 0 364 475v264q0 117 -26 217q-25 94 -72 150q-45 55 -113 81q-66 27 -153 27q-367 0 -367 -475v-264zM395 1931q0 14 22 14h136q18 0 26 -6q9 -6 25 -24l198 -254q8 -8 9 -21q0 -14 -19 -14h-110q-16 0 -23 6l-4 4 l-9 9t-11 12l-232 258q-8 8 -8 16z" />
<glyph unicode="&#xd3;" horiz-adv-x="1353" d="M123 629v264q0 160 41 287q39 121 115 202q74 80 176 117t223 37t223.5 -37t173.5 -115q76 -82 115 -200q41 -127 41 -291v-264q0 -170 -39 -289t-115 -201q-74 -80 -176 -116.5t-223 -36.5t-223 37q-106 39 -178 116.5t-113 202.5q-41 127 -41 287zM311 629 q0 -166 43 -273q41 -102 127 -153q84 -49 197 -49q365 0 364 475v264q0 117 -26 217q-25 94 -72 150q-45 55 -113 81q-66 27 -153 27q-367 0 -367 -475v-264zM520 1640q0 12 8 21l201 254q20 23 27 26q8 4 22 4h135q23 0 23 -14q0 -8 -8 -16l-232 -258l-24 -25q-6 -6 -23 -6 h-110q-19 0 -19 14z" />
<glyph unicode="&#xd4;" horiz-adv-x="1353" d="M123 629v264q0 160 41 287q39 121 115 202q74 80 176 117t223 37t223.5 -37t173.5 -115q76 -82 115 -200q41 -127 41 -291v-264q0 -170 -39 -289t-115 -201q-74 -80 -176 -116.5t-223 -36.5t-223 37q-106 39 -178 116.5t-113 202.5q-41 127 -41 287zM311 629 q0 -166 43 -273q41 -102 127 -153q84 -49 197 -49q365 0 364 475v264q0 117 -26 217q-25 94 -72 150q-45 55 -113 81q-66 27 -153 27q-367 0 -367 -475v-264zM336 1642q0 12 8 21l197 254q10 16 24 24q8 6 25 6h174q27 0 51 -30l195 -254q8 -8 8 -21q0 -14 -18 -14h-107 q-16 0 -23 6l-4 4l-9 9t-11 12l-168 198l-170 -198l-25 -25q-6 -6 -22 -6h-107q-18 0 -18 14z" />
<glyph unicode="&#xd5;" horiz-adv-x="1353" d="M123 629v264q0 160 41 287q39 121 115 202q74 80 176 117t223 37t223.5 -37t173.5 -115q76 -82 115 -200q41 -127 41 -291v-264q0 -170 -39 -289t-115 -201q-74 -80 -176 -116.5t-223 -36.5t-223 37q-106 39 -178 116.5t-113 202.5q-41 127 -41 287zM311 629 q0 -166 43 -273q41 -102 127 -153q84 -49 197 -49q365 0 364 475v264q0 117 -26 217q-25 94 -72 150q-45 55 -113 81q-66 27 -153 27q-367 0 -367 -475v-264zM319 1667v43q0 109 51 166t144 57q59 0 123 -49l145 -114q18 -14 37 -21q29 -8 35 -8q33 0 47 20.5t14 69.5v47 q0 14 10.5 24.5t24.5 10.5h63q12 0 22.5 -10t10.5 -25v-47q0 -111 -45 -162q-47 -53 -147 -53q-80 0 -131 43l-125 100q-41 31 -52 37q-14 8 -32 8q-33 0 -50 -22q-14 -20 -14 -72v-43q0 -14 -10 -24.5t-25 -10.5h-63q-16 0 -24.5 10.5t-8.5 24.5z" />
<glyph unicode="&#xd6;" horiz-adv-x="1353" d="M123 629v264q0 160 41 287q39 121 115 202q74 80 176 117t223 37t223.5 -37t173.5 -115q76 -82 115 -200q41 -127 41 -291v-264q0 -170 -39 -289t-115 -201q-74 -80 -176 -116.5t-223 -36.5t-223 37q-106 39 -178 116.5t-113 202.5q-41 127 -41 287zM311 629 q0 -166 43 -273q41 -102 127 -153q84 -49 197 -49q365 0 364 475v264q0 117 -26 217q-25 94 -72 150q-45 55 -113 81q-66 27 -153 27q-367 0 -367 -475v-264zM418 1698v166q0 16 12 28.5t29 12.5h80q16 0 28.5 -12.5t12.5 -28.5v-166q0 -16 -13 -29q-10 -10 -28 -10h-80 q-18 0 -29 10q-12 13 -12 29zM776 1698v166q0 16 12.5 28.5t28.5 12.5h80q16 0 28.5 -12.5t12.5 -28.5v-166q0 -16 -12 -29q-10 -10 -29 -10h-80q-18 0 -28 10q-13 13 -13 29z" />
<glyph unicode="&#xd7;" d="M219 500q0 18 17 32l268 269l-268 270q-16 14 -17 31q0 10 10 20l58 58q10 10 22 10q16 0 31 -14l268 -271l271 271q16 16 32 16q10 0 21 -10l57 -58q10 -10 10 -20q0 -16 -16 -33l-270 -270l270 -271q16 -16 16 -32q0 -10 -10 -21l-57 -57q-10 -10 -21 -10q-16 0 -32 16 l-271 270l-268 -268q-16 -16 -33 -16q-10 0 -20 10l-58 57q-10 11 -10 21z" />
<glyph unicode="&#xd8;" horiz-adv-x="1353" d="M57 8q0 8 6 17l148 204q-88 152 -88 400v264q0 160 41 287q39 121 115 202q74 80 176 117t223 37q238 0 377 -131l59 84q27 39 53 39h107q23 0 22 -23q0 -6 -6 -16l-145 -201q86 -154 86 -395v-264q0 -170 -39 -289t-115 -201q-74 -80 -176 -116.5t-223 -36.5 q-117 0 -209 32q-104 37 -166 97l-63 -90q-31 -39 -52 -39h-108q-23 -1 -23 22zM311 629q0 -121 27 -221l608 847q-92 113 -268 113q-367 0 -367 -475v-264zM410 262q90 -109 268 -108q92 0 153 26q70 29 113 82q47 55 72 150q27 100 26 217v264q0 127 -24 217z" />
<glyph unicode="&#xd9;" horiz-adv-x="1355" d="M154 553v930q0 16 12 28q10 10 27 11h110q12 0 27 -11q12 -8 12 -28v-930q0 -207 76 -307.5t260 -100.5q127 0 199 45q76 47 106 136q31 89 31 227v930q0 16 12 28q10 10 27 11h110q12 0 27 -11q12 -8 12 -28v-930q0 -141 -35 -252q-33 -106 -102 -178q-63 -66 -166 -103 q-98 -35 -221 -34.5t-221 34.5q-100 35 -164 102.5t-103 178.5q-36 108 -36 252zM381 1931q0 14 22 14h136q18 0 26 -6q9 -6 25 -24l198 -254q8 -8 9 -21q0 -14 -19 -14h-110q-16 0 -23 6l-4 4l-9 9t-11 12l-232 258q-8 8 -8 16z" />
<glyph unicode="&#xda;" horiz-adv-x="1355" d="M154 553v930q0 16 12 28q10 10 27 11h110q12 0 27 -11q12 -8 12 -28v-930q0 -207 76 -307.5t260 -100.5q127 0 199 45q76 47 106 136q31 89 31 227v930q0 16 12 28q10 10 27 11h110q12 0 27 -11q12 -8 12 -28v-930q0 -141 -35 -252q-33 -106 -102 -178q-63 -66 -166 -103 q-98 -35 -221 -34.5t-221 34.5q-100 35 -164 102.5t-103 178.5q-36 108 -36 252zM565 1640q0 12 8 21l201 254q20 23 27 26q8 4 22 4h135q23 0 23 -14q0 -8 -8 -16l-232 -258l-24 -25q-6 -6 -23 -6h-110q-19 0 -19 14z" />
<glyph unicode="&#xdb;" horiz-adv-x="1355" d="M154 553v930q0 16 12 28q10 10 27 11h110q12 0 27 -11q12 -8 12 -28v-930q0 -207 76 -307.5t260 -100.5q127 0 199 45q76 47 106 136q31 89 31 227v930q0 16 12 28q10 10 27 11h110q12 0 27 -11q12 -8 12 -28v-930q0 -141 -35 -252q-33 -106 -102 -178q-63 -66 -166 -103 q-98 -35 -221 -34.5t-221 34.5q-100 35 -164 102.5t-103 178.5q-36 108 -36 252zM330 1640q0 12 8 21l197 254q10 16 24 24q8 6 25 6h174q27 0 51 -30l195 -254q8 -8 8 -21q0 -14 -18 -14h-107q-16 0 -23 6l-4 4l-9 9t-11 12l-168 198l-170 -198l-25 -25q-6 -6 -22 -6h-107 q-18 0 -18 14z" />
<glyph unicode="&#xdc;" horiz-adv-x="1355" d="M154 553v930q0 16 12 28q10 10 27 11h110q12 0 27 -11q12 -8 12 -28v-930q0 -207 76 -307.5t260 -100.5q127 0 199 45q76 47 106 136q31 89 31 227v930q0 16 12 28q10 10 27 11h110q12 0 27 -11q12 -8 12 -28v-930q0 -141 -35 -252q-33 -106 -102 -178q-63 -66 -166 -103 q-98 -35 -221 -34.5t-221 34.5q-100 35 -164 102.5t-103 178.5q-36 108 -36 252zM414 1698v166q0 16 12 28.5t29 12.5h80q16 0 28.5 -12.5t12.5 -28.5v-166q0 -16 -13 -29q-10 -10 -28 -10h-80q-18 0 -29 10q-12 13 -12 29zM772 1698v166q0 16 12.5 28.5t28.5 12.5h80 q16 0 28.5 -12.5t12.5 -28.5v-166q0 -16 -12 -29q-10 -10 -29 -10h-80q-18 0 -28 10q-13 13 -13 29z" />
<glyph unicode="&#xdd;" horiz-adv-x="1193" d="M72 1493q0 10 10 20q8 8 24 9h125q10 0 20.5 -8.5t16.5 -20.5l283 -664q23 -53 47.5 -53t46.5 53l285 664q12 29 35 29h125q16 0 24 -9q10 -10 10 -20q0 -6 -6 -23l-317 -712q-49 -108 -111 -135v-582q0 -14 -10 -29q-8 -12 -27 -12h-112q-16 0 -27 12q-10 14 -10 29v582 q-55 20 -111 135l-315 712q-6 17 -6 23zM481 1640q0 12 8 21l201 254q20 23 27 26q8 4 22 4h135q23 0 23 -14q0 -8 -8 -16l-232 -258l-24 -25q-6 -6 -23 -6h-110q-19 0 -19 14z" />
<glyph unicode="&#xde;" horiz-adv-x="1212" d="M160 41v1442q0 14 10 28q8 10 27 11h112q16 0 25 -11q10 -14 10 -28v-142q8 0 27.5 1t30 1t34 1.5t37.5 1.5t36.5 1t33.5 1q580 0 579 -447v-29q0 -463 -575 -462q-117 0 -203 6v-375q0 -18 -8 -29q-9 -12 -25 -12h-114q-16 0 -27 12q-10 15 -10 29zM344 575 q141 -6 203 -6q201 0 295 70t94 233v29q0 154 -96.5 219.5t-292.5 65.5q-141 0 -203 -4v-607z" />
<glyph unicode="&#xdf;" horiz-adv-x="1189" d="M133 43v1010q0 123 33 221q31 94 92 155.5t147.5 92t192.5 30.5q135 0 236 -43q102 -43 157.5 -135t55.5 -227v-25q0 -102 -62 -188q-63 -90 -154 -127q109 -37 179 -127q70 -92 69 -211v-29q0 -154 -65 -256q-68 -106 -174 -151q-111 -47 -246 -47q-37 0 -98 6 q-41 4 -41 39v84q0 23 22 22h49q6 0 18.5 -1t20.5 -1q160 0 246 67.5t86 237.5v29q0 117 -84 190q-80 72 -233 72h-76q-16 0 -28.5 12.5t-12.5 28.5v59q0 16 12 28.5t29 12.5h76q98 0 163 35q61 33 93 90q31 59 30 125v25q0 74 -28 131q-29 55 -88 86q-61 31 -152 31 q-96 0 -158 -35q-63 -37 -94 -113t-31 -194v-1010q0 -16 -10 -31q-10 -12 -26 -12h-109q-18 0 -27 12q-10 15 -10 31z" />
<glyph unicode="&#xe0;" horiz-adv-x="1062" d="M98 317v25q0 88 27 147q29 61 84 103q55 39 151 61q90 20 232 21h151v82q0 129 -49 180t-170 51q-139 0 -313 -16h-10q-37 0 -37 33v71q0 33 43 39q158 27 317 27q399 0 400 -385v-715q0 -16 -12.5 -28.5t-28.5 -12.5h-95q-16 0 -28 12.5t-12 28.5v45q-76 -41 -103 -51 q-70 -29 -106 -37q-55 -12 -107 -12q-143 0 -239 77q-95 76 -95 254zM279 319q0 -72 22 -112q23 -43 61 -57q43 -16 105 -17q72 0 133 19q57 16 143 63v330h-151q-180 0 -248 -45q-66 -43 -65 -156v-25zM248 1581q0 14 22 14h136q18 0 26 -6q9 -6 25 -24l198 -254 q8 -8 9 -21q0 -14 -19 -14h-110q-16 0 -23 6l-4 4l-9 9t-11 12l-232 258q-8 8 -8 16z" />
<glyph unicode="&#xe1;" horiz-adv-x="1062" d="M98 317v25q0 88 27 147q29 61 84 103q55 39 151 61q90 20 232 21h151v82q0 129 -49 180t-170 51q-139 0 -313 -16h-10q-37 0 -37 33v71q0 33 43 39q158 27 317 27q399 0 400 -385v-715q0 -16 -12.5 -28.5t-28.5 -12.5h-95q-16 0 -28 12.5t-12 28.5v45q-76 -41 -103 -51 q-70 -29 -106 -37q-55 -12 -107 -12q-143 0 -239 77q-95 76 -95 254zM279 319q0 -72 22 -112q23 -43 61 -57q43 -16 105 -17q72 0 133 19q57 16 143 63v330h-151q-180 0 -248 -45q-66 -43 -65 -156v-25zM428 1290q0 12 8 21l201 254q20 23 27 26q8 4 22 4h135q23 0 23 -14 q0 -8 -8 -16l-232 -258l-24 -25q-6 -6 -23 -6h-110q-19 0 -19 14z" />
<glyph unicode="&#xe2;" horiz-adv-x="1062" d="M98 317v25q0 88 27 147q29 61 84 103q55 39 151 61q90 20 232 21h151v82q0 129 -49 180t-170 51q-139 0 -313 -16h-10q-37 0 -37 33v71q0 33 43 39q158 27 317 27q399 0 400 -385v-715q0 -16 -12.5 -28.5t-28.5 -12.5h-95q-16 0 -28 12.5t-12 28.5v45q-76 -41 -103 -51 q-70 -29 -106 -37q-55 -12 -107 -12q-143 0 -239 77q-95 76 -95 254zM279 319q0 -72 22 -112q23 -43 61 -57q43 -16 105 -17q72 0 133 19q57 16 143 63v330h-151q-180 0 -248 -45q-66 -43 -65 -156v-25zM188 1290q0 12 8 21l197 254q10 16 24 24q8 6 25 6h174q27 0 51 -30 l195 -254q8 -8 8 -21q0 -14 -18 -14h-107q-16 0 -23 6l-4 4l-9 9t-11 12l-168 198l-170 -198l-25 -25q-6 -6 -22 -6h-107q-18 0 -18 14z" />
<glyph unicode="&#xe3;" horiz-adv-x="1062" d="M98 317v25q0 88 27 147q29 61 84 103q55 39 151 61q90 20 232 21h151v82q0 129 -49 180t-170 51q-139 0 -313 -16h-10q-37 0 -37 33v71q0 33 43 39q158 27 317 27q399 0 400 -385v-715q0 -16 -12.5 -28.5t-28.5 -12.5h-95q-16 0 -28 12.5t-12 28.5v45q-76 -41 -103 -51 q-70 -29 -106 -37q-55 -12 -107 -12q-143 0 -239 77q-95 76 -95 254zM279 319q0 -72 22 -112q23 -43 61 -57q43 -16 105 -17q72 0 133 19q57 16 143 63v330h-151q-180 0 -248 -45q-66 -43 -65 -156v-25zM186 1333v43q0 109 51 166t144 57q59 0 123 -49l145 -114 q18 -14 37 -21q29 -8 35 -8q33 0 47 20.5t14 69.5v47q0 14 10.5 24.5t24.5 10.5h63q12 0 22.5 -10t10.5 -25v-47q0 -111 -45 -162q-47 -53 -147 -53q-80 0 -131 43l-125 100q-41 31 -52 37q-14 8 -32 8q-33 0 -50 -22q-14 -20 -14 -72v-43q0 -14 -10 -24.5t-25 -10.5h-63 q-16 0 -24.5 10.5t-8.5 24.5z" />
<glyph unicode="&#xe4;" horiz-adv-x="1062" d="M98 317v25q0 88 27 147q29 61 84 103q55 39 151 61q90 20 232 21h151v82q0 129 -49 180t-170 51q-139 0 -313 -16h-10q-37 0 -37 33v71q0 33 43 39q158 27 317 27q399 0 400 -385v-715q0 -16 -12.5 -28.5t-28.5 -12.5h-95q-16 0 -28 12.5t-12 28.5v45q-76 -41 -103 -51 q-70 -29 -106 -37q-55 -12 -107 -12q-143 0 -239 77q-95 76 -95 254zM279 319q0 -72 22 -112q23 -43 61 -57q43 -16 105 -17q72 0 133 19q57 16 143 63v330h-151q-180 0 -248 -45q-66 -43 -65 -156v-25zM275 1352v166q0 16 12 28.5t29 12.5h80q16 0 28.5 -12.5t12.5 -28.5 v-166q0 -16 -13 -29q-10 -10 -28 -10h-80q-18 0 -29 10q-12 13 -12 29zM633 1352v166q0 16 12.5 28.5t28.5 12.5h80q16 0 28.5 -12.5t12.5 -28.5v-166q0 -16 -12 -29q-10 -10 -29 -10h-80q-18 0 -28 10q-13 13 -13 29z" />
<glyph unicode="&#xe5;" horiz-adv-x="1062" d="M98 317v25q0 88 27 147q29 61 84 103q55 39 151 61q90 20 232 21h151v82q0 129 -49 180t-170 51q-139 0 -313 -16h-10q-37 0 -37 33v71q0 33 43 39q158 27 317 27q399 0 400 -385v-715q0 -16 -12.5 -28.5t-28.5 -12.5h-95q-16 0 -28 12.5t-12 28.5v45q-76 -41 -103 -51 q-70 -29 -106 -37q-55 -12 -107 -12q-143 0 -239 77q-95 76 -95 254zM279 319q0 -72 22 -112q23 -43 61 -57q43 -16 105 -17q72 0 133 19q57 16 143 63v330h-151q-180 0 -248 -45q-66 -43 -65 -156v-25zM733 1440q0 -84 -61.5 -145.5t-145.5 -61.5q-53 0 -104 29 q-47 27 -76 73.5t-29 104t29 104.5q29 49 73 76q47 29 106.5 29t104.5 -27t74 -78t29 -104zM635 1442q0 45 -33 75.5t-76 30.5q-45 0 -76 -30.5t-31 -75.5q0 -41 31 -76q31 -33 76 -33t78 33q31 31 31 76z" />
<glyph unicode="&#xe6;" horiz-adv-x="1746" d="M98 324v18q0 115 49 188q47 72 156 109q102 35 289 35h153v82q0 86 -22.5 137t-69.5 72q-51 23 -129 22q-139 0 -313 -16h-4h-6q-37 0 -37 33v71q0 33 43 39q158 27 317 27q246 0 340 -144q123 143 334 144q113 0 195 -37q88 -39 141 -105q57 -70 84 -159q27 -88 27 -203 v-86q0 -45 -39 -45h-682v-66q0 -156 73.5 -229.5t225.5 -73.5q86 0 176 8q113 10 174 21h4h6q33 0 33 -29v-69q0 -23 -8 -31q-10 -10 -33 -17q-83 -15 -172 -24q-98 -10 -191 -10q-82 0 -145 12q-74 14 -117 37q-51 27 -92 71q-70 -59 -166 -90q-98 -31 -203 -30 q-168 0 -278 84q-113 86 -113 254zM281 324q0 -104 63.5 -149.5t169.5 -45.5q147 0 231 64v350h-153q-178 0 -246 -45q-66 -43 -65 -156v-18zM924 643h542v10q0 164 -67 250q-66 84 -201 84q-133 0 -203 -88q-72 -90 -71 -246v-10z" />
<glyph unicode="&#xe7;" horiz-adv-x="925" d="M102 483v160q0 147 50 262q47 111 149 174q98 61 238 62q121 0 256 -23q20 -2 32 -14q8 -8 9 -31v-74q0 -31 -35 -30h-8q-117 14 -254 14q-256 0 -256 -340v-160q0 -166 65 -254q65 -86 191 -86q139 0 254 15h8q35 0 35 -31v-74q0 -35 -41 -45q-131 -23 -256 -22 q-133 0 -236 61q-96 57 -149 172q-52 108 -52 264zM244 -371q0 12 8 21l199 254q25 31 51 30h135q23 0 22 -14q0 -8 -8 -16l-231 -258q-4 -4 -8 -8.5l-6.5 -7.5t-5.5 -5t-5 -4q-10 -6 -22 -6h-111q-18 0 -18 14z" />
<glyph unicode="&#xe8;" horiz-adv-x="1112" d="M102 477v185q0 223 119 350q119 129 336 129q145 0 248 -60q106 -61 153 -166q49 -109 50 -253v-111q0 -45 -39 -45h-686v-29q0 -180 69 -256q72 -78 215 -78q94 0 193 7q119 8 172 16h10q33 0 33 -29v-69q0 -23 -8 -31q-10 -10 -33 -17q-80 -14 -174 -24 q-98 -10 -193 -10q-127 0 -233 47q-102 45 -168 153q-64 107 -64 291zM283 643h542v19q0 117 -30 186q-31 72 -88 102q-61 33 -150 33q-274 0 -274 -321v-19zM315 1581q0 14 22 14h136q18 0 26 -6q9 -6 25 -24l198 -254q8 -8 9 -21q0 -14 -19 -14h-110q-16 0 -23 6l-4 4 l-9 9t-11 12l-232 258q-8 8 -8 16z" />
<glyph unicode="&#xe9;" horiz-adv-x="1112" d="M102 477v185q0 223 119 350q119 129 336 129q145 0 248 -60q106 -61 153 -166q49 -109 50 -253v-111q0 -45 -39 -45h-686v-29q0 -180 69 -256q72 -78 215 -78q94 0 193 7q119 8 172 16h10q33 0 33 -29v-69q0 -23 -8 -31q-10 -10 -33 -17q-80 -14 -174 -24 q-98 -10 -193 -10q-127 0 -233 47q-102 45 -168 153q-64 107 -64 291zM283 643h542v19q0 117 -30 186q-31 72 -88 102q-61 33 -150 33q-274 0 -274 -321v-19zM473 1290q0 12 8 21l201 254q20 23 27 26q8 4 22 4h135q23 0 23 -14q0 -8 -8 -16l-232 -258l-24 -25q-6 -6 -23 -6 h-110q-19 0 -19 14z" />
<glyph unicode="&#xea;" horiz-adv-x="1112" d="M102 477v185q0 223 119 350q119 129 336 129q145 0 248 -60q106 -61 153 -166q49 -109 50 -253v-111q0 -45 -39 -45h-686v-29q0 -180 69 -256q72 -78 215 -78q94 0 193 7q119 8 172 16h10q33 0 33 -29v-69q0 -23 -8 -31q-10 -10 -33 -17q-80 -14 -174 -24 q-98 -10 -193 -10q-127 0 -233 47q-102 45 -168 153q-64 107 -64 291zM283 643h542v19q0 117 -30 186q-31 72 -88 102q-61 33 -150 33q-274 0 -274 -321v-19zM217 1290q0 12 8 21l197 254q10 16 24 24q8 6 25 6h174q27 0 51 -30l195 -254q8 -8 8 -21q0 -14 -18 -14h-107 q-16 0 -23 6l-4 4l-9 9t-11 12l-168 198l-170 -198l-25 -25q-6 -6 -22 -6h-107q-18 0 -18 14z" />
<glyph unicode="&#xeb;" horiz-adv-x="1112" d="M102 477v185q0 223 119 350q119 129 336 129q145 0 248 -60q106 -61 153 -166q49 -109 50 -253v-111q0 -45 -39 -45h-686v-29q0 -180 69 -256q72 -78 215 -78q94 0 193 7q119 8 172 16h10q33 0 33 -29v-69q0 -23 -8 -31q-10 -10 -33 -17q-80 -14 -174 -24 q-98 -10 -193 -10q-127 0 -233 47q-102 45 -168 153q-64 107 -64 291zM283 643h542v19q0 117 -30 186q-31 72 -88 102q-61 33 -150 33q-274 0 -274 -321v-19zM305 1352v166q0 16 12 28.5t29 12.5h80q16 0 28.5 -12.5t12.5 -28.5v-166q0 -16 -13 -29q-10 -10 -28 -10h-80 q-18 0 -29 10q-12 13 -12 29zM663 1352v166q0 16 12.5 28.5t28.5 12.5h80q16 0 28.5 -12.5t12.5 -28.5v-166q0 -16 -12 -29q-10 -10 -29 -10h-80q-18 0 -28 10q-13 13 -13 29z" />
<glyph unicode="&#xec;" horiz-adv-x="505" d="M342 41q0 -16 -12.5 -28.5t-28.5 -12.5h-98q-16 0 -28.5 12.5t-12.5 28.5v1044q0 16 12 28.5t29 12.5h98q18 0 31 -12q10 -10 10 -29v-1044zM-39 1581q0 14 22 14h136q18 0 26 -6q9 -6 25 -24l198 -254q8 -8 9 -21q0 -14 -19 -14h-110q-16 0 -23 6l-4 4l-9 9t-11 12 l-232 258q-8 8 -8 16z" />
<glyph unicode="&#xed;" horiz-adv-x="505" d="M342 41q0 -16 -12.5 -28.5t-28.5 -12.5h-98q-16 0 -28.5 12.5t-12.5 28.5v1044q0 16 12 28.5t29 12.5h98q18 0 31 -12q10 -10 10 -29v-1044zM139 1290q0 12 8 21l201 254q20 23 27 26q8 4 22 4h135q23 0 23 -14q0 -8 -8 -16l-232 -258l-24 -25q-6 -6 -23 -6h-110 q-19 0 -19 14z" />
<glyph unicode="&#xee;" horiz-adv-x="505" d="M342 41q0 -16 -12.5 -28.5t-28.5 -12.5h-98q-16 0 -28.5 12.5t-12.5 28.5v1044q0 16 12 28.5t29 12.5h98q18 0 31 -12q10 -10 10 -29v-1044zM-90 1290q0 12 8 21l197 254q10 16 24 24q8 6 25 6h174q27 0 51 -30l195 -254q8 -8 8 -21q0 -14 -18 -14h-107q-16 0 -23 6l-4 4 l-9 9t-11 12l-168 198l-170 -198l-25 -25q-6 -6 -22 -6h-107q-18 0 -18 14z" />
<glyph unicode="&#xef;" horiz-adv-x="505" d="M342 41q0 -16 -12.5 -28.5t-28.5 -12.5h-98q-16 0 -28.5 12.5t-12.5 28.5v1044q0 16 12 28.5t29 12.5h98q18 0 31 -12q10 -10 10 -29v-1044zM-8 1352v166q0 16 12 28.5t29 12.5h80q16 0 28.5 -12.5t12.5 -28.5v-166q0 -16 -13 -29q-10 -10 -28 -10h-80q-18 0 -29 10 q-12 13 -12 29zM350 1352v166q0 16 12.5 28.5t28.5 12.5h80q16 0 28.5 -12.5t12.5 -28.5v-166q0 -16 -12 -29q-10 -10 -29 -10h-80q-18 0 -28 10q-13 13 -13 29z" />
<glyph unicode="&#xf0;" horiz-adv-x="1114" d="M102 498v112q0 121 29 219q25 86 88 160q57 68 143 101q84 33 197 32q145 0 229 -73q-31 78 -106 151q-72 70 -195 129l-176 -135q-16 -12 -26.5 -12t-22.5 12l-35 39q-6 6 -6 14q0 20 21 35l125 96q-84 29 -162 45q-33 8 -33 31q0 8 2 10l25 70q6 23 28 22q12 0 17 -2 q121 -27 254 -75l192 145q10 8 27 8q14 0 24 -10l35 -37q8 -8 8 -16q0 -10 -20 -29l-150 -115q111 -61 195 -145q78 -78 123 -174q45 -98 63 -213q18 -120 19 -283v-112q0 -252 -115 -381q-117 -131 -338 -131q-156 0 -256 61q-106 63 -153 174q-50 114 -50 277zM285 498 q0 -176 65.5 -266.5t210.5 -90.5q94 0 158 41q61 39 88 119q27 78 27 197v112q0 90 -15 154q-14 66 -49 113q-37 49 -86 69q-55 23 -125 23q-98 0 -158 -41q-61 -43 -88 -119q-29 -80 -28 -199v-112z" />
<glyph unicode="&#xf1;" horiz-adv-x="1140" d="M139 41v1044q0 18 11 29q12 12 28 12h103q18 0 28 -12q10 -14 10 -29v-38q90 51 162 71q80 23 164 23q182 0 268 -109q88 -111 88 -317v-674q0 -16 -12 -28.5t-28 -12.5h-99q-16 0 -28.5 12.5t-12.5 28.5v674q0 98 -22 159q-23 59 -74 87q-49 25 -129 24q-114 0 -277 -80 v-864q0 -16 -12 -28.5t-28 -12.5h-101q-14 0 -26.5 12.5t-12.5 28.5zM215 1333v43q0 109 51 166t144 57q59 0 123 -49l145 -114q18 -14 37 -21q29 -8 35 -8q33 0 47 20.5t14 69.5v47q0 14 10.5 24.5t24.5 10.5h63q12 0 22.5 -10t10.5 -25v-47q0 -111 -45 -162 q-47 -53 -147 -53q-80 0 -131 43l-125 100q-41 31 -52 37q-14 8 -32 8q-33 0 -50 -22q-14 -20 -14 -72v-43q0 -14 -10 -24.5t-25 -10.5h-63q-16 0 -24.5 10.5t-8.5 24.5z" />
<glyph unicode="&#xf2;" horiz-adv-x="1114" d="M102 485v156q0 229 117 364.5t338 135.5q111 0 199 -35q78 -31 141 -100q61 -68 88 -158q29 -96 29 -207v-156q0 -156 -51 -264q-53 -115 -156 -174q-104 -61 -250 -61q-221 0 -338 135t-117 364zM283 485q0 -342 274 -342q141 0 209 88t68 254v156q0 163 -68 252 q-68 90 -209 90q-139 0 -207 -90q-68 -89 -67 -252v-156zM260 1581q0 14 22 14h136q18 0 26 -6q9 -6 25 -24l198 -254q8 -8 9 -21q0 -14 -19 -14h-110q-16 0 -23 6l-4 4l-9 9t-11 12l-232 258q-8 8 -8 16z" />
<glyph unicode="&#xf3;" horiz-adv-x="1114" d="M102 485v156q0 229 117 364.5t338 135.5q111 0 199 -35q78 -31 141 -100q61 -68 88 -158q29 -96 29 -207v-156q0 -156 -51 -264q-53 -115 -156 -174q-104 -61 -250 -61q-221 0 -338 135t-117 364zM283 485q0 -342 274 -342q141 0 209 88t68 254v156q0 163 -68 252 q-68 90 -209 90q-139 0 -207 -90q-68 -89 -67 -252v-156zM454 1290q0 12 8 21l201 254q20 23 27 26q8 4 22 4h135q23 0 23 -14q0 -8 -8 -16l-232 -258l-24 -25q-6 -6 -23 -6h-110q-19 0 -19 14z" />
<glyph unicode="&#xf4;" horiz-adv-x="1114" d="M102 485v156q0 229 117 364.5t338 135.5q111 0 199 -35q78 -31 141 -100q61 -68 88 -158q29 -96 29 -207v-156q0 -156 -51 -264q-53 -115 -156 -174q-104 -61 -250 -61q-221 0 -338 135t-117 364zM283 485q0 -342 274 -342q141 0 209 88t68 254v156q0 163 -68 252 q-68 90 -209 90q-139 0 -207 -90q-68 -89 -67 -252v-156zM219 1290q0 12 8 21l197 254q10 16 24 24q8 6 25 6h174q27 0 51 -30l195 -254q8 -8 8 -21q0 -14 -18 -14h-107q-16 0 -23 6l-4 4l-9 9t-11 12l-168 198l-170 -198l-25 -25q-6 -6 -22 -6h-107q-18 0 -18 14z" />
<glyph unicode="&#xf5;" horiz-adv-x="1114" d="M102 485v156q0 229 117 364.5t338 135.5q111 0 199 -35q78 -31 141 -100q61 -68 88 -158q29 -96 29 -207v-156q0 -156 -51 -264q-53 -115 -156 -174q-104 -61 -250 -61q-221 0 -338 135t-117 364zM283 485q0 -342 274 -342q141 0 209 88t68 254v156q0 163 -68 252 q-68 90 -209 90q-139 0 -207 -90q-68 -89 -67 -252v-156zM207 1333v43q0 109 51 166t144 57q59 0 123 -49l145 -114q18 -14 37 -21q29 -8 35 -8q33 0 47 20.5t14 69.5v47q0 14 10.5 24.5t24.5 10.5h63q12 0 22.5 -10t10.5 -25v-47q0 -111 -45 -162q-47 -53 -147 -53 q-80 0 -131 43l-125 100q-41 31 -52 37q-14 8 -32 8q-33 0 -50 -22q-14 -20 -14 -72v-43q0 -14 -10 -24.5t-25 -10.5h-63q-16 0 -24.5 10.5t-8.5 24.5z" />
<glyph unicode="&#xf6;" horiz-adv-x="1114" d="M102 485v156q0 229 117 364.5t338 135.5q111 0 199 -35q78 -31 141 -100q61 -68 88 -158q29 -96 29 -207v-156q0 -156 -51 -264q-53 -115 -156 -174q-104 -61 -250 -61q-221 0 -338 135t-117 364zM283 485q0 -342 274 -342q141 0 209 88t68 254v156q0 163 -68 252 q-68 90 -209 90q-139 0 -207 -90q-68 -89 -67 -252v-156zM295 1352v166q0 16 12 28.5t29 12.5h80q16 0 28.5 -12.5t12.5 -28.5v-166q0 -16 -13 -29q-10 -10 -28 -10h-80q-18 0 -29 10q-12 13 -12 29zM653 1352v166q0 16 12.5 28.5t28.5 12.5h80q16 0 28.5 -12.5t12.5 -28.5 v-166q0 -16 -12 -29q-10 -10 -29 -10h-80q-18 0 -28 10q-13 13 -13 29z" />
<glyph unicode="&#xf7;" d="M184 760v82q0 33 41 32h789q41 0 41 -32v-82q0 -33 -41 -33h-789q-41 0 -41 33zM528 332v182q0 14 12.5 26.5t28.5 12.5h99q16 0 28 -12q10 -10 11 -27v-182q0 -16 -11 -27q-12 -12 -28 -12h-99q-18 0 -28 10q-13 13 -13 29zM528 1079v181q0 14 12.5 26t28.5 12h99 q16 0 28 -12q10 -10 11 -26v-181q0 -16 -12.5 -28.5t-26.5 -12.5h-99q-16 0 -28.5 12.5t-12.5 28.5z" />
<glyph unicode="&#xf8;" horiz-adv-x="1114" d="M33 -55q0 14 8 22l145 197q-84 131 -84 321v156q0 229 117 364.5t338 135.5q55 0 111 -11q49 -8 94 -28q45 -18 82 -47l86 119q14 20 33 20h102q16 0 16 -16q0 -14 -8 -23l-143 -192q84 -131 84 -322v-156q0 -156 -51 -264q-53 -115 -156 -174q-104 -61 -250 -61 q-174 0 -285 86l-90 -123q-14 -20 -32 -21h-101q-16 1 -16 17zM283 485q0 -98 20 -161l438 596q-66 63 -184 63q-274 0 -274 -342v-156zM373 207q66 -63 184 -64q276 0 277 342v156q0 80 -23 160z" />
<glyph unicode="&#xf9;" horiz-adv-x="1140" d="M139 412v673q0 16 12.5 28.5t28.5 12.5h99q16 0 28 -12t12 -29v-673q0 -104 23 -162q23 -59 74 -84q49 -25 129 -25q117 0 276 80v864q0 16 12.5 28.5t28.5 12.5h101q20 0 28 -12q10 -14 10 -29v-1044q0 -14 -10 -29q-8 -12 -28 -12h-103q-16 0 -29 12q-10 10 -10 29v39 q-84 -49 -162 -72q-80 -23 -163 -22q-357 0 -357 426zM272 1581q0 14 22 14h136q18 0 26 -6q9 -6 25 -24l198 -254q8 -8 9 -21q0 -14 -19 -14h-110q-16 0 -23 6l-4 4l-9 9t-11 12l-232 258q-8 8 -8 16z" />
<glyph unicode="&#xfa;" horiz-adv-x="1140" d="M139 412v673q0 16 12.5 28.5t28.5 12.5h99q16 0 28 -12t12 -29v-673q0 -104 23 -162q23 -59 74 -84q49 -25 129 -25q117 0 276 80v864q0 16 12.5 28.5t28.5 12.5h101q20 0 28 -12q10 -14 10 -29v-1044q0 -14 -10 -29q-8 -12 -28 -12h-103q-16 0 -29 12q-10 10 -10 29v39 q-84 -49 -162 -72q-80 -23 -163 -22q-357 0 -357 426zM473 1290q0 12 8 21l201 254q20 23 27 26q8 4 22 4h135q23 0 23 -14q0 -8 -8 -16l-232 -258l-24 -25q-6 -6 -23 -6h-110q-19 0 -19 14z" />
<glyph unicode="&#xfb;" horiz-adv-x="1140" d="M139 412v673q0 16 12.5 28.5t28.5 12.5h99q16 0 28 -12t12 -29v-673q0 -104 23 -162q23 -59 74 -84q49 -25 129 -25q117 0 276 80v864q0 16 12.5 28.5t28.5 12.5h101q20 0 28 -12q10 -14 10 -29v-1044q0 -14 -10 -29q-8 -12 -28 -12h-103q-16 0 -29 12q-10 10 -10 29v39 q-84 -49 -162 -72q-80 -23 -163 -22q-357 0 -357 426zM231 1290q0 12 8 21l197 254q10 16 24 24q8 6 25 6h174q27 0 51 -30l195 -254q8 -8 8 -21q0 -14 -18 -14h-107q-16 0 -23 6l-4 4l-9 9t-11 12l-168 198l-170 -198l-25 -25q-6 -6 -22 -6h-107q-18 0 -18 14z" />
<glyph unicode="&#xfc;" horiz-adv-x="1140" d="M139 412v673q0 16 12.5 28.5t28.5 12.5h99q16 0 28 -12t12 -29v-673q0 -104 23 -162q23 -59 74 -84q49 -25 129 -25q117 0 276 80v864q0 16 12.5 28.5t28.5 12.5h101q20 0 28 -12q10 -14 10 -29v-1044q0 -14 -10 -29q-8 -12 -28 -12h-103q-16 0 -29 12q-10 10 -10 29v39 q-84 -49 -162 -72q-80 -23 -163 -22q-357 0 -357 426zM309 1352v166q0 16 12 28.5t29 12.5h80q16 0 28.5 -12.5t12.5 -28.5v-166q0 -16 -13 -29q-10 -10 -28 -10h-80q-18 0 -29 10q-12 13 -12 29zM667 1352v166q0 16 12.5 28.5t28.5 12.5h80q16 0 28.5 -12.5t12.5 -28.5 v-166q0 -16 -12 -29q-10 -10 -29 -10h-80q-18 0 -28 10q-13 13 -13 29z" />
<glyph unicode="&#xfd;" horiz-adv-x="1093" d="M80 1092q0 35 37 34h112q25 0 35 -32l242 -889q12 -45 39 -45h33l249 936q4 14 14.5 22t24.5 8h115q14 0 25 -10q8 -8 8 -24q0 -12 -2 -15l-338 -1179q-31 -113 -76 -180.5t-113 -94.5q-74 -29 -186 -29q-89 0 -172 19q-43 10 -43 33v75q0 33 39 33h6q135 -12 182 -12 q94 0 135 35q43 37 68 139l21 84h-29q-53 0 -90 27q-33 25 -62 114l-272 936q-2 3 -2 15zM497 1290q0 12 8 21l201 254q20 23 27 26q8 4 22 4h135q23 0 23 -14q0 -8 -8 -16l-232 -258l-24 -25q-6 -6 -23 -6h-110q-19 0 -19 14z" />
<glyph unicode="&#xfe;" horiz-adv-x="1107" d="M139 -362v1861q0 16 12.5 28.5t28.5 12.5h99q18 0 28 -10q12 -12 12 -31v-379q123 20 240 21q113 0 199 -35q78 -33 139 -102q59 -70 84 -160q25 -92 25 -209v-148q0 -246 -113 -372q-115 -129 -334 -129q-109 0 -240 22v-370q0 -12 -10 -27q-10 -12 -28 -12h-105 q-14 0 -26 12q-11 11 -11 27zM319 158q104 -20 240 -21q143 0 205 88q61 90 61 262v148q0 170 -61.5 262t-204.5 92q-129 0 -240 -20v-811z" />
<glyph unicode="&#xff;" horiz-adv-x="1093" d="M80 1092q0 35 37 34h112q25 0 35 -32l242 -889q12 -45 39 -45h33l249 936q4 14 14.5 22t24.5 8h115q14 0 25 -10q8 -8 8 -24q0 -12 -2 -15l-338 -1179q-31 -113 -76 -180.5t-113 -94.5q-74 -29 -186 -29q-89 0 -172 19q-43 10 -43 33v75q0 33 39 33h6q135 -12 182 -12 q94 0 135 35q43 37 68 139l21 84h-29q-53 0 -90 27q-33 25 -62 114l-272 936q-2 3 -2 15zM307 1352v166q0 16 12 28.5t29 12.5h80q16 0 28.5 -12.5t12.5 -28.5v-166q0 -16 -13 -29q-10 -10 -28 -10h-80q-18 0 -29 10q-12 13 -12 29zM665 1352v166q0 16 12.5 28.5t28.5 12.5 h80q16 0 28.5 -12.5t12.5 -28.5v-166q0 -16 -12 -29q-10 -10 -29 -10h-80q-18 0 -28 10q-13 13 -13 29z" />
<glyph unicode="&#x131;" horiz-adv-x="505" d="M342 41q0 -16 -12.5 -28.5t-28.5 -12.5h-98q-16 0 -28.5 12.5t-12.5 28.5v1044q0 16 12 28.5t29 12.5h98q18 0 31 -12q10 -10 10 -29v-1044z" />
<glyph unicode="&#x152;" horiz-adv-x="2011" d="M123 629v264q0 160 41 287q39 121 115 202q74 80 176 117t223 37q135 0 235 -41q109 -45 177 -127q88 168 391 168q182 0 248 -4q109 -6 151 -14q8 0 14 -9q6 -10 7 -20v-96q0 -25 -23 -25h-395q-109 0 -162 -20.5t-72 -65.5q-18 -43 -18 -127v-285h629q16 0 28.5 -12 t12.5 -29v-77q0 -16 -12.5 -28.5t-28.5 -12.5h-629v-346q0 -84 18 -127q18 -45 71.5 -65.5t162.5 -20.5h395q23 0 23 -25v-96q0 -9 -7 -19q-6 -10 -14 -10q-39 -6 -160 -12q-126 -6 -239 -6q-301 0 -391 170q-70 -80 -177 -125q-104 -43 -235 -43q-121 0 -223 37 q-106 39 -178 116.5t-113 202.5q-41 127 -41 287zM311 629q0 -166 43 -273q41 -102 127 -153q84 -49 197 -49q367 0 366 473v274q0 141 -32 242q-33 104 -115 164q-82 61 -219 61q-117 0 -197 -47q-84 -51 -127 -156q-43 -109 -43 -272v-264z" />
<glyph unicode="&#x153;" horiz-adv-x="1839" d="M102 485v156q0 229 117 364.5t338 135.5q248 0 367 -168q117 168 364 168q145 0 247.5 -59.5t152.5 -166.5q51 -113 51 -253v-111q0 -45 -39 -45h-686v-21q0 -170 61.5 -256t222.5 -86q94 0 193 7q119 8 172 16h10q33 0 33 -29v-69q0 -23 -8 -31q-10 -10 -33 -17 q-80 -14 -174 -24q-98 -10 -193 -10q-260 0 -376 168q-119 -168 -365 -168q-221 0 -338 135t-117 364zM283 485q0 -342 274 -342q141 0 209 88t68 254v156q0 163 -68 252q-68 90 -209 90q-139 0 -207 -90q-68 -89 -67 -252v-156zM1014 643h542v19q0 117 -30 186 q-31 72 -88 102q-61 33 -150 33q-274 0 -274 -321v-19z" />
<glyph unicode="&#x178;" horiz-adv-x="1193" d="M72 1493q0 10 10 20q8 8 24 9h125q10 0 20.5 -8.5t16.5 -20.5l283 -664q23 -53 47.5 -53t46.5 53l285 664q12 29 35 29h125q16 0 24 -9q10 -10 10 -20q0 -6 -6 -23l-317 -712q-49 -108 -111 -135v-582q0 -14 -10 -29q-8 -12 -27 -12h-112q-16 0 -27 12q-10 14 -10 29v582 q-55 20 -111 135l-315 712q-6 17 -6 23zM336 1682v166q0 16 12 28.5t29 12.5h80q16 0 28.5 -12.5t12.5 -28.5v-166q0 -16 -13 -29q-10 -10 -28 -10h-80q-18 0 -29 10q-12 13 -12 29zM694 1682v166q0 16 12.5 28.5t28.5 12.5h80q16 0 28.5 -12.5t12.5 -28.5v-166 q0 -16 -12 -29q-10 -10 -29 -10h-80q-18 0 -28 10q-13 13 -13 29z" />
<glyph unicode="&#x2c6;" horiz-adv-x="763" d="M41 1290q0 12 8 21l197 254q10 16 24 24q8 6 25 6h174q27 0 51 -30l195 -254q8 -8 8 -21q0 -14 -18 -14h-107q-16 0 -23 6l-4 4l-9 9t-11 12l-168 198l-170 -198l-25 -25q-6 -6 -22 -6h-107q-18 0 -18 14z" />
<glyph unicode="&#x2da;" horiz-adv-x="763" d="M590 1440q0 -84 -61.5 -145.5t-145.5 -61.5q-53 0 -104 29q-47 27 -76 73.5t-29 104t29 104.5q29 49 73 76q47 29 106.5 29t104.5 -27t74 -78t29 -104zM492 1442q0 45 -33 75.5t-76 30.5q-45 0 -76 -30.5t-31 -75.5q0 -41 31 -76q31 -33 76 -33t78 33q31 31 31 76z" />
<glyph unicode="&#x2dc;" horiz-adv-x="1009" d="M131 1333v43q0 109 51 166t144 57q59 0 123 -49l145 -114q18 -14 37 -21q29 -8 35 -8q33 0 47 20.5t14 69.5v47q0 14 10.5 24.5t24.5 10.5h63q12 0 22.5 -10t10.5 -25v-47q0 -111 -45 -162q-47 -53 -147 -53q-80 0 -131 43l-125 100q-41 31 -52 37q-14 8 -32 8 q-33 0 -50 -22q-14 -20 -14 -72v-43q0 -14 -10 -24.5t-25 -10.5h-63q-16 0 -24.5 10.5t-8.5 24.5z" />
<glyph unicode="&#x2000;" horiz-adv-x="1001" />
<glyph unicode="&#x2001;" horiz-adv-x="2004" />
<glyph unicode="&#x2002;" horiz-adv-x="1001" />
<glyph unicode="&#x2003;" horiz-adv-x="2004" />
<glyph unicode="&#x2004;" horiz-adv-x="667" />
<glyph unicode="&#x2005;" horiz-adv-x="499" />
<glyph unicode="&#x2006;" horiz-adv-x="333" />
<glyph unicode="&#x2007;" horiz-adv-x="333" />
<glyph unicode="&#x2008;" horiz-adv-x="249" />
<glyph unicode="&#x2009;" horiz-adv-x="399" />
<glyph unicode="&#x200a;" horiz-adv-x="110" />
<glyph unicode="&#x2010;" horiz-adv-x="681" d="M98 559v80q0 16 10.5 26.5t28.5 10.5h408q18 0 28.5 -10.5t10.5 -26.5v-80q0 -18 -10.5 -26.5t-28.5 -8.5h-408q-39 0 -39 35z" />
<glyph unicode="&#x2011;" horiz-adv-x="681" d="M98 559v80q0 16 10.5 26.5t28.5 10.5h408q18 0 28.5 -10.5t10.5 -26.5v-80q0 -18 -10.5 -26.5t-28.5 -8.5h-408q-39 0 -39 35z" />
<glyph unicode="&#x2012;" horiz-adv-x="681" d="M98 559v80q0 16 10.5 26.5t28.5 10.5h408q18 0 28.5 -10.5t10.5 -26.5v-80q0 -18 -10.5 -26.5t-28.5 -8.5h-408q-39 0 -39 35z" />
<glyph unicode="&#x2013;" horiz-adv-x="868" d="M88 539v79q0 18 10 27q14 10 29 10h618q12 0 27 -10q12 -10 12 -27v-79q0 -35 -39 -35h-618q-39 0 -39 35z" />
<glyph unicode="&#x2014;" horiz-adv-x="1138" d="M88 539v79q0 18 10 27q14 10 29 10h885q14 0 28 -10q10 -8 11 -27v-79q0 -35 -39 -35h-885q-39 0 -39 35z" />
<glyph unicode="&#x2018;" horiz-adv-x="380" d="M59 1098q0 12 2 16l125 387q12 39 39 39h78q18 0 19 -20q0 -14 -3 -19l-75 -387q-8 -39 -41 -39h-121q-23 0 -23 23z" />
<glyph unicode="&#x2019;" horiz-adv-x="380" d="M59 1096q0 14 2 18l76 387q8 39 41 39h121q23 0 23 -22q0 -12 -3 -17l-124 -387q-12 -39 -39 -39h-78q-19 1 -19 21z" />
<glyph unicode="&#x201a;" horiz-adv-x="380" d="M41 -176q0 12 2 14l117 387q12 39 41 39h118q27 0 27 -22l-4 -17l-154 -387l-16 -31q-6 -8 -22 -8h-84q-25 0 -25 25z" />
<glyph unicode="&#x201c;" horiz-adv-x="686" d="M59 1098q0 12 2 16l125 387q12 39 39 39h78q18 0 19 -20q0 -14 -3 -19l-75 -387q-8 -39 -41 -39h-121q-23 0 -23 23zM367 1098q0 12 2 16l125 387q12 39 38 39h78q18 0 19 -20q0 -14 -2 -19l-76 -387q-8 -39 -41 -39h-121q-22 0 -22 23z" />
<glyph unicode="&#x201d;" horiz-adv-x="686" d="M59 1096q0 14 2 18l76 387q8 39 41 39h121q23 0 23 -22q0 -12 -3 -17l-124 -387q-12 -39 -39 -39h-78q-19 1 -19 21zM367 1096q0 14 2 18l75 387q8 39 41 39h121q23 0 23 -22q0 -12 -2 -17l-125 -387q-12 -39 -39 -39h-78q-18 1 -18 21z" />
<glyph unicode="&#x201e;" horiz-adv-x="686" d="M41 -176q0 12 2 14l117 387q12 39 41 39h118q27 0 27 -22l-4 -17l-154 -387l-16 -31q-6 -8 -22 -8h-84q-25 0 -25 25zM410 -176q0 12 2 14l116 387q12 39 41 39h119q27 0 27 -22l-4 -17l-154 -387l-16 -31q-6 -8 -23 -8h-84q-24 0 -24 25z" />
<glyph unicode="&#x2022;" horiz-adv-x="854" d="M102 752q0 90 43 163q43 76 119 119q74 43 164 43q59 0 127 -26q61 -25 104 -68t68 -104q27 -68 27 -127q0 -90 -43 -164q-43 -76 -119 -119q-74 -43 -164 -43t-164 43q-76 43 -119 119q-43 74 -43 164z" />
<glyph unicode="&#x2026;" horiz-adv-x="1239" d="M119 39v192q0 14 12 26.5t29 12.5h98q16 0 29 -12q10 -10 10 -27v-192q0 -16 -12 -29q-10 -10 -27 -10h-98q-18 0 -29 10q-12 13 -12 29zM532 39v192q0 16 11 27q12 12 28 12h99q16 0 28.5 -12t12.5 -27v-192q0 -16 -13 -29q-10 -10 -28 -10h-99q-16 0 -28 12 q-11 11 -11 27zM944 39v192q0 14 12.5 26.5t28.5 12.5h98q14 0 26.5 -12t12.5 -27v-192q0 -16 -12 -29q-10 -10 -27 -10h-98q-18 0 -29 10q-12 13 -12 29z" />
<glyph unicode="&#x202f;" horiz-adv-x="399" />
<glyph unicode="&#x2039;" horiz-adv-x="724" d="M61 567q0 31 23 58l346 346q20 20 43 20h119q8 0 16 -4q6 -4 6 -14q0 -14 -12 -27l-364 -379l364 -379q12 -12 12 -26q0 -18 -22 -19h-119q-23 0 -43 21l-346 346q-23 22 -23 57z" />
<glyph unicode="&#x203a;" horiz-adv-x="724" d="M111 162q0 14 12 26l364 379l-364 379q-12 12 -12 27q0 18 22 18h119q23 0 43 -20l346 -346q23 -27 23 -58q0 -35 -23 -57l-346 -346q-20 -20 -43 -21h-119q-22 1 -22 19z" />
<glyph unicode="&#x205f;" horiz-adv-x="499" />
<glyph unicode="&#x20ac;" d="M106 584v57q0 16 12.5 28.5t28.5 12.5h66v166h-66q-16 0 -28.5 12t-12.5 29v57q0 16 12.5 28.5t28.5 12.5h68q12 158 66 260q55 109 137 172q80 61 176 90q92 27 192 27q98 0 158 -8q53 -8 154 -25q33 -4 32 -26v-105q0 -23 -24 -22h-6q-221 18 -312 18q-154 0 -260 -90 q-104 -88 -125 -291h594q16 0 25 -8q10 -10 10 -25v-4l-1 -2l-1 -2l-14 -57q-12 -41 -41 -41h-576v-166h527q31 0 30 -31v-4l-1 -2q-1 -2 -1 -4l-14 -57q-12 -41 -41 -41h-498q12 -139 68 -226q57 -90 137 -124q88 -39 182 -39q96 0 306 16h8q33 0 33 -33v-84q0 -35 -41 -41 q-63 -14 -136 -20q-61 -6 -172 -6q-92 0 -190 28q-95 28 -178 92q-82 63 -137 173q-53 102 -66 264h-68q-16 0 -28.5 12.5t-12.5 28.5z" />
<glyph unicode="&#x2122;" horiz-adv-x="1617" d="M51 1440v51q0 12 10 22q8 8 23 9h530q16 0 25 -9q10 -10 10 -22v-51q0 -29 -35 -29h-198v-690q0 -8 -10 -23q-8 -10 -23 -10h-66q-10 0 -20 10.5t-10 22.5v690h-203q-33 0 -33 29zM723 709v759q0 18 6 29q4 6 25 10q182 20 372 21q115 0 189 -12.5t121 -47t71 -98.5 q23 -59 23 -170v-491q0 -20 -21 -21h-84q-20 0 -20 21v491q0 82 -14 131q-12 43 -58 62q-43 18 -143 18v-702q0 -20 -21 -21h-86q-20 0 -20 21v702q-104 0 -217 -12v-690q0 -20 -19 -21h-84q-20 1 -20 21z" />
<glyph unicode="&#x2219;" horiz-adv-x="436" d="M307 707q0 -16 -12 -28.5t-27 -12.5h-98q-14 0 -26.5 12t-12.5 29v190q0 16 10 27q12 12 29 12h98q12 0 27 -10q12 -8 12 -29v-190z" />
<glyph unicode="&#xf001;" horiz-adv-x="1271" d="M51 1034v56q0 16 12 26q14 10 27 10h199v148q0 106 33 170q31 59 96 88q61 27 157 27q43 0 115 -13q39 -6 39 -33v-67q0 -31 -37 -31h-98q-51 0 -76 -12q-27 -12 -37 -41q-12 -31 -12 -88v-148h215q12 0 27 -10q12 -10 12 -26v-80q0 -35 -39 -35h-215v-934 q0 -16 -12.5 -28.5t-26.5 -12.5h-100q-16 0 -28.5 12.5t-12.5 28.5v934l-199 22q-23 4 -29 11q-10 10 -10 26zM926 1348v163q0 16 12 28.5t29 12.5h104q18 0 31 -12q10 -10 10 -29v-163q0 -16 -12.5 -28.5t-28.5 -12.5h-104q-16 0 -28.5 12.5t-12.5 28.5zM928 41v1044 q0 16 12 28.5t29 12.5h98q18 0 31 -12q10 -10 10 -29v-1044q0 -16 -12.5 -28.5t-28.5 -12.5h-98q-16 0 -28.5 12.5t-12.5 28.5z" />
<glyph unicode="&#xfb01;" horiz-adv-x="1271" d="M51 1034v56q0 16 12 26q14 10 27 10h199v148q0 106 33 170q31 59 96 88q61 27 157 27q43 0 115 -13q39 -6 39 -33v-67q0 -31 -37 -31h-98q-51 0 -76 -12q-27 -12 -37 -41q-12 -31 -12 -88v-148h215q12 0 27 -10q12 -10 12 -26v-80q0 -35 -39 -35h-215v-934 q0 -16 -12.5 -28.5t-26.5 -12.5h-100q-16 0 -28.5 12.5t-12.5 28.5v934l-199 22q-23 4 -29 11q-10 10 -10 26zM926 1348v163q0 16 12 28.5t29 12.5h104q18 0 31 -12q10 -10 10 -29v-163q0 -16 -12.5 -28.5t-28.5 -12.5h-104q-16 0 -28.5 12.5t-12.5 28.5zM928 41v1044 q0 16 12 28.5t29 12.5h98q18 0 31 -12q10 -10 10 -29v-1044q0 -16 -12.5 -28.5t-28.5 -12.5h-98q-16 0 -28.5 12.5t-12.5 28.5z" />
<glyph unicode="&#xf002;" horiz-adv-x="1267" d="M51 1034v56q0 16 12 26q14 10 27 10h199v148q0 106 33 170q31 59 96 88q61 27 157 27q43 0 115 -13q39 -6 39 -33v-67q0 -31 -37 -31h-98q-51 0 -76 -12q-27 -12 -37 -41q-12 -31 -12 -88v-148h215q12 0 27 -10q12 -10 12 -26v-80q0 -35 -39 -35h-215v-934 q0 -16 -12.5 -28.5t-26.5 -12.5h-100q-16 0 -28.5 12.5t-12.5 28.5v934l-199 22q-23 4 -29 11q-10 10 -10 26zM928 41v1460q0 12 10 27q8 12 27 12h106q18 0 27 -10q10 -14 10 -29v-1460q0 -14 -10 -29q-8 -12 -27 -12h-106q-18 0 -27 12q-10 15 -10 29z" />
<glyph unicode="&#xfb02;" horiz-adv-x="1267" d="M51 1034v56q0 16 12 26q14 10 27 10h199v148q0 106 33 170q31 59 96 88q61 27 157 27q43 0 115 -13q39 -6 39 -33v-67q0 -31 -37 -31h-98q-51 0 -76 -12q-27 -12 -37 -41q-12 -31 -12 -88v-148h215q12 0 27 -10q12 -10 12 -26v-80q0 -35 -39 -35h-215v-934 q0 -16 -12.5 -28.5t-26.5 -12.5h-100q-16 0 -28.5 12.5t-12.5 28.5v934l-199 22q-23 4 -29 11q-10 10 -10 26zM928 41v1460q0 12 10 27q8 12 27 12h106q18 0 27 -10q10 -14 10 -29v-1460q0 -14 -10 -29q-8 -12 -27 -12h-106q-18 0 -27 12q-10 15 -10 29z" />
<glyph unicode="&#xfb03;" horiz-adv-x="2064" d="M1721 1348v163q0 16 12 28.5t29 12.5h104q18 0 31 -12q10 -10 10 -29v-163q0 -16 -12 -28.5t-29 -12.5h-104q-16 0 -28.5 12.5t-12.5 28.5zM1723 41v1044q0 16 12 28.5t29 12.5h98q18 0 31 -12q10 -10 10 -29v-1044q0 -16 -12.5 -28.5t-28.5 -12.5h-98q-16 0 -28.5 12.5 t-12.5 28.5zM831 1034v56q0 16 12 26q14 10 27 10h199v148q0 106 33 170q31 59 96 88q61 27 157 27q59 0 115 -13q39 -8 39 -33v-67q0 -31 -37 -31h-98q-51 0 -76 -12q-27 -12 -37 -41q-12 -31 -12 -88v-148h215q12 0 27 -10q12 -10 12 -26v-80q0 -35 -39 -35h-215v-934 q0 -16 -12.5 -28.5t-26.5 -12.5h-100q-16 0 -28.5 12.5t-12.5 28.5v934l-199 22q-23 4 -29 11q-10 10 -10 26zM51 1034v56q0 16 12 26q14 10 27 10h199v148q0 106 33 170q31 59 96 88q61 27 157 27q59 0 115 -13q39 -8 39 -33v-67q0 -31 -37 -31h-98q-51 0 -76 -12 q-27 -12 -37 -41q-12 -31 -12 -88v-148h215q12 0 27 -10q12 -10 12 -26v-80q0 -35 -39 -35h-215v-934q0 -16 -12.5 -28.5t-26.5 -12.5h-100q-16 0 -28.5 12.5t-12.5 28.5v934l-199 22q-23 4 -29 11q-10 10 -10 26z" />
<glyph unicode="&#xfb04;" horiz-adv-x="2058" d="M1721 41v1460q0 12 10 27q10 12 27 12h106q18 0 27 -10q10 -14 10 -29v-1460q0 -14 -10 -29q-10 -12 -27 -12h-106q-16 0 -27 12q-10 15 -10 29zM831 1034v56q0 16 12 26q14 10 27 10h199v148q0 106 33 170q31 59 96 88q61 27 157 27q59 0 115 -13q39 -8 39 -33v-67 q0 -31 -37 -31h-98q-51 0 -76 -12q-27 -12 -37 -41q-12 -31 -12 -88v-148h215q12 0 27 -10q12 -10 12 -26v-80q0 -35 -39 -35h-215v-934q0 -16 -12.5 -28.5t-26.5 -12.5h-100q-16 0 -28.5 12.5t-12.5 28.5v934l-199 22q-23 4 -29 11q-10 10 -10 26zM51 1034v56q0 16 12 26 q14 10 27 10h199v148q0 106 33 170q31 59 96 88q61 27 157 27q59 0 115 -13q39 -8 39 -33v-67q0 -31 -37 -31h-98q-51 0 -76 -12q-27 -12 -37 -41q-12 -31 -12 -88v-148h215q12 0 27 -10q12 -10 12 -26v-80q0 -35 -39 -35h-215v-934q0 -16 -12.5 -28.5t-26.5 -12.5h-100 q-16 0 -28.5 12.5t-12.5 28.5v934l-199 22q-23 4 -29 11q-10 10 -10 26z" />
</font>
</defs>
</svg>
